<mxfile host="app.diagrams.net" agent="Mozilla/5.0 (Windows NT 10.0; Win64; x64) AppleWebKit/537.36 (KHTML, like Gecko) Chrome/131.0.0.0 Safari/537.36 Edg/131.0.0.0" version="24.7.17" pages="12">
  <diagram name="Use-case" id="e56a1550-8fbb-45ad-956c-1786394a9013">
    <mxGraphModel dx="1434" dy="880" grid="1" gridSize="10" guides="1" tooltips="1" connect="1" arrows="1" fold="1" page="1" pageScale="1" pageWidth="1100" pageHeight="850" background="none" math="0" shadow="0">
      <root>
        <mxCell id="0" />
        <mxCell id="1" parent="0" />
        <mxCell id="Lzk4YQ8auaF31_SWEPO3-11" style="edgeStyle=orthogonalEdgeStyle;rounded=0;orthogonalLoop=1;jettySize=auto;html=1;exitX=1;exitY=0.3333333333333333;exitDx=0;exitDy=0;exitPerimeter=0;" parent="1" source="Lzk4YQ8auaF31_SWEPO3-1" edge="1">
          <mxGeometry relative="1" as="geometry">
            <mxPoint x="150.1428571428571" y="419.8571428571429" as="targetPoint" />
          </mxGeometry>
        </mxCell>
        <mxCell id="Lzk4YQ8auaF31_SWEPO3-1" value="Aktor&lt;br&gt;" style="shape=umlActor;verticalLabelPosition=bottom;verticalAlign=top;html=1;outlineConnect=0;" parent="1" vertex="1">
          <mxGeometry x="120" y="400" width="30" height="60" as="geometry" />
        </mxCell>
        <mxCell id="Lzk4YQ8auaF31_SWEPO3-2" value="Virtuális gép&lt;br&gt;&amp;nbsp;megvizsgálása" style="ellipse;whiteSpace=wrap;html=1;" parent="1" vertex="1">
          <mxGeometry x="310" y="410" width="150" height="60" as="geometry" />
        </mxCell>
        <mxCell id="Lzk4YQ8auaF31_SWEPO3-3" value="CPU terhelés lekérdezése" style="ellipse;whiteSpace=wrap;html=1;fillColor=#fad7ac;strokeColor=#b46504;" parent="1" vertex="1">
          <mxGeometry x="200" y="210" width="150" height="60" as="geometry" />
        </mxCell>
        <mxCell id="Lzk4YQ8auaF31_SWEPO3-4" value="Memória terhelés lekérdezése" style="ellipse;whiteSpace=wrap;html=1;fillColor=#fad7ac;strokeColor=#b46504;" parent="1" vertex="1">
          <mxGeometry x="200" y="300" width="150" height="60" as="geometry" />
        </mxCell>
        <mxCell id="Lzk4YQ8auaF31_SWEPO3-5" value="CAN üzenet csatorna állapotának lekérdezése" style="ellipse;whiteSpace=wrap;html=1;fillColor=#e1d5e7;strokeColor=#9673a6;" parent="1" vertex="1">
          <mxGeometry x="250" y="560" width="150" height="60" as="geometry" />
        </mxCell>
        <mxCell id="Lzk4YQ8auaF31_SWEPO3-6" value="&amp;lt;&amp;lt;include&amp;gt;&amp;gt;" style="html=1;verticalAlign=bottom;endArrow=open;dashed=1;endSize=8;curved=0;rounded=0;exitX=0.331;exitY=0.035;exitDx=0;exitDy=0;exitPerimeter=0;entryX=0.5;entryY=1;entryDx=0;entryDy=0;" parent="1" source="Lzk4YQ8auaF31_SWEPO3-2" target="XJFLLaeq25elcQaXyNfR-3" edge="1">
          <mxGeometry x="0.0324" y="10" relative="1" as="geometry">
            <mxPoint x="405" y="400" as="sourcePoint" />
            <mxPoint x="360" y="280" as="targetPoint" />
            <Array as="points">
              <mxPoint x="360" y="300" />
              <mxPoint x="435" y="300" />
            </Array>
            <mxPoint x="-10" y="10" as="offset" />
          </mxGeometry>
        </mxCell>
        <mxCell id="Lzk4YQ8auaF31_SWEPO3-7" value="&amp;lt;&amp;lt;include&amp;gt;&amp;gt;" style="html=1;verticalAlign=bottom;endArrow=open;dashed=1;endSize=8;curved=0;rounded=0;entryX=0.5;entryY=1;entryDx=0;entryDy=0;exitX=0;exitY=0;exitDx=0;exitDy=0;" parent="1" source="Lzk4YQ8auaF31_SWEPO3-2" target="Lzk4YQ8auaF31_SWEPO3-4" edge="1">
          <mxGeometry x="-0.4493" y="-9" relative="1" as="geometry">
            <mxPoint x="402" y="401" as="sourcePoint" />
            <mxPoint x="365" y="470" as="targetPoint" />
            <Array as="points">
              <mxPoint x="275" y="419" />
            </Array>
            <mxPoint as="offset" />
          </mxGeometry>
        </mxCell>
        <mxCell id="Lzk4YQ8auaF31_SWEPO3-8" value="&amp;lt;&amp;lt;include&amp;gt;&amp;gt;" style="html=1;verticalAlign=bottom;endArrow=open;dashed=1;endSize=8;curved=0;rounded=0;entryX=0.5;entryY=0;entryDx=0;entryDy=0;exitX=0.5;exitY=1;exitDx=0;exitDy=0;" parent="1" source="Lzk4YQ8auaF31_SWEPO3-2" target="Lzk4YQ8auaF31_SWEPO3-5" edge="1">
          <mxGeometry relative="1" as="geometry">
            <mxPoint x="365" y="412" as="sourcePoint" />
            <mxPoint x="375" y="480" as="targetPoint" />
            <Array as="points">
              <mxPoint x="385" y="520" />
              <mxPoint x="325" y="520" />
            </Array>
          </mxGeometry>
        </mxCell>
        <mxCell id="Lzk4YQ8auaF31_SWEPO3-10" value="" style="endArrow=none;html=1;rounded=0;" parent="1" edge="1">
          <mxGeometry width="50" height="50" relative="1" as="geometry">
            <mxPoint x="190" y="900" as="sourcePoint" />
            <mxPoint x="440" y="200" as="targetPoint" />
            <Array as="points">
              <mxPoint x="190" y="200" />
            </Array>
          </mxGeometry>
        </mxCell>
        <mxCell id="Lzk4YQ8auaF31_SWEPO3-12" value="" style="endArrow=none;html=1;rounded=0;" parent="1" source="Lzk4YQ8auaF31_SWEPO3-1" edge="1">
          <mxGeometry width="50" height="50" relative="1" as="geometry">
            <mxPoint x="170" y="430" as="sourcePoint" />
            <mxPoint x="190" y="430" as="targetPoint" />
          </mxGeometry>
        </mxCell>
        <mxCell id="Lzk4YQ8auaF31_SWEPO3-13" value="" style="endArrow=none;html=1;rounded=0;entryX=0;entryY=0.5;entryDx=0;entryDy=0;" parent="1" target="Lzk4YQ8auaF31_SWEPO3-4" edge="1">
          <mxGeometry width="50" height="50" relative="1" as="geometry">
            <mxPoint x="190" y="330" as="sourcePoint" />
            <mxPoint x="220" y="380" as="targetPoint" />
          </mxGeometry>
        </mxCell>
        <mxCell id="Lzk4YQ8auaF31_SWEPO3-14" value="" style="endArrow=none;html=1;rounded=0;entryX=0;entryY=0.5;entryDx=0;entryDy=0;" parent="1" target="Lzk4YQ8auaF31_SWEPO3-5" edge="1">
          <mxGeometry width="50" height="50" relative="1" as="geometry">
            <mxPoint x="190" y="590" as="sourcePoint" />
            <mxPoint x="220" y="380" as="targetPoint" />
          </mxGeometry>
        </mxCell>
        <mxCell id="Lzk4YQ8auaF31_SWEPO3-16" value="Virtuális gép(ek)&lt;br&gt;megállítása" style="ellipse;whiteSpace=wrap;html=1;fillColor=#bac8d3;strokeColor=#23445d;dashed=1;dashPattern=8 8;" parent="1" vertex="1">
          <mxGeometry x="400" y="1050" width="150" height="60" as="geometry" />
        </mxCell>
        <mxCell id="Lzk4YQ8auaF31_SWEPO3-17" value="Virtuális gép(ek)&lt;br&gt;indítása" style="ellipse;whiteSpace=wrap;html=1;fillColor=#bac8d3;strokeColor=#23445d;dashed=1;dashPattern=8 8;" parent="1" vertex="1">
          <mxGeometry x="400" y="960" width="150" height="60" as="geometry" />
        </mxCell>
        <mxCell id="Lzk4YQ8auaF31_SWEPO3-22" value="" style="endArrow=none;html=1;rounded=0;entryX=0;entryY=0.5;entryDx=0;entryDy=0;" parent="1" target="Lzk4YQ8auaF31_SWEPO3-2" edge="1">
          <mxGeometry width="50" height="50" relative="1" as="geometry">
            <mxPoint x="190" y="440" as="sourcePoint" />
            <mxPoint x="210" y="510" as="targetPoint" />
          </mxGeometry>
        </mxCell>
        <mxCell id="pl7cpBcoP215E5GSfLHo-1" value="Futó processzek listázása" style="ellipse;whiteSpace=wrap;html=1;fillColor=#b1ddf0;strokeColor=#10739e;" parent="1" vertex="1">
          <mxGeometry x="580" y="280" width="150" height="60" as="geometry" />
        </mxCell>
        <mxCell id="pl7cpBcoP215E5GSfLHo-2" value="&amp;lt;&amp;lt;include&amp;gt;&amp;gt;" style="html=1;verticalAlign=bottom;endArrow=open;dashed=1;endSize=8;curved=0;rounded=0;entryX=0;entryY=0.5;entryDx=0;entryDy=0;exitX=1;exitY=0.5;exitDx=0;exitDy=0;" parent="1" source="Lzk4YQ8auaF31_SWEPO3-2" target="QxUL1kwlSvBnKVH9tGjn-1" edge="1">
          <mxGeometry x="-0.3617" y="-10" relative="1" as="geometry">
            <mxPoint x="375" y="422" as="sourcePoint" />
            <mxPoint x="348" y="371" as="targetPoint" />
            <Array as="points">
              <mxPoint x="550" y="440" />
              <mxPoint x="550" y="90" />
            </Array>
            <mxPoint as="offset" />
          </mxGeometry>
        </mxCell>
        <mxCell id="VF5rAc2Fpxurz3xSW9dc-2" value="Virtuális gép(ek)&lt;br&gt;lekapcsolása" style="ellipse;whiteSpace=wrap;html=1;fillColor=#bac8d3;strokeColor=#23445d;dashed=1;dashPattern=8 8;" parent="1" vertex="1">
          <mxGeometry x="400" y="1130" width="150" height="60" as="geometry" />
        </mxCell>
        <mxCell id="VF5rAc2Fpxurz3xSW9dc-4" value="Parancsok végrehajtása a gépeken" style="ellipse;whiteSpace=wrap;html=1;fillColor=#ffe6cc;strokeColor=#d79b00;" parent="1" vertex="1">
          <mxGeometry x="590" y="410" width="150" height="60" as="geometry" />
        </mxCell>
        <mxCell id="VF5rAc2Fpxurz3xSW9dc-5" value="" style="endArrow=none;html=1;rounded=0;" parent="1" edge="1">
          <mxGeometry width="50" height="50" relative="1" as="geometry">
            <mxPoint x="190" y="710" as="sourcePoint" />
            <mxPoint x="790" y="710" as="targetPoint" />
          </mxGeometry>
        </mxCell>
        <mxCell id="VF5rAc2Fpxurz3xSW9dc-12" value="Keresés a processek között" style="ellipse;whiteSpace=wrap;html=1;fillColor=#b1ddf0;strokeColor=#10739e;" parent="1" vertex="1">
          <mxGeometry x="810" y="340" width="150" height="60" as="geometry" />
        </mxCell>
        <mxCell id="VF5rAc2Fpxurz3xSW9dc-13" value="Szűrés a processek között" style="ellipse;whiteSpace=wrap;html=1;fillColor=#b1ddf0;strokeColor=#10739e;" parent="1" vertex="1">
          <mxGeometry x="810" y="230" width="150" height="60" as="geometry" />
        </mxCell>
        <mxCell id="VF5rAc2Fpxurz3xSW9dc-16" value="" style="endArrow=none;html=1;rounded=0;entryX=0;entryY=0.5;entryDx=0;entryDy=0;" parent="1" target="VF5rAc2Fpxurz3xSW9dc-12" edge="1">
          <mxGeometry width="50" height="50" relative="1" as="geometry">
            <mxPoint x="190" y="200" as="sourcePoint" />
            <mxPoint x="830" y="380" as="targetPoint" />
            <Array as="points">
              <mxPoint x="190" y="150" />
              <mxPoint x="740" y="150" />
              <mxPoint x="740" y="370" />
            </Array>
          </mxGeometry>
        </mxCell>
        <mxCell id="VF5rAc2Fpxurz3xSW9dc-17" value="" style="endArrow=none;html=1;rounded=0;" parent="1" edge="1">
          <mxGeometry width="50" height="50" relative="1" as="geometry">
            <mxPoint x="810" y="260" as="sourcePoint" />
            <mxPoint x="740" y="260" as="targetPoint" />
          </mxGeometry>
        </mxCell>
        <mxCell id="7Ay_WolyBUMtQvAs8t4v-1" value="Indítási konfiguráció módosítása" style="ellipse;whiteSpace=wrap;html=1;fillColor=#bac8d3;strokeColor=#23445d;dashed=1;dashPattern=12 12;" parent="1" vertex="1">
          <mxGeometry x="400" y="1220" width="150" height="60" as="geometry" />
        </mxCell>
        <mxCell id="xn7JxV20b2yi7wp25PqK-1" value="Indítási konfiguráció felvétele" style="ellipse;whiteSpace=wrap;html=1;dashed=1;dashPattern=8 8;fillColor=#bac8d3;strokeColor=#23445d;" parent="1" vertex="1">
          <mxGeometry x="400" y="1340" width="150" height="60" as="geometry" />
        </mxCell>
        <mxCell id="xn7JxV20b2yi7wp25PqK-3" value="&amp;lt;&amp;lt;include&amp;gt;&amp;gt;" style="html=1;verticalAlign=bottom;endArrow=open;dashed=1;endSize=8;curved=0;rounded=0;entryX=0.5;entryY=1;entryDx=0;entryDy=0;exitX=0.5;exitY=0;exitDx=0;exitDy=0;" parent="1" source="xn7JxV20b2yi7wp25PqK-1" target="7Ay_WolyBUMtQvAs8t4v-1" edge="1">
          <mxGeometry relative="1" as="geometry">
            <mxPoint x="707" y="1331" as="sourcePoint" />
            <mxPoint x="680" y="1280" as="targetPoint" />
          </mxGeometry>
        </mxCell>
        <mxCell id="XJFLLaeq25elcQaXyNfR-2" value="Hálózati információ lekérdezése" style="ellipse;whiteSpace=wrap;html=1;fillColor=#bac8d3;strokeColor=#23445d;dashed=1;dashPattern=12 12;" parent="1" vertex="1">
          <mxGeometry x="590" y="510" width="150" height="60" as="geometry" />
        </mxCell>
        <mxCell id="XJFLLaeq25elcQaXyNfR-3" value="Operációs rendszerről információk lekérdezése" style="ellipse;whiteSpace=wrap;html=1;fillColor=#fad7ac;strokeColor=#b46504;" parent="1" vertex="1">
          <mxGeometry x="360" y="210" width="150" height="60" as="geometry" />
        </mxCell>
        <mxCell id="c5AOQVeNupYDbTLvl-kZ-4" value="IO adat(device)" style="ellipse;whiteSpace=wrap;html=1;fillColor=#bac8d3;strokeColor=#23445d;dashed=1;dashPattern=8 8;" parent="1" vertex="1">
          <mxGeometry x="380" y="60" width="150" height="60" as="geometry" />
        </mxCell>
        <mxCell id="43TFnTC82oi8QrauPizs-2" value="&amp;lt;&amp;lt;include&amp;gt;&amp;gt;" style="html=1;verticalAlign=bottom;endArrow=open;dashed=1;endSize=8;curved=0;rounded=0;entryX=0.5;entryY=1;entryDx=0;entryDy=0;exitX=1;exitY=0.5;exitDx=0;exitDy=0;" parent="1" source="pl7cpBcoP215E5GSfLHo-1" target="VF5rAc2Fpxurz3xSW9dc-13" edge="1">
          <mxGeometry relative="1" as="geometry">
            <mxPoint x="470" y="450" as="sourcePoint" />
            <mxPoint x="590" y="320" as="targetPoint" />
            <Array as="points">
              <mxPoint x="885" y="310" />
            </Array>
          </mxGeometry>
        </mxCell>
        <mxCell id="43TFnTC82oi8QrauPizs-6" value="" style="html=1;verticalAlign=bottom;endArrow=open;dashed=1;endSize=8;curved=0;rounded=0;entryX=0.5;entryY=0;entryDx=0;entryDy=0;" parent="1" target="VF5rAc2Fpxurz3xSW9dc-12" edge="1">
          <mxGeometry relative="1" as="geometry">
            <mxPoint x="885" y="310" as="sourcePoint" />
            <mxPoint x="348" y="371" as="targetPoint" />
          </mxGeometry>
        </mxCell>
        <mxCell id="43TFnTC82oi8QrauPizs-7" value="guest monitororozási konfiguráció felvétele" style="ellipse;whiteSpace=wrap;html=1;fillColor=#d5e8d4;strokeColor=#82b366;" parent="1" vertex="1">
          <mxGeometry x="250" y="820" width="150" height="60" as="geometry" />
        </mxCell>
        <mxCell id="43TFnTC82oi8QrauPizs-8" value="guest monitororozási konfiguráció módosítása" style="ellipse;whiteSpace=wrap;html=1;fillColor=#d5e8d4;strokeColor=#82b366;" parent="1" vertex="1">
          <mxGeometry x="250" y="730" width="150" height="60" as="geometry" />
        </mxCell>
        <mxCell id="43TFnTC82oi8QrauPizs-9" value="guest monitororozási konfiguráció mentése" style="ellipse;whiteSpace=wrap;html=1;fillColor=#d5e8d4;strokeColor=#82b366;" parent="1" vertex="1">
          <mxGeometry x="440" y="730" width="150" height="60" as="geometry" />
        </mxCell>
        <mxCell id="QxUL1kwlSvBnKVH9tGjn-1" value="Szálak listázása" style="ellipse;whiteSpace=wrap;html=1;fillColor=#fad9d5;strokeColor=#ae4132;" parent="1" vertex="1">
          <mxGeometry x="580" y="60" width="150" height="60" as="geometry" />
        </mxCell>
        <mxCell id="QxUL1kwlSvBnKVH9tGjn-2" value="Keresés a szálak között" style="ellipse;whiteSpace=wrap;html=1;fillColor=#fad9d5;strokeColor=#ae4132;" parent="1" vertex="1">
          <mxGeometry x="815" y="120" width="150" height="60" as="geometry" />
        </mxCell>
        <mxCell id="QxUL1kwlSvBnKVH9tGjn-3" value="Szűrés a szálak között" style="ellipse;whiteSpace=wrap;html=1;fillColor=#fad9d5;strokeColor=#ae4132;" parent="1" vertex="1">
          <mxGeometry x="815" y="10" width="150" height="60" as="geometry" />
        </mxCell>
        <mxCell id="QxUL1kwlSvBnKVH9tGjn-4" value="&amp;lt;&amp;lt;include&amp;gt;&amp;gt;" style="html=1;verticalAlign=bottom;endArrow=open;dashed=1;endSize=8;curved=0;rounded=0;entryX=0.5;entryY=1;entryDx=0;entryDy=0;exitX=1;exitY=0.5;exitDx=0;exitDy=0;" parent="1" source="QxUL1kwlSvBnKVH9tGjn-1" target="QxUL1kwlSvBnKVH9tGjn-3" edge="1">
          <mxGeometry relative="1" as="geometry">
            <mxPoint x="475" y="230" as="sourcePoint" />
            <mxPoint x="595" y="100" as="targetPoint" />
            <Array as="points">
              <mxPoint x="890" y="90" />
            </Array>
          </mxGeometry>
        </mxCell>
        <mxCell id="QxUL1kwlSvBnKVH9tGjn-5" value="" style="html=1;verticalAlign=bottom;endArrow=open;dashed=1;endSize=8;curved=0;rounded=0;entryX=0.5;entryY=0;entryDx=0;entryDy=0;" parent="1" target="QxUL1kwlSvBnKVH9tGjn-2" edge="1">
          <mxGeometry relative="1" as="geometry">
            <mxPoint x="890" y="90" as="sourcePoint" />
            <mxPoint x="353" y="151" as="targetPoint" />
          </mxGeometry>
        </mxCell>
        <mxCell id="QxUL1kwlSvBnKVH9tGjn-6" value="" style="endArrow=none;html=1;rounded=0;entryX=0;entryY=0.5;entryDx=0;entryDy=0;" parent="1" target="QxUL1kwlSvBnKVH9tGjn-2" edge="1">
          <mxGeometry width="50" height="50" relative="1" as="geometry">
            <mxPoint x="740" y="150" as="sourcePoint" />
            <mxPoint x="640" y="330" as="targetPoint" />
          </mxGeometry>
        </mxCell>
        <mxCell id="QxUL1kwlSvBnKVH9tGjn-7" value="" style="endArrow=none;html=1;rounded=0;" parent="1" edge="1">
          <mxGeometry width="50" height="50" relative="1" as="geometry">
            <mxPoint x="740" y="40" as="sourcePoint" />
            <mxPoint x="740" y="150" as="targetPoint" />
          </mxGeometry>
        </mxCell>
        <mxCell id="QxUL1kwlSvBnKVH9tGjn-8" value="" style="endArrow=none;html=1;rounded=0;entryX=0;entryY=0.5;entryDx=0;entryDy=0;" parent="1" target="QxUL1kwlSvBnKVH9tGjn-3" edge="1">
          <mxGeometry width="50" height="50" relative="1" as="geometry">
            <mxPoint x="740" y="40" as="sourcePoint" />
            <mxPoint x="835" y="170" as="targetPoint" />
          </mxGeometry>
        </mxCell>
        <mxCell id="QxUL1kwlSvBnKVH9tGjn-9" value="" style="endArrow=none;html=1;rounded=0;entryX=0.5;entryY=0;entryDx=0;entryDy=0;exitX=0.5;exitY=1;exitDx=0;exitDy=0;" parent="1" source="QxUL1kwlSvBnKVH9tGjn-1" target="pl7cpBcoP215E5GSfLHo-1" edge="1">
          <mxGeometry width="50" height="50" relative="1" as="geometry">
            <mxPoint x="770" y="180" as="sourcePoint" />
            <mxPoint x="845" y="180" as="targetPoint" />
          </mxGeometry>
        </mxCell>
        <mxCell id="QxUL1kwlSvBnKVH9tGjn-10" value="" style="html=1;verticalAlign=bottom;endArrow=open;dashed=1;endSize=8;curved=0;rounded=0;entryX=0;entryY=0.5;entryDx=0;entryDy=0;" parent="1" target="pl7cpBcoP215E5GSfLHo-1" edge="1">
          <mxGeometry relative="1" as="geometry">
            <mxPoint x="550" y="310" as="sourcePoint" />
            <mxPoint x="610" y="370" as="targetPoint" />
          </mxGeometry>
        </mxCell>
        <mxCell id="QxUL1kwlSvBnKVH9tGjn-17" value="" style="endArrow=none;html=1;rounded=0;" parent="1" edge="1">
          <mxGeometry width="50" height="50" relative="1" as="geometry">
            <mxPoint x="790" y="710" as="sourcePoint" />
            <mxPoint x="790" y="440" as="targetPoint" />
          </mxGeometry>
        </mxCell>
        <mxCell id="QxUL1kwlSvBnKVH9tGjn-19" value="" style="endArrow=none;html=1;rounded=0;exitX=1;exitY=0.5;exitDx=0;exitDy=0;" parent="1" source="VF5rAc2Fpxurz3xSW9dc-4" edge="1">
          <mxGeometry width="50" height="50" relative="1" as="geometry">
            <mxPoint x="750" y="539.66" as="sourcePoint" />
            <mxPoint x="790" y="440" as="targetPoint" />
          </mxGeometry>
        </mxCell>
        <mxCell id="QxUL1kwlSvBnKVH9tGjn-20" value="" style="endArrow=none;html=1;rounded=0;exitX=1;exitY=0.5;exitDx=0;exitDy=0;" parent="1" source="XJFLLaeq25elcQaXyNfR-2" edge="1">
          <mxGeometry width="50" height="50" relative="1" as="geometry">
            <mxPoint x="750" y="669.31" as="sourcePoint" />
            <mxPoint x="790" y="540" as="targetPoint" />
          </mxGeometry>
        </mxCell>
        <mxCell id="QxUL1kwlSvBnKVH9tGjn-21" value="" style="html=1;verticalAlign=bottom;endArrow=open;dashed=1;endSize=8;curved=0;rounded=0;entryX=0;entryY=0.5;entryDx=0;entryDy=0;" parent="1" edge="1">
          <mxGeometry relative="1" as="geometry">
            <mxPoint x="550" y="440" as="sourcePoint" />
            <mxPoint x="600" y="540" as="targetPoint" />
            <Array as="points">
              <mxPoint x="550" y="540" />
            </Array>
          </mxGeometry>
        </mxCell>
        <mxCell id="QxUL1kwlSvBnKVH9tGjn-22" value="" style="html=1;verticalAlign=bottom;endArrow=open;dashed=1;endSize=8;curved=0;rounded=0;entryX=0;entryY=0.5;entryDx=0;entryDy=0;" parent="1" target="VF5rAc2Fpxurz3xSW9dc-4" edge="1">
          <mxGeometry relative="1" as="geometry">
            <mxPoint x="550" y="540" as="sourcePoint" />
            <mxPoint x="600" y="670" as="targetPoint" />
            <Array as="points">
              <mxPoint x="550" y="440" />
            </Array>
            <mxPoint as="offset" />
          </mxGeometry>
        </mxCell>
        <mxCell id="QxUL1kwlSvBnKVH9tGjn-26" value="" style="endArrow=none;html=1;rounded=0;entryX=0;entryY=0.5;entryDx=0;entryDy=0;" parent="1" target="43TFnTC82oi8QrauPizs-8" edge="1">
          <mxGeometry width="50" height="50" relative="1" as="geometry">
            <mxPoint x="190" y="760" as="sourcePoint" />
            <mxPoint x="800" y="720" as="targetPoint" />
          </mxGeometry>
        </mxCell>
        <mxCell id="QxUL1kwlSvBnKVH9tGjn-27" value="" style="endArrow=none;html=1;rounded=0;entryX=0.5;entryY=1;entryDx=0;entryDy=0;" parent="1" target="QxUL1kwlSvBnKVH9tGjn-42" edge="1">
          <mxGeometry width="50" height="50" relative="1" as="geometry">
            <mxPoint x="190" y="890" as="sourcePoint" />
            <mxPoint x="520" y="890" as="targetPoint" />
            <Array as="points">
              <mxPoint x="515" y="890" />
            </Array>
          </mxGeometry>
        </mxCell>
        <mxCell id="QxUL1kwlSvBnKVH9tGjn-28" value="" style="endArrow=none;html=1;rounded=0;entryX=0;entryY=0.5;entryDx=0;entryDy=0;" parent="1" target="43TFnTC82oi8QrauPizs-7" edge="1">
          <mxGeometry width="50" height="50" relative="1" as="geometry">
            <mxPoint x="190" y="850" as="sourcePoint" />
            <mxPoint x="820" y="740" as="targetPoint" />
          </mxGeometry>
        </mxCell>
        <mxCell id="QxUL1kwlSvBnKVH9tGjn-29" value="&amp;lt;&amp;lt;include&amp;gt;&amp;gt;" style="html=1;verticalAlign=bottom;endArrow=open;dashed=1;endSize=8;curved=0;rounded=0;exitX=0.5;exitY=0;exitDx=0;exitDy=0;entryX=0.5;entryY=1;entryDx=0;entryDy=0;" parent="1" source="43TFnTC82oi8QrauPizs-7" target="43TFnTC82oi8QrauPizs-8" edge="1">
          <mxGeometry x="-0.4715" y="35" relative="1" as="geometry">
            <mxPoint x="410" y="570" as="sourcePoint" />
            <mxPoint x="390" y="800" as="targetPoint" />
            <Array as="points" />
            <mxPoint as="offset" />
          </mxGeometry>
        </mxCell>
        <mxCell id="QxUL1kwlSvBnKVH9tGjn-30" value="&amp;lt;&amp;lt;include&amp;gt;&amp;gt;" style="html=1;verticalAlign=bottom;endArrow=open;dashed=1;endSize=8;curved=0;rounded=0;exitX=1;exitY=0.5;exitDx=0;exitDy=0;entryX=0;entryY=0.5;entryDx=0;entryDy=0;" parent="1" source="43TFnTC82oi8QrauPizs-8" target="43TFnTC82oi8QrauPizs-9" edge="1">
          <mxGeometry y="-30" relative="1" as="geometry">
            <mxPoint x="519" y="810" as="sourcePoint" />
            <mxPoint x="460" y="800" as="targetPoint" />
            <Array as="points" />
            <mxPoint as="offset" />
          </mxGeometry>
        </mxCell>
        <mxCell id="QxUL1kwlSvBnKVH9tGjn-31" value="" style="endArrow=none;html=1;rounded=0;entryX=0;entryY=0.5;entryDx=0;entryDy=0;dashed=1;dashPattern=12 12;" parent="1" target="Lzk4YQ8auaF31_SWEPO3-17" edge="1">
          <mxGeometry width="50" height="50" relative="1" as="geometry">
            <mxPoint x="190" y="990" as="sourcePoint" />
            <mxPoint x="610" y="1130" as="targetPoint" />
          </mxGeometry>
        </mxCell>
        <mxCell id="QxUL1kwlSvBnKVH9tGjn-32" value="" style="endArrow=none;html=1;rounded=0;entryX=0;entryY=0.5;entryDx=0;entryDy=0;dashed=1;dashPattern=12 12;" parent="1" edge="1">
          <mxGeometry width="50" height="50" relative="1" as="geometry">
            <mxPoint x="190" y="1079.44" as="sourcePoint" />
            <mxPoint x="400" y="1079.44" as="targetPoint" />
          </mxGeometry>
        </mxCell>
        <mxCell id="QxUL1kwlSvBnKVH9tGjn-33" value="" style="endArrow=none;html=1;rounded=0;entryX=0;entryY=0.5;entryDx=0;entryDy=0;dashed=1;dashPattern=12 12;" parent="1" edge="1">
          <mxGeometry width="50" height="50" relative="1" as="geometry">
            <mxPoint x="190" y="1160" as="sourcePoint" />
            <mxPoint x="400" y="1160" as="targetPoint" />
          </mxGeometry>
        </mxCell>
        <mxCell id="QxUL1kwlSvBnKVH9tGjn-34" value="" style="endArrow=none;html=1;rounded=0;entryX=0;entryY=0.5;entryDx=0;entryDy=0;dashed=1;dashPattern=12 12;" parent="1" edge="1">
          <mxGeometry width="50" height="50" relative="1" as="geometry">
            <mxPoint x="190" y="1249.44" as="sourcePoint" />
            <mxPoint x="400" y="1249.44" as="targetPoint" />
          </mxGeometry>
        </mxCell>
        <mxCell id="QxUL1kwlSvBnKVH9tGjn-35" value="" style="endArrow=none;html=1;rounded=0;entryX=0;entryY=0.5;entryDx=0;entryDy=0;dashed=1;dashPattern=12 12;" parent="1" edge="1">
          <mxGeometry width="50" height="50" relative="1" as="geometry">
            <mxPoint x="190" y="1369.44" as="sourcePoint" />
            <mxPoint x="400" y="1369.44" as="targetPoint" />
          </mxGeometry>
        </mxCell>
        <mxCell id="QxUL1kwlSvBnKVH9tGjn-37" value="" style="endArrow=none;html=1;rounded=0;exitX=0;exitY=0.5;exitDx=0;exitDy=0;dashed=1;dashPattern=12 12;" parent="1" source="c5AOQVeNupYDbTLvl-kZ-4" edge="1">
          <mxGeometry width="50" height="50" relative="1" as="geometry">
            <mxPoint x="665" y="130" as="sourcePoint" />
            <mxPoint x="380" y="150" as="targetPoint" />
          </mxGeometry>
        </mxCell>
        <mxCell id="QxUL1kwlSvBnKVH9tGjn-38" value="" style="endArrow=none;html=1;rounded=0;dashed=1;dashPattern=12 12;" parent="1" edge="1">
          <mxGeometry width="50" height="50" relative="1" as="geometry">
            <mxPoint x="190" y="1370" as="sourcePoint" />
            <mxPoint x="190" y="900" as="targetPoint" />
          </mxGeometry>
        </mxCell>
        <mxCell id="QxUL1kwlSvBnKVH9tGjn-41" value="Opcionális továbbfejlesztési lehetőség" style="rounded=0;whiteSpace=wrap;html=1;fillColor=#bac8d3;strokeColor=#23445d;dashed=1;dashPattern=12 12;" parent="1" vertex="1">
          <mxGeometry x="680" y="1270" width="120" height="60" as="geometry" />
        </mxCell>
        <mxCell id="QxUL1kwlSvBnKVH9tGjn-42" value="guest monitororozási konfiguráció betöltése" style="ellipse;whiteSpace=wrap;html=1;fillColor=#d5e8d4;strokeColor=#82b366;" parent="1" vertex="1">
          <mxGeometry x="440" y="820" width="150" height="60" as="geometry" />
        </mxCell>
        <mxCell id="QxUL1kwlSvBnKVH9tGjn-43" value="Általános rendszerinformáció" style="rounded=0;whiteSpace=wrap;html=1;fillColor=#fad7ac;strokeColor=#b46504;" parent="1" vertex="1">
          <mxGeometry x="680" y="990" width="120" height="60" as="geometry" />
        </mxCell>
        <mxCell id="QxUL1kwlSvBnKVH9tGjn-45" value="Rendszerstatisztika&lt;br style=&quot;border-color: var(--border-color); text-align: left;&quot;&gt;&lt;span style=&quot;text-align: left;&quot;&gt;lekérdezése&lt;/span&gt;" style="ellipse;whiteSpace=wrap;html=1;fillColor=#fad7ac;strokeColor=#b46504;" parent="1" vertex="1">
          <mxGeometry x="370" y="310" width="150" height="60" as="geometry" />
        </mxCell>
        <mxCell id="QxUL1kwlSvBnKVH9tGjn-46" value="Szál információ" style="rounded=0;whiteSpace=wrap;html=1;fillColor=#fad9d5;strokeColor=#ae4132;" parent="1" vertex="1">
          <mxGeometry x="680" y="1060" width="120" height="60" as="geometry" />
        </mxCell>
        <mxCell id="QxUL1kwlSvBnKVH9tGjn-47" value="Processz információ" style="rounded=0;whiteSpace=wrap;html=1;fillColor=#b1ddf0;strokeColor=#10739e;" parent="1" vertex="1">
          <mxGeometry x="680" y="1130" width="120" height="60" as="geometry" />
        </mxCell>
        <mxCell id="QxUL1kwlSvBnKVH9tGjn-48" value="" style="html=1;verticalAlign=bottom;endArrow=open;dashed=1;endSize=8;curved=0;rounded=0;entryX=0.5;entryY=1;entryDx=0;entryDy=0;" parent="1" target="Lzk4YQ8auaF31_SWEPO3-3" edge="1">
          <mxGeometry x="-0.4493" y="-9" relative="1" as="geometry">
            <mxPoint x="360" y="300" as="sourcePoint" />
            <mxPoint x="285" y="370" as="targetPoint" />
            <Array as="points">
              <mxPoint x="275" y="300" />
            </Array>
            <mxPoint as="offset" />
          </mxGeometry>
        </mxCell>
        <mxCell id="QxUL1kwlSvBnKVH9tGjn-49" value="" style="html=1;verticalAlign=bottom;endArrow=open;dashed=1;endSize=8;curved=0;rounded=0;entryX=0.5;entryY=1;entryDx=0;entryDy=0;" parent="1" target="QxUL1kwlSvBnKVH9tGjn-45" edge="1">
          <mxGeometry x="-0.4493" y="-9" relative="1" as="geometry">
            <mxPoint x="360" y="390" as="sourcePoint" />
            <mxPoint x="285" y="370" as="targetPoint" />
            <Array as="points">
              <mxPoint x="445" y="390" />
            </Array>
            <mxPoint as="offset" />
          </mxGeometry>
        </mxCell>
        <mxCell id="QxUL1kwlSvBnKVH9tGjn-51" value="" style="endArrow=none;html=1;rounded=0;exitX=0.534;exitY=-0.007;exitDx=0;exitDy=0;exitPerimeter=0;" parent="1" source="Lzk4YQ8auaF31_SWEPO3-3" edge="1">
          <mxGeometry width="50" height="50" relative="1" as="geometry">
            <mxPoint x="440" y="200" as="sourcePoint" />
            <mxPoint x="280" y="200" as="targetPoint" />
          </mxGeometry>
        </mxCell>
        <mxCell id="QxUL1kwlSvBnKVH9tGjn-52" value="" style="endArrow=none;html=1;rounded=0;exitX=0.534;exitY=0.018;exitDx=0;exitDy=0;exitPerimeter=0;" parent="1" source="XJFLLaeq25elcQaXyNfR-3" edge="1">
          <mxGeometry width="50" height="50" relative="1" as="geometry">
            <mxPoint x="290" y="220" as="sourcePoint" />
            <mxPoint x="440" y="200" as="targetPoint" />
          </mxGeometry>
        </mxCell>
        <mxCell id="QxUL1kwlSvBnKVH9tGjn-53" value="" style="endArrow=none;html=1;rounded=0;exitX=1;exitY=0.5;exitDx=0;exitDy=0;" parent="1" source="QxUL1kwlSvBnKVH9tGjn-45" edge="1">
          <mxGeometry width="50" height="50" relative="1" as="geometry">
            <mxPoint x="490" y="400" as="sourcePoint" />
            <mxPoint x="440" y="200" as="targetPoint" />
            <Array as="points">
              <mxPoint x="520" y="200" />
            </Array>
          </mxGeometry>
        </mxCell>
        <mxCell id="QxUL1kwlSvBnKVH9tGjn-55" value="&amp;lt;&amp;lt;include&amp;gt;&amp;gt;" style="html=1;verticalAlign=bottom;endArrow=open;dashed=1;endSize=8;curved=0;rounded=0;exitX=0.5;exitY=0;exitDx=0;exitDy=0;entryX=1;entryY=1;entryDx=0;entryDy=0;" parent="1" source="43TFnTC82oi8QrauPizs-9" target="Lzk4YQ8auaF31_SWEPO3-2" edge="1">
          <mxGeometry x="0.7538" y="19" relative="1" as="geometry">
            <mxPoint x="410" y="770" as="sourcePoint" />
            <mxPoint x="515" y="480" as="targetPoint" />
            <Array as="points">
              <mxPoint x="515" y="461" />
            </Array>
            <mxPoint as="offset" />
          </mxGeometry>
        </mxCell>
        <mxCell id="QxUL1kwlSvBnKVH9tGjn-56" value="CAN információ" style="rounded=0;whiteSpace=wrap;html=1;fillColor=#e1d5e7;strokeColor=#9673a6;" parent="1" vertex="1">
          <mxGeometry x="680" y="1200" width="120" height="60" as="geometry" />
        </mxCell>
        <mxCell id="QxUL1kwlSvBnKVH9tGjn-57" value="Monitor konfigurációkezelés" style="rounded=0;whiteSpace=wrap;html=1;fillColor=#d5e8d4;strokeColor=#82b366;" parent="1" vertex="1">
          <mxGeometry x="680" y="920" width="120" height="60" as="geometry" />
        </mxCell>
        <mxCell id="QxUL1kwlSvBnKVH9tGjn-58" value="" style="endArrow=none;html=1;rounded=0;entryX=0.5;entryY=1;entryDx=0;entryDy=0;" parent="1" target="QxUL1kwlSvBnKVH9tGjn-42" edge="1">
          <mxGeometry width="50" height="50" relative="1" as="geometry">
            <mxPoint x="515" y="890" as="sourcePoint" />
            <mxPoint x="630" y="810" as="targetPoint" />
          </mxGeometry>
        </mxCell>
        <mxCell id="QxUL1kwlSvBnKVH9tGjn-59" value="" style="endArrow=none;html=1;rounded=0;exitX=1;exitY=0.5;exitDx=0;exitDy=0;" parent="1" source="43TFnTC82oi8QrauPizs-9" edge="1">
          <mxGeometry width="50" height="50" relative="1" as="geometry">
            <mxPoint x="510" y="750" as="sourcePoint" />
            <mxPoint x="600" y="710" as="targetPoint" />
            <Array as="points">
              <mxPoint x="600" y="760" />
            </Array>
          </mxGeometry>
        </mxCell>
      </root>
    </mxGraphModel>
  </diagram>
  <diagram id="-mUWj1waC0vbpCaJdeRK" name="comm_diag">
    <mxGraphModel dx="1290" dy="717" grid="1" gridSize="10" guides="1" tooltips="1" connect="1" arrows="1" fold="1" page="1" pageScale="1" pageWidth="850" pageHeight="1100" math="0" shadow="0">
      <root>
        <mxCell id="0" />
        <mxCell id="1" parent="0" />
        <mxCell id="qlGaUekCCAhl5AASDCYc-1" value="QNX host" style="rounded=0;whiteSpace=wrap;html=1;" parent="1" vertex="1">
          <mxGeometry x="190" y="401.43" width="510" height="85.71" as="geometry" />
        </mxCell>
        <mxCell id="qlGaUekCCAhl5AASDCYc-2" value="QNX guest" style="rounded=0;whiteSpace=wrap;html=1;" parent="1" vertex="1">
          <mxGeometry x="190" y="181.43" width="210" height="68.57" as="geometry" />
        </mxCell>
        <mxCell id="qlGaUekCCAhl5AASDCYc-3" value="Linux guest" style="rounded=0;whiteSpace=wrap;html=1;" parent="1" vertex="1">
          <mxGeometry x="484" y="181.43" width="216" height="68.57142857142857" as="geometry" />
        </mxCell>
        <mxCell id="qlGaUekCCAhl5AASDCYc-4" value="Monitor app" style="rounded=0;whiteSpace=wrap;html=1;fillColor=#fad9d5;strokeColor=#ae4132;" parent="1" vertex="1">
          <mxGeometry x="190" y="350" width="510" height="51.43" as="geometry" />
        </mxCell>
        <mxCell id="qlGaUekCCAhl5AASDCYc-5" value="Monitor guest" style="rounded=0;whiteSpace=wrap;html=1;fillColor=#fad9d5;strokeColor=#ae4132;" parent="1" vertex="1">
          <mxGeometry x="190" y="250" width="210" height="34.29" as="geometry" />
        </mxCell>
        <mxCell id="qlGaUekCCAhl5AASDCYc-6" value="Monitor guest" style="rounded=0;whiteSpace=wrap;html=1;fillColor=#fad9d5;strokeColor=#ae4132;" parent="1" vertex="1">
          <mxGeometry x="484" y="250.00142857142856" width="216" height="34.285714285714285" as="geometry" />
        </mxCell>
        <mxCell id="qlGaUekCCAhl5AASDCYc-12" value="" style="endArrow=classic;html=1;rounded=0;entryX=0.5;entryY=1;entryDx=0;entryDy=0;" parent="1" target="qlGaUekCCAhl5AASDCYc-5" edge="1">
          <mxGeometry width="50" height="50" relative="1" as="geometry">
            <mxPoint x="450" y="330" as="sourcePoint" />
            <mxPoint x="440" y="340" as="targetPoint" />
            <Array as="points">
              <mxPoint x="295" y="330" />
            </Array>
          </mxGeometry>
        </mxCell>
        <mxCell id="qlGaUekCCAhl5AASDCYc-13" value="" style="endArrow=classic;html=1;rounded=0;entryX=0.5;entryY=1;entryDx=0;entryDy=0;exitX=0.5;exitY=0;exitDx=0;exitDy=0;" parent="1" source="qlGaUekCCAhl5AASDCYc-4" target="qlGaUekCCAhl5AASDCYc-6" edge="1">
          <mxGeometry width="50" height="50" relative="1" as="geometry">
            <mxPoint x="450" y="350" as="sourcePoint" />
            <mxPoint x="440" y="340" as="targetPoint" />
            <Array as="points">
              <mxPoint x="445" y="330" />
              <mxPoint x="592" y="330" />
            </Array>
          </mxGeometry>
        </mxCell>
        <mxCell id="qlGaUekCCAhl5AASDCYc-18" value="" style="endArrow=classic;html=1;rounded=0;entryX=0.5;entryY=0;entryDx=0;entryDy=0;" parent="1" target="qlGaUekCCAhl5AASDCYc-4" edge="1">
          <mxGeometry width="50" height="50" relative="1" as="geometry">
            <mxPoint x="445" y="330" as="sourcePoint" />
            <mxPoint x="470" y="320" as="targetPoint" />
          </mxGeometry>
        </mxCell>
        <mxCell id="qlGaUekCCAhl5AASDCYc-19" value="VCAN messages" style="text;html=1;align=center;verticalAlign=middle;whiteSpace=wrap;rounded=0;" parent="1" vertex="1">
          <mxGeometry x="415" y="300" width="60" height="30" as="geometry" />
        </mxCell>
        <mxCell id="qlGaUekCCAhl5AASDCYc-22" value="" style="endArrow=classic;startArrow=classic;html=1;rounded=0;entryX=0.81;entryY=0.562;entryDx=0;entryDy=0;entryPerimeter=0;" parent="1" target="qlGaUekCCAhl5AASDCYc-2" edge="1">
          <mxGeometry width="50" height="50" relative="1" as="geometry">
            <mxPoint x="360" y="270" as="sourcePoint" />
            <mxPoint x="470" y="250" as="targetPoint" />
          </mxGeometry>
        </mxCell>
        <mxCell id="qlGaUekCCAhl5AASDCYc-23" value="Commands/syscalls" style="edgeLabel;html=1;align=center;verticalAlign=middle;resizable=0;points=[];" parent="qlGaUekCCAhl5AASDCYc-22" vertex="1" connectable="0">
          <mxGeometry x="0.3318" y="-1" relative="1" as="geometry">
            <mxPoint x="54" y="3" as="offset" />
          </mxGeometry>
        </mxCell>
        <mxCell id="qlGaUekCCAhl5AASDCYc-24" value="" style="endArrow=classic;startArrow=classic;html=1;rounded=0;" parent="1" edge="1">
          <mxGeometry width="50" height="50" relative="1" as="geometry">
            <mxPoint x="290" y="430" as="sourcePoint" />
            <mxPoint x="290" y="376" as="targetPoint" />
            <Array as="points" />
          </mxGeometry>
        </mxCell>
        <mxCell id="qlGaUekCCAhl5AASDCYc-25" value="Graphical output/&lt;br&gt;user input" style="edgeLabel;html=1;align=center;verticalAlign=middle;resizable=0;points=[];" parent="qlGaUekCCAhl5AASDCYc-24" vertex="1" connectable="0">
          <mxGeometry x="0.763" y="-1" relative="1" as="geometry">
            <mxPoint x="49" y="37" as="offset" />
          </mxGeometry>
        </mxCell>
      </root>
    </mxGraphModel>
  </diagram>
  <diagram id="2MsDZ0fJ8Gmf7hm_6dxy" name="perf_metric">
    <mxGraphModel dx="1290" dy="717" grid="1" gridSize="10" guides="1" tooltips="1" connect="1" arrows="1" fold="1" page="1" pageScale="1" pageWidth="2339" pageHeight="3300" math="0" shadow="0">
      <root>
        <mxCell id="0" />
        <mxCell id="1" parent="0" />
        <mxCell id="J-DgWmn5Wlb15pGXcQ9r-1" value="RuntimeMetric" style="swimlane;fontStyle=0;childLayout=stackLayout;horizontal=1;startSize=26;fillColor=none;horizontalStack=0;resizeParent=1;resizeParentMax=0;resizeLast=0;collapsible=1;marginBottom=0;whiteSpace=wrap;html=1;" parent="1" vertex="1">
          <mxGeometry x="580" y="190" width="520" height="52" as="geometry" />
        </mxCell>
        <mxCell id="J-DgWmn5Wlb15pGXcQ9r-2" value="+ processorLoad: double" style="text;strokeColor=none;fillColor=none;align=left;verticalAlign=top;spacingLeft=4;spacingRight=4;overflow=hidden;rotatable=0;points=[[0,0.5],[1,0.5]];portConstraint=eastwest;whiteSpace=wrap;html=1;" parent="J-DgWmn5Wlb15pGXcQ9r-1" vertex="1">
          <mxGeometry y="26" width="520" height="26" as="geometry" />
        </mxCell>
        <mxCell id="J-DgWmn5Wlb15pGXcQ9r-9" value="ProcessInfo" style="swimlane;fontStyle=0;childLayout=stackLayout;horizontal=1;startSize=26;fillColor=none;horizontalStack=0;resizeParent=1;resizeParentMax=0;resizeLast=0;collapsible=1;marginBottom=0;whiteSpace=wrap;html=1;" parent="1" vertex="1">
          <mxGeometry x="745" y="400" width="190" height="156" as="geometry" />
        </mxCell>
        <mxCell id="J-DgWmn5Wlb15pGXcQ9r-10" value="+ pid: uint" style="text;strokeColor=none;fillColor=none;align=left;verticalAlign=top;spacingLeft=4;spacingRight=4;overflow=hidden;rotatable=0;points=[[0,0.5],[1,0.5]];portConstraint=eastwest;whiteSpace=wrap;html=1;" parent="J-DgWmn5Wlb15pGXcQ9r-9" vertex="1">
          <mxGeometry y="26" width="190" height="26" as="geometry" />
        </mxCell>
        <mxCell id="J-DgWmn5Wlb15pGXcQ9r-11" value="+ processorUsage: double" style="text;strokeColor=none;fillColor=none;align=left;verticalAlign=top;spacingLeft=4;spacingRight=4;overflow=hidden;rotatable=0;points=[[0,0.5],[1,0.5]];portConstraint=eastwest;whiteSpace=wrap;html=1;" parent="J-DgWmn5Wlb15pGXcQ9r-9" vertex="1">
          <mxGeometry y="52" width="190" height="26" as="geometry" />
        </mxCell>
        <mxCell id="RaRC0VAytyYuPCtgM20P-5" value="+ memoryUsage: double" style="text;strokeColor=none;fillColor=none;align=left;verticalAlign=top;spacingLeft=4;spacingRight=4;overflow=hidden;rotatable=0;points=[[0,0.5],[1,0.5]];portConstraint=eastwest;whiteSpace=wrap;html=1;" parent="J-DgWmn5Wlb15pGXcQ9r-9" vertex="1">
          <mxGeometry y="78" width="190" height="26" as="geometry" />
        </mxCell>
        <mxCell id="RaRC0VAytyYuPCtgM20P-2" value="+ executable: string" style="text;strokeColor=none;fillColor=none;align=left;verticalAlign=top;spacingLeft=4;spacingRight=4;overflow=hidden;rotatable=0;points=[[0,0.5],[1,0.5]];portConstraint=eastwest;whiteSpace=wrap;html=1;" parent="J-DgWmn5Wlb15pGXcQ9r-9" vertex="1">
          <mxGeometry y="104" width="190" height="26" as="geometry" />
        </mxCell>
        <mxCell id="RaRC0VAytyYuPCtgM20P-3" value="+ cmdArgs: string" style="text;strokeColor=none;fillColor=none;align=left;verticalAlign=top;spacingLeft=4;spacingRight=4;overflow=hidden;rotatable=0;points=[[0,0.5],[1,0.5]];portConstraint=eastwest;whiteSpace=wrap;html=1;" parent="J-DgWmn5Wlb15pGXcQ9r-9" vertex="1">
          <mxGeometry y="130" width="190" height="26" as="geometry" />
        </mxCell>
        <mxCell id="J-DgWmn5Wlb15pGXcQ9r-13" value="" style="endArrow=diamondThin;endFill=1;endSize=24;html=1;rounded=0;exitX=0.5;exitY=0;exitDx=0;exitDy=0;entryX=0.5;entryY=1;entryDx=0;entryDy=0;" parent="1" source="J-DgWmn5Wlb15pGXcQ9r-9" target="J-DgWmn5Wlb15pGXcQ9r-1" edge="1">
          <mxGeometry width="160" relative="1" as="geometry">
            <mxPoint x="760" y="440" as="sourcePoint" />
            <mxPoint x="840" y="270" as="targetPoint" />
          </mxGeometry>
        </mxCell>
        <mxCell id="J-DgWmn5Wlb15pGXcQ9r-14" value="+ processes" style="edgeLabel;html=1;align=center;verticalAlign=middle;resizable=0;points=[];" parent="J-DgWmn5Wlb15pGXcQ9r-13" vertex="1" connectable="0">
          <mxGeometry x="-0.7463" relative="1" as="geometry">
            <mxPoint x="40" y="-57" as="offset" />
          </mxGeometry>
        </mxCell>
        <mxCell id="J-DgWmn5Wlb15pGXcQ9r-16" value="*" style="edgeLabel;html=1;align=center;verticalAlign=middle;resizable=0;points=[];" parent="J-DgWmn5Wlb15pGXcQ9r-13" vertex="1" connectable="0">
          <mxGeometry x="-0.6942" y="2" relative="1" as="geometry">
            <mxPoint x="12" y="6" as="offset" />
          </mxGeometry>
        </mxCell>
        <mxCell id="J-DgWmn5Wlb15pGXcQ9r-17" value="SystemInfo" style="swimlane;fontStyle=0;childLayout=stackLayout;horizontal=1;startSize=26;fillColor=none;horizontalStack=0;resizeParent=1;resizeParentMax=0;resizeLast=0;collapsible=1;marginBottom=0;whiteSpace=wrap;html=1;" parent="1" vertex="1">
          <mxGeometry x="110" y="180" width="140" height="104" as="geometry" />
        </mxCell>
        <mxCell id="J-DgWmn5Wlb15pGXcQ9r-18" value="+ memory: uint" style="text;strokeColor=none;fillColor=none;align=left;verticalAlign=top;spacingLeft=4;spacingRight=4;overflow=hidden;rotatable=0;points=[[0,0.5],[1,0.5]];portConstraint=eastwest;whiteSpace=wrap;html=1;" parent="J-DgWmn5Wlb15pGXcQ9r-17" vertex="1">
          <mxGeometry y="26" width="140" height="26" as="geometry" />
        </mxCell>
        <mxCell id="J-DgWmn5Wlb15pGXcQ9r-19" value="+ cores: uint" style="text;strokeColor=none;fillColor=none;align=left;verticalAlign=top;spacingLeft=4;spacingRight=4;overflow=hidden;rotatable=0;points=[[0,0.5],[1,0.5]];portConstraint=eastwest;whiteSpace=wrap;html=1;" parent="J-DgWmn5Wlb15pGXcQ9r-17" vertex="1">
          <mxGeometry y="52" width="140" height="26" as="geometry" />
        </mxCell>
        <mxCell id="J-DgWmn5Wlb15pGXcQ9r-20" value="+ os: string" style="text;strokeColor=none;fillColor=none;align=left;verticalAlign=top;spacingLeft=4;spacingRight=4;overflow=hidden;rotatable=0;points=[[0,0.5],[1,0.5]];portConstraint=eastwest;whiteSpace=wrap;html=1;" parent="J-DgWmn5Wlb15pGXcQ9r-17" vertex="1">
          <mxGeometry y="78" width="140" height="26" as="geometry" />
        </mxCell>
        <mxCell id="RaRC0VAytyYuPCtgM20P-20" value="&lt;b&gt;&lt;font style=&quot;font-size: 10px;&quot;&gt;&amp;lt;&amp;lt;enumeration&amp;gt;&amp;gt;&lt;/font&gt;&lt;/b&gt;&lt;br&gt;ProcStatus" style="swimlane;fontStyle=0;childLayout=stackLayout;horizontal=1;startSize=30;horizontalStack=0;resizeParent=1;resizeParentMax=0;resizeLast=0;collapsible=1;marginBottom=0;whiteSpace=wrap;html=1;spacing=0;" parent="1" vertex="1">
          <mxGeometry x="580" y="582" width="140" height="170" as="geometry" />
        </mxCell>
        <mxCell id="RaRC0VAytyYuPCtgM20P-22" value="Running" style="text;strokeColor=none;fillColor=none;align=left;verticalAlign=middle;spacingLeft=4;spacingRight=4;overflow=hidden;points=[[0,0.5],[1,0.5]];portConstraint=eastwest;rotatable=0;whiteSpace=wrap;html=1;spacing=2;fontSize=12;strokeWidth=1;perimeterSpacing=0;" parent="RaRC0VAytyYuPCtgM20P-20" vertex="1">
          <mxGeometry y="30" width="140" height="20" as="geometry" />
        </mxCell>
        <mxCell id="RaRC0VAytyYuPCtgM20P-23" value="Sleeping" style="text;strokeColor=none;fillColor=none;align=left;verticalAlign=middle;spacingLeft=4;spacingRight=4;overflow=hidden;points=[[0,0.5],[1,0.5]];portConstraint=eastwest;rotatable=0;whiteSpace=wrap;html=1;" parent="RaRC0VAytyYuPCtgM20P-20" vertex="1">
          <mxGeometry y="50" width="140" height="20" as="geometry" />
        </mxCell>
        <mxCell id="RaRC0VAytyYuPCtgM20P-24" value="Blocked" style="text;strokeColor=none;fillColor=none;align=left;verticalAlign=middle;spacingLeft=4;spacingRight=4;overflow=hidden;points=[[0,0.5],[1,0.5]];portConstraint=eastwest;rotatable=0;whiteSpace=wrap;html=1;" parent="RaRC0VAytyYuPCtgM20P-20" vertex="1">
          <mxGeometry y="70" width="140" height="20" as="geometry" />
        </mxCell>
        <mxCell id="RaRC0VAytyYuPCtgM20P-25" value="Zombie" style="text;strokeColor=none;fillColor=none;align=left;verticalAlign=middle;spacingLeft=4;spacingRight=4;overflow=hidden;points=[[0,0.5],[1,0.5]];portConstraint=eastwest;rotatable=0;whiteSpace=wrap;html=1;" parent="RaRC0VAytyYuPCtgM20P-20" vertex="1">
          <mxGeometry y="90" width="140" height="20" as="geometry" />
        </mxCell>
        <mxCell id="RaRC0VAytyYuPCtgM20P-26" value="Stopped" style="text;strokeColor=none;fillColor=none;align=left;verticalAlign=middle;spacingLeft=4;spacingRight=4;overflow=hidden;points=[[0,0.5],[1,0.5]];portConstraint=eastwest;rotatable=0;whiteSpace=wrap;html=1;" parent="RaRC0VAytyYuPCtgM20P-20" vertex="1">
          <mxGeometry y="110" width="140" height="20" as="geometry" />
        </mxCell>
        <mxCell id="RaRC0VAytyYuPCtgM20P-27" value="Dead" style="text;strokeColor=none;fillColor=none;align=left;verticalAlign=middle;spacingLeft=4;spacingRight=4;overflow=hidden;points=[[0,0.5],[1,0.5]];portConstraint=eastwest;rotatable=0;whiteSpace=wrap;html=1;" parent="RaRC0VAytyYuPCtgM20P-20" vertex="1">
          <mxGeometry y="130" width="140" height="20" as="geometry" />
        </mxCell>
        <mxCell id="RaRC0VAytyYuPCtgM20P-28" value="Idle" style="text;strokeColor=none;fillColor=none;align=left;verticalAlign=middle;spacingLeft=4;spacingRight=4;overflow=hidden;points=[[0,0.5],[1,0.5]];portConstraint=eastwest;rotatable=0;whiteSpace=wrap;html=1;" parent="RaRC0VAytyYuPCtgM20P-20" vertex="1">
          <mxGeometry y="150" width="140" height="20" as="geometry" />
        </mxCell>
        <mxCell id="RaRC0VAytyYuPCtgM20P-29" value="" style="endArrow=diamondThin;endFill=1;endSize=24;html=1;rounded=0;entryX=0;entryY=0.5;entryDx=0;entryDy=0;exitX=0.5;exitY=0;exitDx=0;exitDy=0;" parent="1" source="RaRC0VAytyYuPCtgM20P-20" target="RaRC0VAytyYuPCtgM20P-5" edge="1">
          <mxGeometry width="160" relative="1" as="geometry">
            <mxPoint x="560" y="740" as="sourcePoint" />
            <mxPoint x="720" y="740" as="targetPoint" />
            <Array as="points">
              <mxPoint x="650" y="491" />
            </Array>
          </mxGeometry>
        </mxCell>
        <mxCell id="RaRC0VAytyYuPCtgM20P-30" value="+ status" style="edgeLabel;html=1;align=center;verticalAlign=middle;resizable=0;points=[];" parent="RaRC0VAytyYuPCtgM20P-29" vertex="1" connectable="0">
          <mxGeometry x="0.5812" relative="1" as="geometry">
            <mxPoint y="-13" as="offset" />
          </mxGeometry>
        </mxCell>
        <mxCell id="_l56NNT39bqanDtRIrfv-1" value="ThreadInfo" style="swimlane;fontStyle=0;childLayout=stackLayout;horizontal=1;startSize=26;fillColor=none;horizontalStack=0;resizeParent=1;resizeParentMax=0;resizeLast=0;collapsible=1;marginBottom=0;whiteSpace=wrap;html=1;" parent="1" vertex="1">
          <mxGeometry x="770" y="20" width="160" height="130" as="geometry" />
        </mxCell>
        <mxCell id="_l56NNT39bqanDtRIrfv-2" value="+ processorUsage: double" style="text;strokeColor=none;fillColor=none;align=left;verticalAlign=top;spacingLeft=4;spacingRight=4;overflow=hidden;rotatable=0;points=[[0,0.5],[1,0.5]];portConstraint=eastwest;whiteSpace=wrap;html=1;" parent="_l56NNT39bqanDtRIrfv-1" vertex="1">
          <mxGeometry y="26" width="160" height="26" as="geometry" />
        </mxCell>
        <mxCell id="_l56NNT39bqanDtRIrfv-3" value="+ memoryUsage: double" style="text;strokeColor=none;fillColor=none;align=left;verticalAlign=top;spacingLeft=4;spacingRight=4;overflow=hidden;rotatable=0;points=[[0,0.5],[1,0.5]];portConstraint=eastwest;whiteSpace=wrap;html=1;" parent="_l56NNT39bqanDtRIrfv-1" vertex="1">
          <mxGeometry y="52" width="160" height="26" as="geometry" />
        </mxCell>
        <mxCell id="_l56NNT39bqanDtRIrfv-4" value="+ status: ProcStatus" style="text;strokeColor=none;fillColor=none;align=left;verticalAlign=top;spacingLeft=4;spacingRight=4;overflow=hidden;rotatable=0;points=[[0,0.5],[1,0.5]];portConstraint=eastwest;whiteSpace=wrap;html=1;" parent="_l56NNT39bqanDtRIrfv-1" vertex="1">
          <mxGeometry y="78" width="160" height="26" as="geometry" />
        </mxCell>
        <mxCell id="L6CvwFZNcR6j6M0UgRfQ-1" value="&amp;nbsp;+ tid: uint" style="text;strokeColor=none;fillColor=none;align=left;verticalAlign=top;spacingLeft=4;spacingRight=4;overflow=hidden;rotatable=0;points=[[0,0.5],[1,0.5]];portConstraint=eastwest;whiteSpace=wrap;html=1;" parent="_l56NNT39bqanDtRIrfv-1" vertex="1">
          <mxGeometry y="104" width="160" height="26" as="geometry" />
        </mxCell>
        <mxCell id="_l56NNT39bqanDtRIrfv-5" value="CanInfo" style="swimlane;fontStyle=0;childLayout=stackLayout;horizontal=1;startSize=26;fillColor=none;horizontalStack=0;resizeParent=1;resizeParentMax=0;resizeLast=0;collapsible=1;marginBottom=0;whiteSpace=wrap;html=1;" parent="1" vertex="1">
          <mxGeometry x="1100" y="60" width="140" height="54" as="geometry" />
        </mxCell>
        <mxCell id="_l56NNT39bqanDtRIrfv-6" value="+ channels: uint" style="text;strokeColor=none;fillColor=none;align=left;verticalAlign=top;spacingLeft=4;spacingRight=4;overflow=hidden;rotatable=0;points=[[0,0.5],[1,0.5]];portConstraint=eastwest;whiteSpace=wrap;html=1;" parent="_l56NNT39bqanDtRIrfv-5" vertex="1">
          <mxGeometry y="26" width="140" height="26" as="geometry" />
        </mxCell>
        <mxCell id="7Ooh6T3VTEalxZsjqkiu-1" value="+ channels: uint" style="text;strokeColor=none;fillColor=none;align=left;verticalAlign=top;spacingLeft=4;spacingRight=4;overflow=hidden;rotatable=0;points=[[0,0.5],[1,0.5]];portConstraint=eastwest;whiteSpace=wrap;html=1;" parent="_l56NNT39bqanDtRIrfv-5" vertex="1">
          <mxGeometry y="52" width="140" height="2" as="geometry" />
        </mxCell>
        <mxCell id="_l56NNT39bqanDtRIrfv-9" value="" style="endArrow=diamondThin;endFill=1;endSize=24;html=1;rounded=0;entryX=0.995;entryY=1.071;entryDx=0;entryDy=0;entryPerimeter=0;exitX=0.501;exitY=1.034;exitDx=0;exitDy=0;exitPerimeter=0;" parent="1" source="_l56NNT39bqanDtRIrfv-6" target="J-DgWmn5Wlb15pGXcQ9r-2" edge="1">
          <mxGeometry width="160" relative="1" as="geometry">
            <mxPoint x="1170" y="120" as="sourcePoint" />
            <mxPoint x="890" y="360" as="targetPoint" />
            <Array as="points">
              <mxPoint x="1170" y="244" />
            </Array>
          </mxGeometry>
        </mxCell>
        <mxCell id="_l56NNT39bqanDtRIrfv-10" value="" style="endArrow=diamondThin;endFill=1;endSize=24;html=1;rounded=0;entryX=0.519;entryY=-0.008;entryDx=0;entryDy=0;entryPerimeter=0;" parent="1" target="J-DgWmn5Wlb15pGXcQ9r-1" edge="1">
          <mxGeometry width="160" relative="1" as="geometry">
            <mxPoint x="850" y="150" as="sourcePoint" />
            <mxPoint x="850" y="280" as="targetPoint" />
          </mxGeometry>
        </mxCell>
        <mxCell id="OPKdCf_5wmI64lQn98wP-1" value="/proc/&amp;lt;cid&amp;gt;/stat" style="ellipse;whiteSpace=wrap;html=1;" parent="1" vertex="1">
          <mxGeometry x="1030" y="438" width="120" height="80" as="geometry" />
        </mxCell>
        <mxCell id="OPKdCf_5wmI64lQn98wP-6" value="" style="endArrow=none;dashed=1;html=1;rounded=0;entryX=1.006;entryY=0.991;entryDx=0;entryDy=0;entryPerimeter=0;exitX=0;exitY=1;exitDx=0;exitDy=0;" parent="1" source="OPKdCf_5wmI64lQn98wP-1" target="RaRC0VAytyYuPCtgM20P-3" edge="1">
          <mxGeometry width="50" height="50" relative="1" as="geometry">
            <mxPoint x="790" y="660" as="sourcePoint" />
            <mxPoint x="840" y="610" as="targetPoint" />
          </mxGeometry>
        </mxCell>
        <mxCell id="OPKdCf_5wmI64lQn98wP-7" value="" style="endArrow=none;dashed=1;html=1;rounded=0;entryX=1;entryY=0;entryDx=0;entryDy=0;exitX=0;exitY=0;exitDx=0;exitDy=0;" parent="1" source="OPKdCf_5wmI64lQn98wP-1" target="J-DgWmn5Wlb15pGXcQ9r-9" edge="1">
          <mxGeometry width="50" height="50" relative="1" as="geometry">
            <mxPoint x="1068" y="528" as="sourcePoint" />
            <mxPoint x="946" y="566" as="targetPoint" />
          </mxGeometry>
        </mxCell>
        <mxCell id="OPKdCf_5wmI64lQn98wP-8" value="cpu-stat" style="ellipse;whiteSpace=wrap;html=1;" parent="1" vertex="1">
          <mxGeometry x="340" y="180" width="120" height="80" as="geometry" />
        </mxCell>
        <mxCell id="OPKdCf_5wmI64lQn98wP-9" value="" style="endArrow=none;dashed=1;html=1;dashPattern=1 3;strokeWidth=2;rounded=0;exitX=0;exitY=1;exitDx=0;exitDy=0;entryX=1;entryY=1;entryDx=0;entryDy=0;" parent="1" source="J-DgWmn5Wlb15pGXcQ9r-1" target="OPKdCf_5wmI64lQn98wP-8" edge="1">
          <mxGeometry width="50" height="50" relative="1" as="geometry">
            <mxPoint x="580" y="267.1679999999999" as="sourcePoint" />
            <mxPoint x="470" y="200" as="targetPoint" />
          </mxGeometry>
        </mxCell>
        <mxCell id="OPKdCf_5wmI64lQn98wP-10" value="" style="endArrow=none;dashed=1;html=1;dashPattern=1 3;strokeWidth=2;rounded=0;exitX=0;exitY=0;exitDx=0;exitDy=0;entryX=1;entryY=0;entryDx=0;entryDy=0;" parent="1" source="J-DgWmn5Wlb15pGXcQ9r-1" target="OPKdCf_5wmI64lQn98wP-8" edge="1">
          <mxGeometry width="50" height="50" relative="1" as="geometry">
            <mxPoint x="590" y="277" as="sourcePoint" />
            <mxPoint x="462" y="258" as="targetPoint" />
          </mxGeometry>
        </mxCell>
        <mxCell id="_Bb2BG1LXDgIIBTzLIJU-1" value="VirtualMemory" style="swimlane;fontStyle=0;childLayout=stackLayout;horizontal=1;startSize=26;fillColor=none;horizontalStack=0;resizeParent=1;resizeParentMax=0;resizeLast=0;collapsible=1;marginBottom=0;whiteSpace=wrap;html=1;" parent="1" vertex="1">
          <mxGeometry x="1140" y="342" width="140" height="78" as="geometry" />
        </mxCell>
        <mxCell id="_Bb2BG1LXDgIIBTzLIJU-2" value="+ used: uint64" style="text;strokeColor=none;fillColor=none;align=left;verticalAlign=top;spacingLeft=4;spacingRight=4;overflow=hidden;rotatable=0;points=[[0,0.5],[1,0.5]];portConstraint=eastwest;whiteSpace=wrap;html=1;" parent="_Bb2BG1LXDgIIBTzLIJU-1" vertex="1">
          <mxGeometry y="26" width="140" height="26" as="geometry" />
        </mxCell>
        <mxCell id="_Bb2BG1LXDgIIBTzLIJU-11" value="+ available: uint64" style="text;strokeColor=none;fillColor=none;align=left;verticalAlign=top;spacingLeft=4;spacingRight=4;overflow=hidden;rotatable=0;points=[[0,0.5],[1,0.5]];portConstraint=eastwest;whiteSpace=wrap;html=1;" parent="_Bb2BG1LXDgIIBTzLIJU-1" vertex="1">
          <mxGeometry y="52" width="140" height="26" as="geometry" />
        </mxCell>
        <mxCell id="_Bb2BG1LXDgIIBTzLIJU-7" value="sysinfo/&lt;br&gt;proc/meminfo" style="ellipse;whiteSpace=wrap;html=1;" parent="1" vertex="1">
          <mxGeometry x="1420" y="340" width="120" height="80" as="geometry" />
        </mxCell>
        <mxCell id="_Bb2BG1LXDgIIBTzLIJU-8" value="" style="endArrow=none;dashed=1;html=1;dashPattern=1 3;strokeWidth=2;rounded=0;exitX=0.5;exitY=0;exitDx=0;exitDy=0;entryX=1;entryY=0;entryDx=0;entryDy=0;" parent="1" source="_Bb2BG1LXDgIIBTzLIJU-7" target="_Bb2BG1LXDgIIBTzLIJU-1" edge="1">
          <mxGeometry width="50" height="50" relative="1" as="geometry">
            <mxPoint x="1508" y="300" as="sourcePoint" />
            <mxPoint x="1370" y="306" as="targetPoint" />
          </mxGeometry>
        </mxCell>
        <mxCell id="_Bb2BG1LXDgIIBTzLIJU-10" value="" style="endArrow=none;dashed=1;html=1;dashPattern=1 3;strokeWidth=2;rounded=0;exitX=0.5;exitY=1;exitDx=0;exitDy=0;entryX=1.009;entryY=0.908;entryDx=0;entryDy=0;entryPerimeter=0;" parent="1" source="_Bb2BG1LXDgIIBTzLIJU-7" target="_Bb2BG1LXDgIIBTzLIJU-11" edge="1">
          <mxGeometry width="50" height="50" relative="1" as="geometry">
            <mxPoint x="1490" y="350" as="sourcePoint" />
            <mxPoint x="1362.1" y="409.03999999999996" as="targetPoint" />
          </mxGeometry>
        </mxCell>
        <mxCell id="MqDCzjJ3VHOML7mSg24g-2" value="PhysicalMemory" style="swimlane;fontStyle=0;childLayout=stackLayout;horizontal=1;startSize=26;fillColor=none;horizontalStack=0;resizeParent=1;resizeParentMax=0;resizeLast=0;collapsible=1;marginBottom=0;whiteSpace=wrap;html=1;" parent="1" vertex="1">
          <mxGeometry x="1300" y="193" width="140" height="78" as="geometry" />
        </mxCell>
        <mxCell id="MqDCzjJ3VHOML7mSg24g-3" value="+ used: uint" style="text;strokeColor=none;fillColor=none;align=left;verticalAlign=top;spacingLeft=4;spacingRight=4;overflow=hidden;rotatable=0;points=[[0,0.5],[1,0.5]];portConstraint=eastwest;whiteSpace=wrap;html=1;" parent="MqDCzjJ3VHOML7mSg24g-2" vertex="1">
          <mxGeometry y="26" width="140" height="26" as="geometry" />
        </mxCell>
        <mxCell id="MqDCzjJ3VHOML7mSg24g-4" value="+ available: uint" style="text;strokeColor=none;fillColor=none;align=left;verticalAlign=top;spacingLeft=4;spacingRight=4;overflow=hidden;rotatable=0;points=[[0,0.5],[1,0.5]];portConstraint=eastwest;whiteSpace=wrap;html=1;" parent="MqDCzjJ3VHOML7mSg24g-2" vertex="1">
          <mxGeometry y="52" width="140" height="26" as="geometry" />
        </mxCell>
        <mxCell id="Twhj6KJrk3Wa8BmrnNuX-1" value="" style="endArrow=none;html=1;rounded=0;entryX=0.215;entryY=0.004;entryDx=0;entryDy=0;entryPerimeter=0;" parent="1" target="_Bb2BG1LXDgIIBTzLIJU-1" edge="1">
          <mxGeometry width="50" height="50" relative="1" as="geometry">
            <mxPoint x="1170" y="240" as="sourcePoint" />
            <mxPoint x="1010" y="440" as="targetPoint" />
            <Array as="points">
              <mxPoint x="1170" y="320" />
            </Array>
          </mxGeometry>
        </mxCell>
        <mxCell id="mI5nPp4EuaGJVHP_HAYm-1" value="+ kernelVMem" style="edgeLabel;html=1;align=center;verticalAlign=middle;resizable=0;points=[];" parent="Twhj6KJrk3Wa8BmrnNuX-1" vertex="1" connectable="0">
          <mxGeometry x="0.7594" y="1" relative="1" as="geometry">
            <mxPoint x="39" as="offset" />
          </mxGeometry>
        </mxCell>
        <mxCell id="Twhj6KJrk3Wa8BmrnNuX-2" value="" style="endArrow=diamondThin;endFill=1;endSize=24;html=1;rounded=0;entryX=-0.009;entryY=-0.108;entryDx=0;entryDy=0;entryPerimeter=0;exitX=0.763;exitY=0;exitDx=0;exitDy=0;exitPerimeter=0;" parent="1" source="J-DgWmn5Wlb15pGXcQ9r-9" target="_Bb2BG1LXDgIIBTzLIJU-2" edge="1">
          <mxGeometry width="160" relative="1" as="geometry">
            <mxPoint x="900" y="470" as="sourcePoint" />
            <mxPoint x="1060" y="470" as="targetPoint" />
            <Array as="points">
              <mxPoint x="890" y="365" />
            </Array>
          </mxGeometry>
        </mxCell>
        <mxCell id="LFaKliuCeZBVsyR2fqZM-1" value="" style="endArrow=none;html=1;rounded=0;entryX=-0.001;entryY=0.791;entryDx=0;entryDy=0;entryPerimeter=0;" parent="1" target="MqDCzjJ3VHOML7mSg24g-3" edge="1">
          <mxGeometry width="50" height="50" relative="1" as="geometry">
            <mxPoint x="1170" y="240" as="sourcePoint" />
            <mxPoint x="1200" y="280" as="targetPoint" />
          </mxGeometry>
        </mxCell>
      </root>
    </mxGraphModel>
  </diagram>
  <diagram id="W3l1Xf42tb07auQQYDdE" name="request_response">
    <mxGraphModel dx="1290" dy="717" grid="1" gridSize="10" guides="1" tooltips="1" connect="1" arrows="1" fold="1" page="1" pageScale="1" pageWidth="1920" pageHeight="1200" math="0" shadow="0">
      <root>
        <mxCell id="0" />
        <mxCell id="1" parent="0" />
        <mxCell id="BNpcQjkmeMy5cF4L0yi3-9" value="" style="rounded=0;whiteSpace=wrap;html=1;" parent="1" vertex="1">
          <mxGeometry x="230" y="80" width="490" height="300" as="geometry" />
        </mxCell>
        <mxCell id="7ah2L4KjZfzczF7rpF0V-2" value="VSOCK" style="rounded=0;whiteSpace=wrap;html=1;fillColor=#ffe6cc;strokeColor=#d79b00;" parent="1" vertex="1">
          <mxGeometry x="230" y="380" width="490" height="20" as="geometry" />
        </mxCell>
        <mxCell id="BNpcQjkmeMy5cF4L0yi3-8" value="" style="rounded=0;whiteSpace=wrap;html=1;" parent="1" vertex="1">
          <mxGeometry x="230" y="400" width="490" height="170" as="geometry" />
        </mxCell>
        <mxCell id="BNpcQjkmeMy5cF4L0yi3-2" value="Guest monitor client" style="ellipse;whiteSpace=wrap;html=1;" parent="1" vertex="1">
          <mxGeometry x="325" y="270" width="120" height="80" as="geometry" />
        </mxCell>
        <mxCell id="BNpcQjkmeMy5cF4L0yi3-5" value="" style="endArrow=classic;html=1;rounded=0;exitX=0;exitY=0.5;exitDx=0;exitDy=0;entryX=0;entryY=0.5;entryDx=0;entryDy=0;curved=1;" parent="1" source="BNpcQjkmeMy5cF4L0yi3-1" target="BNpcQjkmeMy5cF4L0yi3-2" edge="1">
          <mxGeometry width="50" height="50" relative="1" as="geometry">
            <mxPoint x="520" y="440" as="sourcePoint" />
            <mxPoint x="570" y="390" as="targetPoint" />
            <Array as="points">
              <mxPoint x="300" y="400" />
            </Array>
          </mxGeometry>
        </mxCell>
        <mxCell id="7ah2L4KjZfzczF7rpF0V-1" value="Request RT perf metric" style="edgeLabel;html=1;align=center;verticalAlign=middle;resizable=0;points=[];" parent="BNpcQjkmeMy5cF4L0yi3-5" vertex="1" connectable="0">
          <mxGeometry x="0.6399" y="-4" relative="1" as="geometry">
            <mxPoint x="-45" y="118" as="offset" />
          </mxGeometry>
        </mxCell>
        <mxCell id="BNpcQjkmeMy5cF4L0yi3-1" value="Host monitor" style="ellipse;whiteSpace=wrap;html=1;" parent="1" vertex="1">
          <mxGeometry x="325" y="445" width="120" height="80" as="geometry" />
        </mxCell>
        <mxCell id="7ah2L4KjZfzczF7rpF0V-3" value="GUI" style="rounded=0;whiteSpace=wrap;html=1;" parent="1" vertex="1">
          <mxGeometry x="230" y="570" width="490" height="20" as="geometry" />
        </mxCell>
        <mxCell id="7ah2L4KjZfzczF7rpF0V-4" value="Host" style="text;html=1;strokeColor=none;fillColor=none;align=center;verticalAlign=middle;whiteSpace=wrap;rounded=0;" parent="1" vertex="1">
          <mxGeometry x="445" y="540" width="60" height="30" as="geometry" />
        </mxCell>
        <mxCell id="7ah2L4KjZfzczF7rpF0V-5" value="Guest" style="text;html=1;strokeColor=none;fillColor=none;align=center;verticalAlign=middle;whiteSpace=wrap;rounded=0;" parent="1" vertex="1">
          <mxGeometry x="355" y="350" width="60" height="30" as="geometry" />
        </mxCell>
        <mxCell id="7ah2L4KjZfzczF7rpF0V-6" value="" style="endArrow=classic;html=1;rounded=0;entryX=0.5;entryY=1;entryDx=0;entryDy=0;exitX=0;exitY=0.5;exitDx=0;exitDy=0;curved=1;" parent="1" source="BNpcQjkmeMy5cF4L0yi3-2" target="7ah2L4KjZfzczF7rpF0V-12" edge="1">
          <mxGeometry width="50" height="50" relative="1" as="geometry">
            <mxPoint x="460" y="390" as="sourcePoint" />
            <mxPoint x="510" y="340" as="targetPoint" />
            <Array as="points">
              <mxPoint x="270" y="260" />
              <mxPoint x="340" y="150" />
            </Array>
          </mxGeometry>
        </mxCell>
        <mxCell id="7ah2L4KjZfzczF7rpF0V-7" value="Syscall/read" style="edgeLabel;html=1;align=center;verticalAlign=middle;resizable=0;points=[];" parent="7ah2L4KjZfzczF7rpF0V-6" vertex="1" connectable="0">
          <mxGeometry x="-0.1842" y="-10" relative="1" as="geometry">
            <mxPoint x="-13" y="-17" as="offset" />
          </mxGeometry>
        </mxCell>
        <mxCell id="7ah2L4KjZfzczF7rpF0V-8" value="" style="endArrow=classic;html=1;rounded=0;exitX=0.5;exitY=1;exitDx=0;exitDy=0;entryX=1.002;entryY=0.573;entryDx=0;entryDy=0;entryPerimeter=0;curved=1;" parent="1" source="7ah2L4KjZfzczF7rpF0V-12" target="BNpcQjkmeMy5cF4L0yi3-2" edge="1">
          <mxGeometry width="50" height="50" relative="1" as="geometry">
            <mxPoint x="540" y="180" as="sourcePoint" />
            <mxPoint x="510" y="270" as="targetPoint" />
            <Array as="points">
              <mxPoint x="600" y="260" />
            </Array>
          </mxGeometry>
        </mxCell>
        <mxCell id="7ah2L4KjZfzczF7rpF0V-9" value="Return" style="edgeLabel;html=1;align=center;verticalAlign=middle;resizable=0;points=[];" parent="7ah2L4KjZfzczF7rpF0V-8" vertex="1" connectable="0">
          <mxGeometry x="-0.2821" y="-5" relative="1" as="geometry">
            <mxPoint x="-6" y="25" as="offset" />
          </mxGeometry>
        </mxCell>
        <mxCell id="7ah2L4KjZfzczF7rpF0V-10" value="" style="endArrow=classic;html=1;rounded=0;exitX=0.988;exitY=0.559;exitDx=0;exitDy=0;exitPerimeter=0;entryX=1;entryY=0.5;entryDx=0;entryDy=0;curved=1;" parent="1" source="BNpcQjkmeMy5cF4L0yi3-2" target="BNpcQjkmeMy5cF4L0yi3-1" edge="1">
          <mxGeometry width="50" height="50" relative="1" as="geometry">
            <mxPoint x="460" y="460" as="sourcePoint" />
            <mxPoint x="510" y="410" as="targetPoint" />
            <Array as="points">
              <mxPoint x="500" y="390" />
            </Array>
          </mxGeometry>
        </mxCell>
        <mxCell id="7ah2L4KjZfzczF7rpF0V-11" value="Provide RT perf metric" style="edgeLabel;html=1;align=center;verticalAlign=middle;resizable=0;points=[];" parent="7ah2L4KjZfzczF7rpF0V-10" vertex="1" connectable="0">
          <mxGeometry x="-0.4986" y="-18" relative="1" as="geometry">
            <mxPoint x="52" y="74" as="offset" />
          </mxGeometry>
        </mxCell>
        <mxCell id="7ah2L4KjZfzczF7rpF0V-12" value="OS" style="rounded=0;whiteSpace=wrap;html=1;" parent="1" vertex="1">
          <mxGeometry x="230" y="80" width="490" height="40" as="geometry" />
        </mxCell>
        <mxCell id="8U-DJ37tm9preJ0_wJiu-1" value="Host monitor client" style="ellipse;whiteSpace=wrap;html=1;" parent="1" vertex="1">
          <mxGeometry x="580" y="470" width="120" height="80" as="geometry" />
        </mxCell>
        <mxCell id="8U-DJ37tm9preJ0_wJiu-2" value="" style="endArrow=classic;html=1;rounded=0;entryX=0.5;entryY=0;entryDx=0;entryDy=0;curved=1;exitX=0.958;exitY=0.688;exitDx=0;exitDy=0;exitPerimeter=0;" parent="1" source="BNpcQjkmeMy5cF4L0yi3-1" target="8U-DJ37tm9preJ0_wJiu-1" edge="1">
          <mxGeometry width="50" height="50" relative="1" as="geometry">
            <mxPoint x="580" y="525" as="sourcePoint" />
            <mxPoint x="580" y="350" as="targetPoint" />
            <Array as="points">
              <mxPoint x="555" y="440" />
            </Array>
          </mxGeometry>
        </mxCell>
        <mxCell id="8U-DJ37tm9preJ0_wJiu-3" value="Request RT perf metric" style="edgeLabel;html=1;align=center;verticalAlign=middle;resizable=0;points=[];" parent="8U-DJ37tm9preJ0_wJiu-2" vertex="1" connectable="0">
          <mxGeometry x="0.6399" y="-4" relative="1" as="geometry">
            <mxPoint x="-61" y="25" as="offset" />
          </mxGeometry>
        </mxCell>
        <mxCell id="8U-DJ37tm9preJ0_wJiu-4" value="" style="endArrow=classic;html=1;rounded=0;exitX=0;exitY=1;exitDx=0;exitDy=0;entryX=0;entryY=1;entryDx=0;entryDy=0;curved=1;" parent="1" source="8U-DJ37tm9preJ0_wJiu-1" target="BNpcQjkmeMy5cF4L0yi3-1" edge="1">
          <mxGeometry width="50" height="50" relative="1" as="geometry">
            <mxPoint x="652.4299999999997" y="556.72" as="sourcePoint" />
            <mxPoint x="355.0035931288034" y="520.0042712474642" as="targetPoint" />
            <Array as="points">
              <mxPoint x="490" y="540" />
              <mxPoint x="470" y="540" />
              <mxPoint x="450" y="550" />
              <mxPoint x="430" y="550" />
              <mxPoint x="370" y="540" />
            </Array>
          </mxGeometry>
        </mxCell>
        <mxCell id="8U-DJ37tm9preJ0_wJiu-5" value="Provide RT perf metric" style="edgeLabel;html=1;align=center;verticalAlign=middle;resizable=0;points=[];" parent="8U-DJ37tm9preJ0_wJiu-4" vertex="1" connectable="0">
          <mxGeometry x="-0.4986" y="-18" relative="1" as="geometry">
            <mxPoint x="-26" y="4" as="offset" />
          </mxGeometry>
        </mxCell>
      </root>
    </mxGraphModel>
  </diagram>
  <diagram id="TbbYiutmnNh6Ny3LRK2F" name="virtual_comm_seq">
    <mxGraphModel dx="1290" dy="717" grid="1" gridSize="10" guides="1" tooltips="1" connect="1" arrows="1" fold="1" page="1" pageScale="1" pageWidth="1920" pageHeight="1200" math="0" shadow="0">
      <root>
        <mxCell id="0" />
        <mxCell id="1" parent="0" />
        <mxCell id="QvuJX1TW2GLRjs4FBzFW-1" value="" style="group" parent="1" vertex="1" connectable="0">
          <mxGeometry x="270" y="140" width="100" height="500" as="geometry" />
        </mxCell>
        <mxCell id="QvuJX1TW2GLRjs4FBzFW-2" value="Host" style="html=1;whiteSpace=wrap;" parent="QvuJX1TW2GLRjs4FBzFW-1" vertex="1">
          <mxGeometry width="100" height="46.51162790697675" as="geometry" />
        </mxCell>
        <mxCell id="QvuJX1TW2GLRjs4FBzFW-3" value="" style="endArrow=none;dashed=1;html=1;rounded=0;entryX=0.5;entryY=1;entryDx=0;entryDy=0;" parent="QvuJX1TW2GLRjs4FBzFW-1" target="QvuJX1TW2GLRjs4FBzFW-2" edge="1">
          <mxGeometry width="50" height="50" relative="1" as="geometry">
            <mxPoint x="50" y="500.00000000000006" as="sourcePoint" />
            <mxPoint x="480" y="337.2093023255814" as="targetPoint" />
          </mxGeometry>
        </mxCell>
        <mxCell id="QvuJX1TW2GLRjs4FBzFW-4" value="" style="html=1;points=[[0,0,0,0,5],[0,1,0,0,-5],[1,0,0,0,5],[1,1,0,0,-5]];perimeter=orthogonalPerimeter;outlineConnect=0;targetShapes=umlLifeline;portConstraint=eastwest;newEdgeStyle={&quot;curved&quot;:0,&quot;rounded&quot;:0};" parent="QvuJX1TW2GLRjs4FBzFW-1" vertex="1">
          <mxGeometry x="50" y="270.0039534883721" width="10" height="93.0232558139535" as="geometry" />
        </mxCell>
        <mxCell id="QvuJX1TW2GLRjs4FBzFW-5" value="" style="group" parent="1" vertex="1" connectable="0">
          <mxGeometry x="490" y="140" width="100" height="520" as="geometry" />
        </mxCell>
        <mxCell id="QvuJX1TW2GLRjs4FBzFW-6" value="Monitor client" style="html=1;whiteSpace=wrap;" parent="QvuJX1TW2GLRjs4FBzFW-5" vertex="1">
          <mxGeometry width="100" height="46.51162790697675" as="geometry" />
        </mxCell>
        <mxCell id="QvuJX1TW2GLRjs4FBzFW-7" value="" style="endArrow=none;dashed=1;html=1;rounded=0;entryX=0.5;entryY=1;entryDx=0;entryDy=0;" parent="QvuJX1TW2GLRjs4FBzFW-5" target="QvuJX1TW2GLRjs4FBzFW-6" edge="1">
          <mxGeometry width="50" height="50" relative="1" as="geometry">
            <mxPoint x="50" y="500.00000000000006" as="sourcePoint" />
            <mxPoint x="480" y="337.2093023255814" as="targetPoint" />
          </mxGeometry>
        </mxCell>
        <mxCell id="QvuJX1TW2GLRjs4FBzFW-8" value="" style="html=1;points=[[0,0,0,0,5],[0,1,0,0,-5],[1,0,0,0,5],[1,1,0,0,-5]];perimeter=orthogonalPerimeter;outlineConnect=0;targetShapes=umlLifeline;portConstraint=eastwest;newEdgeStyle={&quot;curved&quot;:0,&quot;rounded&quot;:0};" parent="QvuJX1TW2GLRjs4FBzFW-5" vertex="1">
          <mxGeometry x="40" y="160" width="10" height="106.05" as="geometry" />
        </mxCell>
        <mxCell id="QvuJX1TW2GLRjs4FBzFW-9" value="" style="html=1;points=[[0,0,0,0,5],[0,1,0,0,-5],[1,0,0,0,5],[1,1,0,0,-5]];perimeter=orthogonalPerimeter;outlineConnect=0;targetShapes=umlLifeline;portConstraint=eastwest;newEdgeStyle={&quot;curved&quot;:0,&quot;rounded&quot;:0};" parent="QvuJX1TW2GLRjs4FBzFW-5" vertex="1">
          <mxGeometry x="40" y="310.00023255813954" width="10" height="46.51162790697675" as="geometry" />
        </mxCell>
        <mxCell id="QvuJX1TW2GLRjs4FBzFW-10" value="collect metric/system info" style="html=1;align=left;spacingLeft=2;endArrow=block;rounded=0;edgeStyle=orthogonalEdgeStyle;curved=0;rounded=0;exitX=1;exitY=1;exitDx=0;exitDy=-5;exitPerimeter=0;" parent="QvuJX1TW2GLRjs4FBzFW-5" source="QvuJX1TW2GLRjs4FBzFW-8" target="QvuJX1TW2GLRjs4FBzFW-9" edge="1">
          <mxGeometry relative="1" as="geometry">
            <mxPoint x="45" y="197.67441860465118" as="sourcePoint" />
            <Array as="points">
              <mxPoint x="50" y="240" />
              <mxPoint x="75" y="240" />
              <mxPoint x="75" y="333" />
            </Array>
          </mxGeometry>
        </mxCell>
        <mxCell id="MgAeu8ubq-YbrgDrtMnl-2" value="" style="html=1;points=[[0,0,0,0,5],[0,1,0,0,-5],[1,0,0,0,5],[1,1,0,0,-5]];perimeter=orthogonalPerimeter;outlineConnect=0;targetShapes=umlLifeline;portConstraint=eastwest;newEdgeStyle={&quot;curved&quot;:0,&quot;rounded&quot;:0};" parent="QvuJX1TW2GLRjs4FBzFW-5" vertex="1">
          <mxGeometry x="40" y="60" width="10" height="80" as="geometry" />
        </mxCell>
        <mxCell id="MgAeu8ubq-YbrgDrtMnl-3" value="connect" style="html=1;verticalAlign=bottom;endArrow=block;curved=0;rounded=0;entryX=0;entryY=0;entryDx=0;entryDy=5;" parent="QvuJX1TW2GLRjs4FBzFW-5" target="MgAeu8ubq-YbrgDrtMnl-2" edge="1">
          <mxGeometry relative="1" as="geometry">
            <mxPoint x="-170" y="65" as="sourcePoint" />
          </mxGeometry>
        </mxCell>
        <mxCell id="MgAeu8ubq-YbrgDrtMnl-4" value="" style="html=1;verticalAlign=bottom;endArrow=open;dashed=1;endSize=8;curved=0;rounded=0;exitX=0;exitY=1;exitDx=0;exitDy=-5;" parent="QvuJX1TW2GLRjs4FBzFW-5" source="MgAeu8ubq-YbrgDrtMnl-2" edge="1">
          <mxGeometry relative="1" as="geometry">
            <mxPoint x="-170" y="135" as="targetPoint" />
          </mxGeometry>
        </mxCell>
        <mxCell id="MgAeu8ubq-YbrgDrtMnl-5" value="acknowledge" style="edgeLabel;html=1;align=center;verticalAlign=middle;resizable=0;points=[];" parent="MgAeu8ubq-YbrgDrtMnl-4" vertex="1" connectable="0">
          <mxGeometry x="0.0171" y="-1" relative="1" as="geometry">
            <mxPoint y="-14" as="offset" />
          </mxGeometry>
        </mxCell>
        <mxCell id="QvuJX1TW2GLRjs4FBzFW-12" value="request metric/systeminfo" style="html=1;verticalAlign=bottom;startArrow=oval;endArrow=block;startSize=8;curved=0;rounded=0;entryX=0;entryY=0;entryDx=0;entryDy=5;" parent="1" target="QvuJX1TW2GLRjs4FBzFW-8" edge="1">
          <mxGeometry relative="1" as="geometry">
            <mxPoint x="320" y="305" as="sourcePoint" />
          </mxGeometry>
        </mxCell>
        <mxCell id="QvuJX1TW2GLRjs4FBzFW-13" value="provide metric/systeminfo" style="html=1;verticalAlign=bottom;startArrow=oval;endArrow=block;startSize=8;curved=0;rounded=0;exitX=0;exitY=1;exitDx=0;exitDy=-5;exitPerimeter=0;" parent="1" source="QvuJX1TW2GLRjs4FBzFW-9" target="QvuJX1TW2GLRjs4FBzFW-4" edge="1">
          <mxGeometry relative="1" as="geometry">
            <mxPoint x="530" y="330" as="sourcePoint" />
          </mxGeometry>
        </mxCell>
      </root>
    </mxGraphModel>
  </diagram>
  <diagram id="oAA93CpimAXGFY7OzUdi" name="host-class">
    <mxGraphModel dx="2995" dy="598" grid="1" gridSize="10" guides="1" tooltips="1" connect="1" arrows="1" fold="1" page="1" pageScale="1" pageWidth="1920" pageHeight="1200" math="0" shadow="0">
      <root>
        <mxCell id="0" />
        <mxCell id="1" parent="0" />
        <mxCell id="uv72fqtXQBVnHYRg8EGx-1" value="Model : QObject" style="swimlane;fontStyle=0;childLayout=stackLayout;horizontal=1;startSize=26;fillColor=none;horizontalStack=0;resizeParent=1;resizeParentMax=0;resizeLast=0;collapsible=1;marginBottom=0;whiteSpace=wrap;html=1;" parent="1" vertex="1">
          <mxGeometry x="500" y="160" width="380" height="160" as="geometry" />
        </mxCell>
        <mxCell id="uv72fqtXQBVnHYRg8EGx-2" value="+ requestSystemInfo(id: uint): &amp;lt;&amp;lt;slot&amp;gt;&amp;gt;" style="text;strokeColor=none;fillColor=none;align=left;verticalAlign=top;spacingLeft=4;spacingRight=4;overflow=hidden;rotatable=0;points=[[0,0.5],[1,0.5]];portConstraint=eastwest;whiteSpace=wrap;html=1;" parent="uv72fqtXQBVnHYRg8EGx-1" vertex="1">
          <mxGeometry y="26" width="380" height="26" as="geometry" />
        </mxCell>
        <mxCell id="sAKfYUH1RWN1B27a5EHq-3" value="+ saveConfig(config: AppConfig)&amp;nbsp; &amp;lt;&amp;lt;slot&amp;gt;&amp;gt;" style="text;strokeColor=none;fillColor=none;align=left;verticalAlign=top;spacingLeft=4;spacingRight=4;overflow=hidden;rotatable=0;points=[[0,0.5],[1,0.5]];portConstraint=eastwest;whiteSpace=wrap;html=1;" parent="uv72fqtXQBVnHYRg8EGx-1" vertex="1">
          <mxGeometry y="52" width="380" height="26" as="geometry" />
        </mxCell>
        <mxCell id="AjFG6FO3Vp99IwPL2J0v-1" value="+ runtimeMetricReceived(id: uint,metric: RuntimeMetric)&amp;nbsp; &amp;lt;&amp;lt;slot&amp;gt;&amp;gt;" style="text;strokeColor=none;fillColor=none;align=left;verticalAlign=top;spacingLeft=4;spacingRight=4;overflow=hidden;rotatable=0;points=[[0,0.5],[1,0.5]];portConstraint=eastwest;whiteSpace=wrap;html=1;" parent="uv72fqtXQBVnHYRg8EGx-1" vertex="1">
          <mxGeometry y="78" width="380" height="26" as="geometry" />
        </mxCell>
        <mxCell id="5bwsf9dEkguVN5Xz5eT8-1" value="+ loadConfig() &amp;lt;&amp;lt;slot&amp;gt;&amp;gt;" style="text;strokeColor=none;fillColor=none;align=left;verticalAlign=top;spacingLeft=4;spacingRight=4;overflow=hidden;rotatable=0;points=[[0,0.5],[1,0.5]];portConstraint=eastwest;whiteSpace=wrap;html=1;" parent="uv72fqtXQBVnHYRg8EGx-1" vertex="1">
          <mxGeometry y="104" width="380" height="28" as="geometry" />
        </mxCell>
        <mxCell id="pxjJRgkO8DvIErGBvJpy-2" value="+ getConfiguration(): AppConfig" style="text;strokeColor=none;fillColor=none;align=left;verticalAlign=top;spacingLeft=4;spacingRight=4;overflow=hidden;rotatable=0;points=[[0,0.5],[1,0.5]];portConstraint=eastwest;whiteSpace=wrap;html=1;" vertex="1" parent="uv72fqtXQBVnHYRg8EGx-1">
          <mxGeometry y="132" width="380" height="28" as="geometry" />
        </mxCell>
        <mxCell id="uv72fqtXQBVnHYRg8EGx-5" value="Controller : QObject" style="swimlane;fontStyle=0;childLayout=stackLayout;horizontal=1;startSize=26;fillColor=none;horizontalStack=0;resizeParent=1;resizeParentMax=0;resizeLast=0;collapsible=1;marginBottom=0;whiteSpace=wrap;html=1;" parent="1" vertex="1">
          <mxGeometry x="480" y="430" width="460" height="260" as="geometry" />
        </mxCell>
        <mxCell id="uv72fqtXQBVnHYRg8EGx-6" value="- handleMetricRequest(id: uint)" style="text;strokeColor=none;fillColor=none;align=left;verticalAlign=top;spacingLeft=4;spacingRight=4;overflow=hidden;rotatable=0;points=[[0,0.5],[1,0.5]];portConstraint=eastwest;whiteSpace=wrap;html=1;" parent="uv72fqtXQBVnHYRg8EGx-5" vertex="1">
          <mxGeometry y="26" width="460" height="26" as="geometry" />
        </mxCell>
        <mxCell id="uv72fqtXQBVnHYRg8EGx-7" value="- handleSysInfoRequest(id: uint)" style="text;strokeColor=none;fillColor=none;align=left;verticalAlign=top;spacingLeft=4;spacingRight=4;overflow=hidden;rotatable=0;points=[[0,0.5],[1,0.5]];portConstraint=eastwest;whiteSpace=wrap;html=1;" parent="uv72fqtXQBVnHYRg8EGx-5" vertex="1">
          <mxGeometry y="52" width="460" height="26" as="geometry" />
        </mxCell>
        <mxCell id="uv72fqtXQBVnHYRg8EGx-8" value="- handleConfigModified(config: AppConfig)" style="text;strokeColor=none;fillColor=none;align=left;verticalAlign=top;spacingLeft=4;spacingRight=4;overflow=hidden;rotatable=0;points=[[0,0.5],[1,0.5]];portConstraint=eastwest;whiteSpace=wrap;html=1;" parent="uv72fqtXQBVnHYRg8EGx-5" vertex="1">
          <mxGeometry y="78" width="460" height="26" as="geometry" />
        </mxCell>
        <mxCell id="sAKfYUH1RWN1B27a5EHq-12" value="- handleConnection(id: uint) &amp;lt;&amp;lt;slot&amp;gt;&amp;gt;" style="text;strokeColor=none;fillColor=none;align=left;verticalAlign=top;spacingLeft=4;spacingRight=4;overflow=hidden;rotatable=0;points=[[0,0.5],[1,0.5]];portConstraint=eastwest;whiteSpace=wrap;html=1;" parent="uv72fqtXQBVnHYRg8EGx-5" vertex="1">
          <mxGeometry y="104" width="460" height="26" as="geometry" />
        </mxCell>
        <mxCell id="9TjPBKItWNGuovdWHdi4-1" value="- runtimeMetricReceived(id: uint,RuntimeMetric) &amp;lt;&amp;lt;signal&amp;gt;&amp;gt;" style="text;strokeColor=none;fillColor=none;align=left;verticalAlign=top;spacingLeft=4;spacingRight=4;overflow=hidden;rotatable=0;points=[[0,0.5],[1,0.5]];portConstraint=eastwest;whiteSpace=wrap;html=1;" parent="uv72fqtXQBVnHYRg8EGx-5" vertex="1">
          <mxGeometry y="130" width="460" height="26" as="geometry" />
        </mxCell>
        <mxCell id="AEbPqvel7q_em95DNOJ2-2" value="- systemInfoReceived(id: uint,RuntimeMetric) &amp;lt;&amp;lt;signal&amp;gt;&amp;gt;" style="text;strokeColor=none;fillColor=none;align=left;verticalAlign=top;spacingLeft=4;spacingRight=4;overflow=hidden;rotatable=0;points=[[0,0.5],[1,0.5]];portConstraint=eastwest;whiteSpace=wrap;html=1;" parent="uv72fqtXQBVnHYRg8EGx-5" vertex="1">
          <mxGeometry y="156" width="460" height="26" as="geometry" />
        </mxCell>
        <mxCell id="2bJKtT7uRMrFS1MTUmSC-1" value="- handleRunCommand(id: uint,command: string) &amp;lt;&amp;lt;slot&amp;gt;&amp;gt;" style="text;strokeColor=none;fillColor=none;align=left;verticalAlign=top;spacingLeft=4;spacingRight=4;overflow=hidden;rotatable=0;points=[[0,0.5],[1,0.5]];portConstraint=eastwest;whiteSpace=wrap;html=1;" parent="uv72fqtXQBVnHYRg8EGx-5" vertex="1">
          <mxGeometry y="182" width="460" height="26" as="geometry" />
        </mxCell>
        <mxCell id="2bJKtT7uRMrFS1MTUmSC-2" value="- commandResultReceived(id: uint,resutlt: string) &amp;lt;&amp;lt;signal&amp;gt;&amp;gt;" style="text;strokeColor=none;fillColor=none;align=left;verticalAlign=top;spacingLeft=4;spacingRight=4;overflow=hidden;rotatable=0;points=[[0,0.5],[1,0.5]];portConstraint=eastwest;whiteSpace=wrap;html=1;" parent="uv72fqtXQBVnHYRg8EGx-5" vertex="1">
          <mxGeometry y="208" width="460" height="26" as="geometry" />
        </mxCell>
        <mxCell id="7M-pRt6_DR-2Dj9Xc59V-1" value="+ exec()" style="text;strokeColor=none;fillColor=none;align=left;verticalAlign=top;spacingLeft=4;spacingRight=4;overflow=hidden;rotatable=0;points=[[0,0.5],[1,0.5]];portConstraint=eastwest;whiteSpace=wrap;html=1;" parent="uv72fqtXQBVnHYRg8EGx-5" vertex="1">
          <mxGeometry y="234" width="460" height="26" as="geometry" />
        </mxCell>
        <mxCell id="ON-8t-P8QCVqH2d19nW8-10" value="ResponseParser" style="swimlane;fontStyle=0;childLayout=stackLayout;horizontal=1;startSize=26;fillColor=none;horizontalStack=0;resizeParent=1;resizeParentMax=0;resizeLast=0;collapsible=1;marginBottom=0;whiteSpace=wrap;html=1;" parent="1" vertex="1">
          <mxGeometry x="160" y="610" width="250" height="130" as="geometry" />
        </mxCell>
        <mxCell id="ON-8t-P8QCVqH2d19nW8-11" value="+ parseMetric(VsockData): RuntimeMetric?" style="text;strokeColor=none;fillColor=none;align=left;verticalAlign=top;spacingLeft=4;spacingRight=4;overflow=hidden;rotatable=0;points=[[0,0.5],[1,0.5]];portConstraint=eastwest;whiteSpace=wrap;html=1;" parent="ON-8t-P8QCVqH2d19nW8-10" vertex="1">
          <mxGeometry y="26" width="250" height="26" as="geometry" />
        </mxCell>
        <mxCell id="9yJWI6utogZ360EGE4Ml-15" value="+ parseSysInfo(VsockData): SystemInfo?" style="text;strokeColor=none;fillColor=none;align=left;verticalAlign=top;spacingLeft=4;spacingRight=4;overflow=hidden;rotatable=0;points=[[0,0.5],[1,0.5]];portConstraint=eastwest;whiteSpace=wrap;html=1;" parent="ON-8t-P8QCVqH2d19nW8-10" vertex="1">
          <mxGeometry y="52" width="250" height="26" as="geometry" />
        </mxCell>
        <mxCell id="TtaXq-yxN0j6Y7jyyjYw-2" value="+ parseCommandResult(VsockData): string" style="text;strokeColor=none;fillColor=none;align=left;verticalAlign=top;spacingLeft=4;spacingRight=4;overflow=hidden;rotatable=0;points=[[0,0.5],[1,0.5]];portConstraint=eastwest;whiteSpace=wrap;html=1;" parent="ON-8t-P8QCVqH2d19nW8-10" vertex="1">
          <mxGeometry y="78" width="250" height="26" as="geometry" />
        </mxCell>
        <mxCell id="l84xdTlT6spbiMMmbMdi-1" value="+ toData(RequestType): VSockData" style="text;strokeColor=none;fillColor=none;align=left;verticalAlign=top;spacingLeft=4;spacingRight=4;overflow=hidden;rotatable=0;points=[[0,0.5],[1,0.5]];portConstraint=eastwest;whiteSpace=wrap;html=1;" parent="ON-8t-P8QCVqH2d19nW8-10" vertex="1">
          <mxGeometry y="104" width="250" height="26" as="geometry" />
        </mxCell>
        <mxCell id="9yJWI6utogZ360EGE4Ml-5" value="GuestCommHandler : QObject" style="swimlane;fontStyle=0;childLayout=stackLayout;horizontal=1;startSize=26;fillColor=none;horizontalStack=0;resizeParent=1;resizeParentMax=0;resizeLast=0;collapsible=1;marginBottom=0;whiteSpace=wrap;html=1;" parent="1" vertex="1">
          <mxGeometry x="147.5" y="350" width="295" height="234" as="geometry" />
        </mxCell>
        <mxCell id="9yJWI6utogZ360EGE4Ml-6" value="+ GuestCommManager(cid:uint,port:uint)" style="text;strokeColor=none;fillColor=none;align=left;verticalAlign=top;spacingLeft=4;spacingRight=4;overflow=hidden;rotatable=0;points=[[0,0.5],[1,0.5]];portConstraint=eastwest;whiteSpace=wrap;html=1;" parent="9yJWI6utogZ360EGE4Ml-5" vertex="1">
          <mxGeometry y="26" width="295" height="26" as="geometry" />
        </mxCell>
        <mxCell id="9yJWI6utogZ360EGE4Ml-7" value="+ requestSystemInfo()" style="text;strokeColor=none;fillColor=none;align=left;verticalAlign=top;spacingLeft=4;spacingRight=4;overflow=hidden;rotatable=0;points=[[0,0.5],[1,0.5]];portConstraint=eastwest;whiteSpace=wrap;html=1;" parent="9yJWI6utogZ360EGE4Ml-5" vertex="1">
          <mxGeometry y="52" width="295" height="26" as="geometry" />
        </mxCell>
        <mxCell id="YVDgM9J9vByO-yzrGIgh-2" value="+ requestRuntimeMetric()" style="text;strokeColor=none;fillColor=none;align=left;verticalAlign=top;spacingLeft=4;spacingRight=4;overflow=hidden;rotatable=0;points=[[0,0.5],[1,0.5]];portConstraint=eastwest;whiteSpace=wrap;html=1;" parent="9yJWI6utogZ360EGE4Ml-5" vertex="1">
          <mxGeometry y="78" width="295" height="26" as="geometry" />
        </mxCell>
        <mxCell id="TtaXq-yxN0j6Y7jyyjYw-3" value="+ runCommand(command: string)" style="text;strokeColor=none;fillColor=none;align=left;verticalAlign=top;spacingLeft=4;spacingRight=4;overflow=hidden;rotatable=0;points=[[0,0.5],[1,0.5]];portConstraint=eastwest;whiteSpace=wrap;html=1;" parent="9yJWI6utogZ360EGE4Ml-5" vertex="1">
          <mxGeometry y="104" width="295" height="26" as="geometry" />
        </mxCell>
        <mxCell id="sAKfYUH1RWN1B27a5EHq-9" value="+ connect(): bool" style="text;strokeColor=none;fillColor=none;align=left;verticalAlign=top;spacingLeft=4;spacingRight=4;overflow=hidden;rotatable=0;points=[[0,0.5],[1,0.5]];portConstraint=eastwest;whiteSpace=wrap;html=1;" parent="9yJWI6utogZ360EGE4Ml-5" vertex="1">
          <mxGeometry y="130" width="295" height="26" as="geometry" />
        </mxCell>
        <mxCell id="AEbPqvel7q_em95DNOJ2-3" value="+ runtimeMetricReceived(RuntimeMetric) &lt;i&gt;&amp;lt;&amp;lt;signal&amp;gt;&amp;gt;&lt;/i&gt;" style="text;strokeColor=none;fillColor=none;align=left;verticalAlign=top;spacingLeft=4;spacingRight=4;overflow=hidden;rotatable=0;points=[[0,0.5],[1,0.5]];portConstraint=eastwest;whiteSpace=wrap;html=1;" parent="9yJWI6utogZ360EGE4Ml-5" vertex="1">
          <mxGeometry y="156" width="295" height="26" as="geometry" />
        </mxCell>
        <mxCell id="AEbPqvel7q_em95DNOJ2-4" value="+ systemInfoReceived(SystemInfo) &lt;i&gt;&amp;lt;&amp;lt;signal&amp;gt;&amp;gt;&lt;/i&gt;" style="text;strokeColor=none;fillColor=none;align=left;verticalAlign=top;spacingLeft=4;spacingRight=4;overflow=hidden;rotatable=0;points=[[0,0.5],[1,0.5]];portConstraint=eastwest;whiteSpace=wrap;html=1;" parent="9yJWI6utogZ360EGE4Ml-5" vertex="1">
          <mxGeometry y="182" width="295" height="26" as="geometry" />
        </mxCell>
        <mxCell id="TtaXq-yxN0j6Y7jyyjYw-4" value="+ commandResultReceived(string) &amp;lt;&amp;lt;signal&amp;gt;&amp;gt;" style="text;strokeColor=none;fillColor=none;align=left;verticalAlign=top;spacingLeft=4;spacingRight=4;overflow=hidden;rotatable=0;points=[[0,0.5],[1,0.5]];portConstraint=eastwest;whiteSpace=wrap;html=1;" parent="9yJWI6utogZ360EGE4Ml-5" vertex="1">
          <mxGeometry y="208" width="295" height="26" as="geometry" />
        </mxCell>
        <mxCell id="9yJWI6utogZ360EGE4Ml-14" value="" style="endArrow=diamondThin;endFill=1;endSize=24;html=1;rounded=0;exitX=0.5;exitY=0;exitDx=0;exitDy=0;" parent="1" source="ON-8t-P8QCVqH2d19nW8-10" edge="1">
          <mxGeometry width="160" relative="1" as="geometry">
            <mxPoint x="300" y="473" as="sourcePoint" />
            <mxPoint x="285" y="580" as="targetPoint" />
          </mxGeometry>
        </mxCell>
        <mxCell id="YVDgM9J9vByO-yzrGIgh-1" value="VSockData" style="html=1;whiteSpace=wrap;" parent="1" vertex="1">
          <mxGeometry x="-30" y="473" width="110" height="50" as="geometry" />
        </mxCell>
        <mxCell id="YVDgM9J9vByO-yzrGIgh-3" value="" style="endArrow=diamondThin;endFill=1;endSize=24;html=1;rounded=0;exitX=1.002;exitY=0.786;exitDx=0;exitDy=0;entryX=0;entryY=0.5;entryDx=0;entryDy=0;exitPerimeter=0;" parent="1" source="YVDgM9J9vByO-yzrGIgh-2" target="sAKfYUH1RWN1B27a5EHq-12" edge="1">
          <mxGeometry width="160" relative="1" as="geometry">
            <mxPoint x="420" y="543" as="sourcePoint" />
            <mxPoint x="580" y="543" as="targetPoint" />
            <Array as="points">
              <mxPoint x="460" y="450" />
              <mxPoint x="460" y="547" />
            </Array>
          </mxGeometry>
        </mxCell>
        <mxCell id="YVDgM9J9vByO-yzrGIgh-4" value="*" style="edgeLabel;html=1;align=center;verticalAlign=middle;resizable=0;points=[];" parent="YVDgM9J9vByO-yzrGIgh-3" vertex="1" connectable="0">
          <mxGeometry x="-0.5023" relative="1" as="geometry">
            <mxPoint x="-20" y="11" as="offset" />
          </mxGeometry>
        </mxCell>
        <mxCell id="YVDgM9J9vByO-yzrGIgh-5" value="" style="endArrow=none;html=1;rounded=0;exitX=1;exitY=0.5;exitDx=0;exitDy=0;entryX=-0.005;entryY=-0.077;entryDx=0;entryDy=0;entryPerimeter=0;" parent="1" source="YVDgM9J9vByO-yzrGIgh-1" target="9yJWI6utogZ360EGE4Ml-15" edge="1">
          <mxGeometry width="50" height="50" relative="1" as="geometry">
            <mxPoint x="100" y="523" as="sourcePoint" />
            <mxPoint x="150" y="473" as="targetPoint" />
            <Array as="points">
              <mxPoint x="130" y="498" />
              <mxPoint x="130" y="660" />
            </Array>
          </mxGeometry>
        </mxCell>
        <mxCell id="YVDgM9J9vByO-yzrGIgh-6" value="" style="endArrow=none;html=1;rounded=0;entryX=0.001;entryY=0.724;entryDx=0;entryDy=0;entryPerimeter=0;" parent="1" target="TtaXq-yxN0j6Y7jyyjYw-3" edge="1">
          <mxGeometry width="50" height="50" relative="1" as="geometry">
            <mxPoint x="130" y="503" as="sourcePoint" />
            <mxPoint x="280" y="503" as="targetPoint" />
            <Array as="points">
              <mxPoint x="130" y="473" />
            </Array>
          </mxGeometry>
        </mxCell>
        <mxCell id="mUg6CFjazMkgIIpgM3vE-7" value="MonitorConfiguration" style="swimlane;fontStyle=0;childLayout=stackLayout;horizontal=1;startSize=26;fillColor=none;horizontalStack=0;resizeParent=1;resizeParentMax=0;resizeLast=0;collapsible=1;marginBottom=0;whiteSpace=wrap;html=1;" parent="1" vertex="1">
          <mxGeometry x="225" y="190" width="140" height="104" as="geometry" />
        </mxCell>
        <mxCell id="mUg6CFjazMkgIIpgM3vE-8" value="+ id: uint" style="text;strokeColor=none;fillColor=none;align=left;verticalAlign=top;spacingLeft=4;spacingRight=4;overflow=hidden;rotatable=0;points=[[0,0.5],[1,0.5]];portConstraint=eastwest;whiteSpace=wrap;html=1;" parent="mUg6CFjazMkgIIpgM3vE-7" vertex="1">
          <mxGeometry y="26" width="140" height="26" as="geometry" />
        </mxCell>
        <mxCell id="mUg6CFjazMkgIIpgM3vE-9" value="+ cid: uint" style="text;strokeColor=none;fillColor=none;align=left;verticalAlign=top;spacingLeft=4;spacingRight=4;overflow=hidden;rotatable=0;points=[[0,0.5],[1,0.5]];portConstraint=eastwest;whiteSpace=wrap;html=1;" parent="mUg6CFjazMkgIIpgM3vE-7" vertex="1">
          <mxGeometry y="52" width="140" height="26" as="geometry" />
        </mxCell>
        <mxCell id="mUg6CFjazMkgIIpgM3vE-10" value="+ port: uint" style="text;strokeColor=none;fillColor=none;align=left;verticalAlign=top;spacingLeft=4;spacingRight=4;overflow=hidden;rotatable=0;points=[[0,0.5],[1,0.5]];portConstraint=eastwest;whiteSpace=wrap;html=1;" parent="mUg6CFjazMkgIIpgM3vE-7" vertex="1">
          <mxGeometry y="78" width="140" height="26" as="geometry" />
        </mxCell>
        <mxCell id="RXY_4JS38L3AXtrRbb4Y-16" value="VSockManager : QObject" style="swimlane;fontStyle=0;childLayout=stackLayout;horizontal=1;startSize=26;fillColor=none;horizontalStack=0;resizeParent=1;resizeParentMax=0;resizeLast=0;collapsible=1;marginBottom=0;whiteSpace=wrap;html=1;" parent="1" vertex="1">
          <mxGeometry x="-75" y="200" width="260" height="130" as="geometry" />
        </mxCell>
        <mxCell id="RXY_4JS38L3AXtrRbb4Y-18" value="+ VSockCommHandler(cid: uint,port:uint)" style="text;strokeColor=none;fillColor=none;align=left;verticalAlign=top;spacingLeft=4;spacingRight=4;overflow=hidden;rotatable=0;points=[[0,0.5],[1,0.5]];portConstraint=eastwest;whiteSpace=wrap;html=1;" parent="RXY_4JS38L3AXtrRbb4Y-16" vertex="1">
          <mxGeometry y="26" width="260" height="26" as="geometry" />
        </mxCell>
        <mxCell id="RXY_4JS38L3AXtrRbb4Y-19" value="+ send(VSockData) &lt;i&gt;&amp;lt;&amp;lt;slot&amp;gt;&amp;gt;&lt;/i&gt;" style="text;strokeColor=none;fillColor=none;align=left;verticalAlign=top;spacingLeft=4;spacingRight=4;overflow=hidden;rotatable=0;points=[[0,0.5],[1,0.5]];portConstraint=eastwest;whiteSpace=wrap;html=1;" parent="RXY_4JS38L3AXtrRbb4Y-16" vertex="1">
          <mxGeometry y="52" width="260" height="26" as="geometry" />
        </mxCell>
        <mxCell id="RXY_4JS38L3AXtrRbb4Y-20" value="+ dataReceived(VSockData) &lt;i&gt;&amp;lt;&amp;lt;signal&amp;gt;&amp;gt;&lt;/i&gt;" style="text;strokeColor=none;fillColor=none;align=left;verticalAlign=top;spacingLeft=4;spacingRight=4;overflow=hidden;rotatable=0;points=[[0,0.5],[1,0.5]];portConstraint=eastwest;whiteSpace=wrap;html=1;" parent="RXY_4JS38L3AXtrRbb4Y-16" vertex="1">
          <mxGeometry y="78" width="260" height="26" as="geometry" />
        </mxCell>
        <mxCell id="sAKfYUH1RWN1B27a5EHq-10" value="+ connect(): bool" style="text;strokeColor=none;fillColor=none;align=left;verticalAlign=top;spacingLeft=4;spacingRight=4;overflow=hidden;rotatable=0;points=[[0,0.5],[1,0.5]];portConstraint=eastwest;whiteSpace=wrap;html=1;" parent="RXY_4JS38L3AXtrRbb4Y-16" vertex="1">
          <mxGeometry y="104" width="260" height="26" as="geometry" />
        </mxCell>
        <mxCell id="RXY_4JS38L3AXtrRbb4Y-21" value="" style="endArrow=diamondThin;endFill=1;endSize=24;html=1;rounded=0;entryX=0;entryY=0.5;entryDx=0;entryDy=0;exitX=0.381;exitY=1.115;exitDx=0;exitDy=0;exitPerimeter=0;" parent="1" source="sAKfYUH1RWN1B27a5EHq-10" target="YVDgM9J9vByO-yzrGIgh-2" edge="1">
          <mxGeometry width="160" relative="1" as="geometry">
            <mxPoint x="24" y="373" as="sourcePoint" />
            <mxPoint x="350" y="493" as="targetPoint" />
            <Array as="points">
              <mxPoint x="24" y="443" />
            </Array>
          </mxGeometry>
        </mxCell>
        <mxCell id="RXY_4JS38L3AXtrRbb4Y-22" value="" style="endArrow=none;html=1;rounded=0;exitX=0;exitY=0.5;exitDx=0;exitDy=0;entryX=0;entryY=0.5;entryDx=0;entryDy=0;" parent="1" source="YVDgM9J9vByO-yzrGIgh-1" target="RXY_4JS38L3AXtrRbb4Y-19" edge="1">
          <mxGeometry width="50" height="50" relative="1" as="geometry">
            <mxPoint x="190" y="453" as="sourcePoint" />
            <mxPoint x="-60" y="453" as="targetPoint" />
            <Array as="points">
              <mxPoint x="-100" y="498" />
              <mxPoint x="-100" y="265" />
            </Array>
          </mxGeometry>
        </mxCell>
        <mxCell id="sAKfYUH1RWN1B27a5EHq-4" value="" style="endArrow=diamondThin;endFill=1;endSize=24;html=1;rounded=0;exitX=0.5;exitY=0;exitDx=0;exitDy=0;entryX=0.303;entryY=0.954;entryDx=0;entryDy=0;entryPerimeter=0;" parent="1" source="e58-CH17B1nXSCkSn7R0-1" target="7M-pRt6_DR-2Dj9Xc59V-1" edge="1">
          <mxGeometry width="160" relative="1" as="geometry">
            <mxPoint x="618" y="690" as="sourcePoint" />
            <mxPoint x="620" y="664" as="targetPoint" />
            <Array as="points">
              <mxPoint x="620" y="730" />
              <mxPoint x="620" y="710" />
            </Array>
          </mxGeometry>
        </mxCell>
        <mxCell id="sAKfYUH1RWN1B27a5EHq-7" value="- view" style="edgeLabel;html=1;align=center;verticalAlign=middle;resizable=0;points=[];" parent="sAKfYUH1RWN1B27a5EHq-4" vertex="1" connectable="0">
          <mxGeometry x="-0.6706" y="-1" relative="1" as="geometry">
            <mxPoint x="24" y="24" as="offset" />
          </mxGeometry>
        </mxCell>
        <mxCell id="sAKfYUH1RWN1B27a5EHq-5" value="" style="endArrow=diamondThin;endFill=1;endSize=24;html=1;rounded=0;exitX=0.509;exitY=1.057;exitDx=0;exitDy=0;exitPerimeter=0;" parent="1" edge="1" source="pxjJRgkO8DvIErGBvJpy-2">
          <mxGeometry width="160" relative="1" as="geometry">
            <mxPoint x="692" y="400" as="sourcePoint" />
            <mxPoint x="692" y="430" as="targetPoint" />
            <Array as="points" />
          </mxGeometry>
        </mxCell>
        <mxCell id="sAKfYUH1RWN1B27a5EHq-6" value="- model" style="edgeLabel;html=1;align=center;verticalAlign=middle;resizable=0;points=[];" parent="sAKfYUH1RWN1B27a5EHq-5" vertex="1" connectable="0">
          <mxGeometry x="-0.8715" y="1" relative="1" as="geometry">
            <mxPoint x="27" y="6" as="offset" />
          </mxGeometry>
        </mxCell>
        <mxCell id="0ieYEaEaO_Z329Ly0QsH-1" value="" style="endArrow=diamondThin;endFill=1;endSize=24;html=1;rounded=0;entryX=0.004;entryY=-0.015;entryDx=0;entryDy=0;exitX=0.5;exitY=0;exitDx=0;exitDy=0;entryPerimeter=0;" parent="1" source="mUg6CFjazMkgIIpgM3vE-7" target="0ieYEaEaO_Z329Ly0QsH-5" edge="1">
          <mxGeometry width="160" relative="1" as="geometry">
            <mxPoint x="304" y="357" as="sourcePoint" />
            <mxPoint x="380" y="188" as="targetPoint" />
            <Array as="points">
              <mxPoint x="295" y="126" />
            </Array>
          </mxGeometry>
        </mxCell>
        <mxCell id="0ieYEaEaO_Z329Ly0QsH-2" value="*" style="edgeLabel;html=1;align=center;verticalAlign=middle;resizable=0;points=[];" parent="0ieYEaEaO_Z329Ly0QsH-1" vertex="1" connectable="0">
          <mxGeometry x="-0.8776" y="-1" relative="1" as="geometry">
            <mxPoint x="14" as="offset" />
          </mxGeometry>
        </mxCell>
        <mxCell id="0ieYEaEaO_Z329Ly0QsH-3" value="" style="endArrow=diamondThin;endFill=1;endSize=24;html=1;rounded=0;entryX=0.5;entryY=0;entryDx=0;entryDy=0;exitX=1.002;exitY=0.386;exitDx=0;exitDy=0;exitPerimeter=0;" parent="1" source="0ieYEaEaO_Z329Ly0QsH-4" target="uv72fqtXQBVnHYRg8EGx-1" edge="1">
          <mxGeometry width="160" relative="1" as="geometry">
            <mxPoint x="490" y="188" as="sourcePoint" />
            <mxPoint x="720" y="303" as="targetPoint" />
            <Array as="points">
              <mxPoint x="690" y="120" />
            </Array>
          </mxGeometry>
        </mxCell>
        <mxCell id="0ieYEaEaO_Z329Ly0QsH-4" value="AppConfig" style="swimlane;fontStyle=0;childLayout=stackLayout;horizontal=1;startSize=26;fillColor=none;horizontalStack=0;resizeParent=1;resizeParentMax=0;resizeLast=0;collapsible=1;marginBottom=0;whiteSpace=wrap;html=1;" parent="1" vertex="1">
          <mxGeometry x="365" y="100" width="140" height="52" as="geometry" />
        </mxCell>
        <mxCell id="0ieYEaEaO_Z329Ly0QsH-5" value="+ configPath: string" style="text;strokeColor=none;fillColor=none;align=left;verticalAlign=top;spacingLeft=4;spacingRight=4;overflow=hidden;rotatable=0;points=[[0,0.5],[1,0.5]];portConstraint=eastwest;whiteSpace=wrap;html=1;" parent="0ieYEaEaO_Z329Ly0QsH-4" vertex="1">
          <mxGeometry y="26" width="140" height="26" as="geometry" />
        </mxCell>
        <mxCell id="atMm1cnRg_d4NhfgxRNS-5" value="&amp;lt;&amp;lt;enumeration&amp;gt;&amp;gt;&lt;br&gt;RequestType" style="swimlane;fontStyle=0;align=center;verticalAlign=top;childLayout=stackLayout;horizontal=1;startSize=40;horizontalStack=0;resizeParent=1;resizeParentMax=0;resizeLast=0;collapsible=0;marginBottom=0;html=1;whiteSpace=wrap;" parent="1" vertex="1">
          <mxGeometry x="-50" y="590" width="140" height="130" as="geometry" />
        </mxCell>
        <mxCell id="atMm1cnRg_d4NhfgxRNS-6" value="SystemInfo" style="text;html=1;strokeColor=none;fillColor=none;align=left;verticalAlign=middle;spacingLeft=4;spacingRight=4;overflow=hidden;rotatable=0;points=[[0,0.5],[1,0.5]];portConstraint=eastwest;whiteSpace=wrap;" parent="atMm1cnRg_d4NhfgxRNS-5" vertex="1">
          <mxGeometry y="40" width="140" height="30" as="geometry" />
        </mxCell>
        <mxCell id="atMm1cnRg_d4NhfgxRNS-7" value="RuntimeMetric" style="text;html=1;strokeColor=none;fillColor=none;align=left;verticalAlign=middle;spacingLeft=4;spacingRight=4;overflow=hidden;rotatable=0;points=[[0,0.5],[1,0.5]];portConstraint=eastwest;whiteSpace=wrap;" parent="atMm1cnRg_d4NhfgxRNS-5" vertex="1">
          <mxGeometry y="70" width="140" height="30" as="geometry" />
        </mxCell>
        <mxCell id="TtaXq-yxN0j6Y7jyyjYw-1" value="Command" style="text;html=1;strokeColor=none;fillColor=none;align=left;verticalAlign=middle;spacingLeft=4;spacingRight=4;overflow=hidden;rotatable=0;points=[[0,0.5],[1,0.5]];portConstraint=eastwest;whiteSpace=wrap;" parent="atMm1cnRg_d4NhfgxRNS-5" vertex="1">
          <mxGeometry y="100" width="140" height="30" as="geometry" />
        </mxCell>
        <mxCell id="l84xdTlT6spbiMMmbMdi-3" value="" style="endArrow=none;html=1;rounded=0;exitX=0.469;exitY=1.022;exitDx=0;exitDy=0;exitPerimeter=0;entryX=0.519;entryY=1;entryDx=0;entryDy=0;entryPerimeter=0;" parent="1" source="TtaXq-yxN0j6Y7jyyjYw-1" target="l84xdTlT6spbiMMmbMdi-1" edge="1">
          <mxGeometry width="50" height="50" relative="1" as="geometry">
            <mxPoint x="190" y="690" as="sourcePoint" />
            <mxPoint x="240" y="640" as="targetPoint" />
            <Array as="points">
              <mxPoint x="16" y="780" />
              <mxPoint x="290" y="780" />
              <mxPoint x="290" y="740" />
            </Array>
          </mxGeometry>
        </mxCell>
        <mxCell id="e58-CH17B1nXSCkSn7R0-1" value="View : QObject" style="html=1;whiteSpace=wrap;" parent="1" vertex="1">
          <mxGeometry x="530" y="750" width="180" height="50" as="geometry" />
        </mxCell>
        <mxCell id="pxjJRgkO8DvIErGBvJpy-1" value="" style="endArrow=diamondThin;endFill=0;endSize=24;html=1;rounded=0;entryX=0.5;entryY=0;entryDx=0;entryDy=0;exitX=0.495;exitY=0.981;exitDx=0;exitDy=0;exitPerimeter=0;" edge="1" parent="1" source="mUg6CFjazMkgIIpgM3vE-10" target="9yJWI6utogZ360EGE4Ml-5">
          <mxGeometry width="160" relative="1" as="geometry">
            <mxPoint x="390" y="360" as="sourcePoint" />
            <mxPoint x="550" y="360" as="targetPoint" />
          </mxGeometry>
        </mxCell>
      </root>
    </mxGraphModel>
  </diagram>
  <diagram id="s7WV9XaCeFy6cO-M-lVb" name="view-class">
    <mxGraphModel dx="1185" dy="683" grid="1" gridSize="10" guides="1" tooltips="1" connect="1" arrows="1" fold="1" page="1" pageScale="1" pageWidth="827" pageHeight="1169" math="0" shadow="0">
      <root>
        <mxCell id="0" />
        <mxCell id="1" parent="0" />
        <mxCell id="ub8IcvF7dFHeLaIAeBe6-1" value="View : QObject" style="swimlane;fontStyle=0;childLayout=stackLayout;horizontal=1;startSize=26;fillColor=none;horizontalStack=0;resizeParent=1;resizeParentMax=0;resizeLast=0;collapsible=1;marginBottom=0;whiteSpace=wrap;html=1;" vertex="1" parent="1">
          <mxGeometry x="435" y="280" width="460" height="364" as="geometry" />
        </mxCell>
        <mxCell id="ub8IcvF7dFHeLaIAeBe6-2" value="+ provideRuntimeMetric(id: uint,metric: RuntimeMetric) &amp;lt;&amp;lt;slot&amp;gt;&amp;gt;&amp;nbsp;" style="text;strokeColor=none;fillColor=none;align=left;verticalAlign=top;spacingLeft=4;spacingRight=4;overflow=hidden;rotatable=0;points=[[0,0.5],[1,0.5]];portConstraint=eastwest;whiteSpace=wrap;html=1;" vertex="1" parent="ub8IcvF7dFHeLaIAeBe6-1">
          <mxGeometry y="26" width="460" height="26" as="geometry" />
        </mxCell>
        <mxCell id="ub8IcvF7dFHeLaIAeBe6-3" value="+ provideSystemInfo(id: uint,info: SystemInfo) &amp;lt;&amp;lt;slot&amp;gt;&amp;gt;&amp;nbsp;" style="text;strokeColor=none;fillColor=none;align=left;verticalAlign=top;spacingLeft=4;spacingRight=4;overflow=hidden;rotatable=0;points=[[0,0.5],[1,0.5]];portConstraint=eastwest;whiteSpace=wrap;html=1;" vertex="1" parent="ub8IcvF7dFHeLaIAeBe6-1">
          <mxGeometry y="52" width="460" height="26" as="geometry" />
        </mxCell>
        <mxCell id="ccGL3n33PVrPX3OOC_pO-5" value="+ provideCommandResult(id: uint,result: string) &amp;lt;&amp;lt;slot&amp;gt;&amp;gt;" style="text;strokeColor=none;fillColor=none;align=left;verticalAlign=top;spacingLeft=4;spacingRight=4;overflow=hidden;rotatable=0;points=[[0,0.5],[1,0.5]];portConstraint=eastwest;whiteSpace=wrap;html=1;" vertex="1" parent="ub8IcvF7dFHeLaIAeBe6-1">
          <mxGeometry y="78" width="460" height="26" as="geometry" />
        </mxCell>
        <mxCell id="ub8IcvF7dFHeLaIAeBe6-4" value="+ guestConnected(id: uint) &amp;lt;&amp;lt;slot&amp;gt;&amp;gt;" style="text;strokeColor=none;fillColor=none;align=left;verticalAlign=top;spacingLeft=4;spacingRight=4;overflow=hidden;rotatable=0;points=[[0,0.5],[1,0.5]];portConstraint=eastwest;whiteSpace=wrap;html=1;" vertex="1" parent="ub8IcvF7dFHeLaIAeBe6-1">
          <mxGeometry y="104" width="460" height="26" as="geometry" />
        </mxCell>
        <mxCell id="ub8IcvF7dFHeLaIAeBe6-5" value="+ requestRuntineMetric(id: uint) &amp;lt;&amp;lt;signal&amp;gt;&amp;gt;" style="text;strokeColor=none;fillColor=none;align=left;verticalAlign=top;spacingLeft=4;spacingRight=4;overflow=hidden;rotatable=0;points=[[0,0.5],[1,0.5]];portConstraint=eastwest;whiteSpace=wrap;html=1;" vertex="1" parent="ub8IcvF7dFHeLaIAeBe6-1">
          <mxGeometry y="130" width="460" height="26" as="geometry" />
        </mxCell>
        <mxCell id="ub8IcvF7dFHeLaIAeBe6-6" value="+ requestSystemInfo(id: uint) &amp;lt;&amp;lt;signal&amp;gt;&amp;gt;" style="text;strokeColor=none;fillColor=none;align=left;verticalAlign=top;spacingLeft=4;spacingRight=4;overflow=hidden;rotatable=0;points=[[0,0.5],[1,0.5]];portConstraint=eastwest;whiteSpace=wrap;html=1;" vertex="1" parent="ub8IcvF7dFHeLaIAeBe6-1">
          <mxGeometry y="156" width="460" height="26" as="geometry" />
        </mxCell>
        <mxCell id="ub8IcvF7dFHeLaIAeBe6-7" value="+ configurationModified(config: AppConfig) &amp;lt;&amp;lt;signal&amp;gt;&amp;gt;" style="text;strokeColor=none;fillColor=none;align=left;verticalAlign=top;spacingLeft=4;spacingRight=4;overflow=hidden;rotatable=0;points=[[0,0.5],[1,0.5]];portConstraint=eastwest;whiteSpace=wrap;html=1;" vertex="1" parent="ub8IcvF7dFHeLaIAeBe6-1">
          <mxGeometry y="182" width="460" height="26" as="geometry" />
        </mxCell>
        <mxCell id="ub8IcvF7dFHeLaIAeBe6-8" value="+ connectToClient(id: uint) &amp;lt;&amp;lt;signal&amp;gt;&amp;gt;" style="text;strokeColor=none;fillColor=none;align=left;verticalAlign=top;spacingLeft=4;spacingRight=4;overflow=hidden;rotatable=0;points=[[0,0.5],[1,0.5]];portConstraint=eastwest;whiteSpace=wrap;html=1;" vertex="1" parent="ub8IcvF7dFHeLaIAeBe6-1">
          <mxGeometry y="208" width="460" height="26" as="geometry" />
        </mxCell>
        <mxCell id="ub8IcvF7dFHeLaIAeBe6-9" value="+ searchForProcess(metric: RuntimeMetric,uid: uint) &amp;lt;&amp;lt;slot&amp;gt;&amp;gt;" style="text;strokeColor=none;fillColor=none;align=left;verticalAlign=top;spacingLeft=4;spacingRight=4;overflow=hidden;rotatable=0;points=[[0,0.5],[1,0.5]];portConstraint=eastwest;whiteSpace=wrap;html=1;" vertex="1" parent="ub8IcvF7dFHeLaIAeBe6-1">
          <mxGeometry y="234" width="460" height="26" as="geometry" />
        </mxCell>
        <mxCell id="ub8IcvF7dFHeLaIAeBe6-10" value="+ filterProcesses(metric: RuntimeMetric,filter: (ProcessInfo) -&amp;gt; bool) &amp;lt;&amp;lt;slot&amp;gt;&amp;gt;" style="text;strokeColor=none;fillColor=none;align=left;verticalAlign=top;spacingLeft=4;spacingRight=4;overflow=hidden;rotatable=0;points=[[0,0.5],[1,0.5]];portConstraint=eastwest;whiteSpace=wrap;html=1;" vertex="1" parent="ub8IcvF7dFHeLaIAeBe6-1">
          <mxGeometry y="260" width="460" height="26" as="geometry" />
        </mxCell>
        <mxCell id="ub8IcvF7dFHeLaIAeBe6-11" value="+ searchForThread(metric: RuntimeMetric,uid: uint) &amp;lt;&amp;lt;slot&amp;gt;&amp;gt;" style="text;strokeColor=none;fillColor=none;align=left;verticalAlign=top;spacingLeft=4;spacingRight=4;overflow=hidden;rotatable=0;points=[[0,0.5],[1,0.5]];portConstraint=eastwest;whiteSpace=wrap;html=1;" vertex="1" parent="ub8IcvF7dFHeLaIAeBe6-1">
          <mxGeometry y="286" width="460" height="26" as="geometry" />
        </mxCell>
        <mxCell id="ub8IcvF7dFHeLaIAeBe6-12" value="+ filterThreads(metric: RuntimeMetric,filter: (ThreadInfo) -&amp;gt; bool) &amp;lt;&amp;lt;slot&amp;gt;&amp;gt;" style="text;strokeColor=none;fillColor=none;align=left;verticalAlign=top;spacingLeft=4;spacingRight=4;overflow=hidden;rotatable=0;points=[[0,0.5],[1,0.5]];portConstraint=eastwest;whiteSpace=wrap;html=1;" vertex="1" parent="ub8IcvF7dFHeLaIAeBe6-1">
          <mxGeometry y="312" width="460" height="26" as="geometry" />
        </mxCell>
        <mxCell id="TjwEN6eNN5o4bJGSjOpb-1" value="+ runCommand(id :uint,string command) &amp;lt;&amp;lt;signal&amp;gt;&amp;gt;" style="text;strokeColor=none;fillColor=none;align=left;verticalAlign=top;spacingLeft=4;spacingRight=4;overflow=hidden;rotatable=0;points=[[0,0.5],[1,0.5]];portConstraint=eastwest;whiteSpace=wrap;html=1;" vertex="1" parent="ub8IcvF7dFHeLaIAeBe6-1">
          <mxGeometry y="338" width="460" height="26" as="geometry" />
        </mxCell>
        <mxCell id="ub8IcvF7dFHeLaIAeBe6-13" value="GuestOverviewWidget :&lt;br&gt;QWidget" style="html=1;whiteSpace=wrap;" vertex="1" parent="1">
          <mxGeometry x="550" y="735.9200000000001" width="170" height="50" as="geometry" />
        </mxCell>
        <mxCell id="ub8IcvF7dFHeLaIAeBe6-14" value="GuestCPUWidget" style="html=1;whiteSpace=wrap;" vertex="1" parent="1">
          <mxGeometry x="265" y="831.9200000000001" width="170" height="50" as="geometry" />
        </mxCell>
        <mxCell id="ub8IcvF7dFHeLaIAeBe6-15" value="GuestMemoryWidget" style="html=1;whiteSpace=wrap;" vertex="1" parent="1">
          <mxGeometry x="830" y="831.9200000000001" width="170" height="50" as="geometry" />
        </mxCell>
        <mxCell id="ub8IcvF7dFHeLaIAeBe6-16" value="GuestCANWidget" style="html=1;whiteSpace=wrap;" vertex="1" parent="1">
          <mxGeometry x="645" y="831.9200000000001" width="170" height="50" as="geometry" />
        </mxCell>
        <mxCell id="ub8IcvF7dFHeLaIAeBe6-17" value="GuestProcWidget" style="html=1;whiteSpace=wrap;" vertex="1" parent="1">
          <mxGeometry x="460" y="831.9200000000001" width="170" height="50" as="geometry" />
        </mxCell>
        <mxCell id="ub8IcvF7dFHeLaIAeBe6-18" value="" style="endArrow=diamondThin;endFill=0;endSize=24;html=1;rounded=0;exitX=0.5;exitY=0;exitDx=0;exitDy=0;entryX=0.437;entryY=0.999;entryDx=0;entryDy=0;entryPerimeter=0;" edge="1" parent="1" source="ub8IcvF7dFHeLaIAeBe6-13" target="TjwEN6eNN5o4bJGSjOpb-1">
          <mxGeometry width="160" relative="1" as="geometry">
            <mxPoint x="470" y="602" as="sourcePoint" />
            <mxPoint x="635" y="620" as="targetPoint" />
            <Array as="points" />
          </mxGeometry>
        </mxCell>
        <mxCell id="ub8IcvF7dFHeLaIAeBe6-19" value="*" style="edgeLabel;html=1;align=center;verticalAlign=middle;resizable=0;points=[];" vertex="1" connectable="0" parent="ub8IcvF7dFHeLaIAeBe6-18">
          <mxGeometry x="-0.3201" y="-1" relative="1" as="geometry">
            <mxPoint x="19" y="2" as="offset" />
          </mxGeometry>
        </mxCell>
        <mxCell id="ub8IcvF7dFHeLaIAeBe6-20" value="" style="endArrow=diamondThin;endFill=0;endSize=24;html=1;rounded=0;entryX=0.5;entryY=1;entryDx=0;entryDy=0;exitX=0.5;exitY=0;exitDx=0;exitDy=0;" edge="1" parent="1" source="ub8IcvF7dFHeLaIAeBe6-14" target="ub8IcvF7dFHeLaIAeBe6-13">
          <mxGeometry width="160" relative="1" as="geometry">
            <mxPoint x="390" y="718.9200000000001" as="sourcePoint" />
            <mxPoint x="550" y="718.9200000000001" as="targetPoint" />
            <Array as="points">
              <mxPoint x="350" y="815.9200000000001" />
              <mxPoint x="635" y="815.9200000000001" />
            </Array>
          </mxGeometry>
        </mxCell>
        <mxCell id="ub8IcvF7dFHeLaIAeBe6-21" value="" style="endArrow=none;html=1;rounded=0;entryX=0.528;entryY=0.003;entryDx=0;entryDy=0;entryPerimeter=0;" edge="1" parent="1" target="ub8IcvF7dFHeLaIAeBe6-16">
          <mxGeometry width="50" height="50" relative="1" as="geometry">
            <mxPoint x="630" y="815.9200000000001" as="sourcePoint" />
            <mxPoint x="610" y="791.9200000000001" as="targetPoint" />
            <Array as="points">
              <mxPoint x="735" y="815.9200000000001" />
            </Array>
          </mxGeometry>
        </mxCell>
        <mxCell id="ub8IcvF7dFHeLaIAeBe6-22" value="" style="endArrow=none;html=1;rounded=0;entryX=0.5;entryY=0;entryDx=0;entryDy=0;" edge="1" parent="1" target="ub8IcvF7dFHeLaIAeBe6-15">
          <mxGeometry width="50" height="50" relative="1" as="geometry">
            <mxPoint x="735" y="815.9200000000001" as="sourcePoint" />
            <mxPoint x="610" y="791.9200000000001" as="targetPoint" />
            <Array as="points">
              <mxPoint x="915" y="815.9200000000001" />
            </Array>
          </mxGeometry>
        </mxCell>
        <mxCell id="ub8IcvF7dFHeLaIAeBe6-23" value="MainMenu :&lt;br&gt;QWidget" style="html=1;whiteSpace=wrap;" vertex="1" parent="1">
          <mxGeometry x="280" y="386" width="110" height="50" as="geometry" />
        </mxCell>
        <mxCell id="ub8IcvF7dFHeLaIAeBe6-24" value="MonitorConfigurationMenu :&lt;br&gt;QWidget" style="html=1;whiteSpace=wrap;" vertex="1" parent="1">
          <mxGeometry x="110" y="500" width="160" height="50" as="geometry" />
        </mxCell>
        <mxCell id="ub8IcvF7dFHeLaIAeBe6-25" value="" style="endArrow=diamondThin;endFill=0;endSize=24;html=1;rounded=0;exitX=1;exitY=0.5;exitDx=0;exitDy=0;entryX=0.004;entryY=0.064;entryDx=0;entryDy=0;entryPerimeter=0;" edge="1" parent="1" source="ub8IcvF7dFHeLaIAeBe6-23" target="ub8IcvF7dFHeLaIAeBe6-5">
          <mxGeometry width="160" relative="1" as="geometry">
            <mxPoint x="270" y="486.64" as="sourcePoint" />
            <mxPoint x="430" y="486.64" as="targetPoint" />
          </mxGeometry>
        </mxCell>
        <mxCell id="ub8IcvF7dFHeLaIAeBe6-26" value="" style="endArrow=diamondThin;endFill=1;endSize=24;html=1;rounded=0;entryX=0.5;entryY=1;entryDx=0;entryDy=0;exitX=0.5;exitY=0;exitDx=0;exitDy=0;" edge="1" parent="1" source="ub8IcvF7dFHeLaIAeBe6-24" target="ub8IcvF7dFHeLaIAeBe6-28">
          <mxGeometry width="160" relative="1" as="geometry">
            <mxPoint x="480" y="562" as="sourcePoint" />
            <mxPoint x="640" y="562" as="targetPoint" />
            <Array as="points" />
          </mxGeometry>
        </mxCell>
        <mxCell id="ub8IcvF7dFHeLaIAeBe6-27" value="*" style="edgeLabel;html=1;align=center;verticalAlign=middle;resizable=0;points=[];" vertex="1" connectable="0" parent="ub8IcvF7dFHeLaIAeBe6-26">
          <mxGeometry x="0.2" y="-4" relative="1" as="geometry">
            <mxPoint y="14" as="offset" />
          </mxGeometry>
        </mxCell>
        <mxCell id="ub8IcvF7dFHeLaIAeBe6-28" value="SettingsWidget :&lt;br&gt;QWidget" style="html=1;whiteSpace=wrap;" vertex="1" parent="1">
          <mxGeometry x="135" y="386" width="110" height="50" as="geometry" />
        </mxCell>
        <mxCell id="ub8IcvF7dFHeLaIAeBe6-29" value="" style="endArrow=diamondThin;endFill=0;endSize=24;html=1;rounded=0;exitX=1;exitY=0.5;exitDx=0;exitDy=0;entryX=0;entryY=0.5;entryDx=0;entryDy=0;" edge="1" parent="1" source="ub8IcvF7dFHeLaIAeBe6-28" target="ub8IcvF7dFHeLaIAeBe6-23">
          <mxGeometry width="160" relative="1" as="geometry">
            <mxPoint x="275" y="459" as="sourcePoint" />
            <mxPoint x="435" y="459" as="targetPoint" />
          </mxGeometry>
        </mxCell>
        <mxCell id="ccGL3n33PVrPX3OOC_pO-2" value="" style="endArrow=none;html=1;rounded=0;entryX=0.5;entryY=0;entryDx=0;entryDy=0;" edge="1" parent="1" target="ub8IcvF7dFHeLaIAeBe6-17">
          <mxGeometry width="50" height="50" relative="1" as="geometry">
            <mxPoint x="545" y="816.9200000000001" as="sourcePoint" />
            <mxPoint x="620" y="766.9200000000001" as="targetPoint" />
            <Array as="points">
              <mxPoint x="545" y="826.9200000000001" />
            </Array>
          </mxGeometry>
        </mxCell>
        <mxCell id="ccGL3n33PVrPX3OOC_pO-3" value="AppConfig" style="html=1;whiteSpace=wrap;" vertex="1" parent="1">
          <mxGeometry x="500" y="150" width="110" height="50" as="geometry" />
        </mxCell>
        <mxCell id="ccGL3n33PVrPX3OOC_pO-4" value="" style="endArrow=diamondThin;endFill=0;endSize=24;html=1;rounded=0;entryX=0.5;entryY=0;entryDx=0;entryDy=0;" edge="1" parent="1" target="ub8IcvF7dFHeLaIAeBe6-1">
          <mxGeometry width="160" relative="1" as="geometry">
            <mxPoint x="610" y="174.58" as="sourcePoint" />
            <mxPoint x="770" y="174.58" as="targetPoint" />
            <Array as="points">
              <mxPoint x="665" y="175" />
            </Array>
          </mxGeometry>
        </mxCell>
      </root>
    </mxGraphModel>
  </diagram>
  <diagram id="TiHdoLAORwG7svaAvUQs" name="host-seq">
    <mxGraphModel dx="1803" dy="1040" grid="1" gridSize="10" guides="1" tooltips="1" connect="1" arrows="1" fold="1" page="1" pageScale="1" pageWidth="1920" pageHeight="1200" math="0" shadow="0">
      <root>
        <mxCell id="0" />
        <mxCell id="1" parent="0" />
        <mxCell id="9x1rIorCF1FIMOIdPCBD-1" value="" style="group" parent="1" vertex="1" connectable="0">
          <mxGeometry x="270" y="140" width="100" height="500" as="geometry" />
        </mxCell>
        <mxCell id="9x1rIorCF1FIMOIdPCBD-2" value="View" style="html=1;whiteSpace=wrap;" parent="9x1rIorCF1FIMOIdPCBD-1" vertex="1">
          <mxGeometry width="100" height="46.51162790697675" as="geometry" />
        </mxCell>
        <mxCell id="9x1rIorCF1FIMOIdPCBD-3" value="" style="endArrow=none;dashed=1;html=1;rounded=0;entryX=0.5;entryY=1;entryDx=0;entryDy=0;" parent="9x1rIorCF1FIMOIdPCBD-1" target="9x1rIorCF1FIMOIdPCBD-2" edge="1">
          <mxGeometry width="50" height="50" relative="1" as="geometry">
            <mxPoint x="50" y="780" as="sourcePoint" />
            <mxPoint x="480" y="337.2093023255814" as="targetPoint" />
          </mxGeometry>
        </mxCell>
        <mxCell id="Zy_rhjZ_hD4VBQscMoqe-18" value="" style="html=1;points=[[0,0,0,0,5],[0,1,0,0,-5],[1,0,0,0,5],[1,1,0,0,-5]];perimeter=orthogonalPerimeter;outlineConnect=0;targetShapes=umlLifeline;portConstraint=eastwest;newEdgeStyle={&quot;curved&quot;:0,&quot;rounded&quot;:0};" parent="9x1rIorCF1FIMOIdPCBD-1" vertex="1">
          <mxGeometry x="40" y="80" width="10" height="60" as="geometry" />
        </mxCell>
        <mxCell id="Zy_rhjZ_hD4VBQscMoqe-50" value="" style="html=1;points=[[0,0,0,0,5],[0,1,0,0,-5],[1,0,0,0,5],[1,1,0,0,-5]];perimeter=orthogonalPerimeter;outlineConnect=0;targetShapes=umlLifeline;portConstraint=eastwest;newEdgeStyle={&quot;curved&quot;:0,&quot;rounded&quot;:0};" parent="9x1rIorCF1FIMOIdPCBD-1" vertex="1">
          <mxGeometry x="40" y="440" width="10" height="20" as="geometry" />
        </mxCell>
        <mxCell id="oPEOU6dO4zcKRsclDfF3-1" value="" style="group" parent="1" vertex="1" connectable="0">
          <mxGeometry x="540" y="140" width="100" height="500" as="geometry" />
        </mxCell>
        <mxCell id="oPEOU6dO4zcKRsclDfF3-2" value="Controller" style="html=1;whiteSpace=wrap;" parent="oPEOU6dO4zcKRsclDfF3-1" vertex="1">
          <mxGeometry width="100" height="46.51162790697675" as="geometry" />
        </mxCell>
        <mxCell id="oPEOU6dO4zcKRsclDfF3-3" value="" style="endArrow=none;dashed=1;html=1;rounded=0;entryX=0.5;entryY=1;entryDx=0;entryDy=0;" parent="oPEOU6dO4zcKRsclDfF3-1" target="oPEOU6dO4zcKRsclDfF3-2" edge="1">
          <mxGeometry width="50" height="50" relative="1" as="geometry">
            <mxPoint x="50" y="780" as="sourcePoint" />
            <mxPoint x="480" y="337.2093023255814" as="targetPoint" />
          </mxGeometry>
        </mxCell>
        <mxCell id="oPEOU6dO4zcKRsclDfF3-13" value="" style="html=1;points=[[0,0,0,0,5],[0,1,0,0,-5],[1,0,0,0,5],[1,1,0,0,-5]];perimeter=orthogonalPerimeter;outlineConnect=0;targetShapes=umlLifeline;portConstraint=eastwest;newEdgeStyle={&quot;curved&quot;:0,&quot;rounded&quot;:0};" parent="oPEOU6dO4zcKRsclDfF3-1" vertex="1">
          <mxGeometry x="40" y="80" width="10" height="60" as="geometry" />
        </mxCell>
        <mxCell id="oPEOU6dO4zcKRsclDfF3-14" value="connectToClient" style="html=1;verticalAlign=bottom;startArrow=oval;endArrow=block;startSize=8;curved=0;rounded=0;entryX=0;entryY=0;entryDx=0;entryDy=5;" parent="oPEOU6dO4zcKRsclDfF3-1" target="oPEOU6dO4zcKRsclDfF3-13" edge="1">
          <mxGeometry relative="1" as="geometry">
            <mxPoint x="-220" y="85" as="sourcePoint" />
          </mxGeometry>
        </mxCell>
        <mxCell id="Zy_rhjZ_hD4VBQscMoqe-19" value="" style="html=1;points=[[0,0,0,0,5],[0,1,0,0,-5],[1,0,0,0,5],[1,1,0,0,-5]];perimeter=orthogonalPerimeter;outlineConnect=0;targetShapes=umlLifeline;portConstraint=eastwest;newEdgeStyle={&quot;curved&quot;:0,&quot;rounded&quot;:0};" parent="oPEOU6dO4zcKRsclDfF3-1" vertex="1">
          <mxGeometry x="40" y="240" width="10" height="80" as="geometry" />
        </mxCell>
        <mxCell id="Zy_rhjZ_hD4VBQscMoqe-20" value="requestRuntimeMetric" style="html=1;verticalAlign=bottom;startArrow=oval;endArrow=block;startSize=8;curved=0;rounded=0;entryX=0;entryY=0;entryDx=0;entryDy=5;" parent="oPEOU6dO4zcKRsclDfF3-1" target="Zy_rhjZ_hD4VBQscMoqe-19" edge="1">
          <mxGeometry relative="1" as="geometry">
            <mxPoint x="-220" y="245" as="sourcePoint" />
          </mxGeometry>
        </mxCell>
        <mxCell id="Zy_rhjZ_hD4VBQscMoqe-49" value="" style="html=1;points=[[0,0,0,0,5],[0,1,0,0,-5],[1,0,0,0,5],[1,1,0,0,-5]];perimeter=orthogonalPerimeter;outlineConnect=0;targetShapes=umlLifeline;portConstraint=eastwest;newEdgeStyle={&quot;curved&quot;:0,&quot;rounded&quot;:0};" parent="oPEOU6dO4zcKRsclDfF3-1" vertex="1">
          <mxGeometry x="40" y="430" width="10" height="20" as="geometry" />
        </mxCell>
        <mxCell id="oPEOU6dO4zcKRsclDfF3-5" value="" style="group" parent="1" vertex="1" connectable="0">
          <mxGeometry x="830" y="140" width="100" height="500" as="geometry" />
        </mxCell>
        <mxCell id="oPEOU6dO4zcKRsclDfF3-6" value="Model" style="html=1;whiteSpace=wrap;" parent="oPEOU6dO4zcKRsclDfF3-5" vertex="1">
          <mxGeometry width="100" height="46.51162790697675" as="geometry" />
        </mxCell>
        <mxCell id="oPEOU6dO4zcKRsclDfF3-7" value="" style="endArrow=none;dashed=1;html=1;rounded=0;entryX=0.5;entryY=1;entryDx=0;entryDy=0;" parent="oPEOU6dO4zcKRsclDfF3-5" target="oPEOU6dO4zcKRsclDfF3-6" edge="1">
          <mxGeometry width="50" height="50" relative="1" as="geometry">
            <mxPoint x="50" y="780" as="sourcePoint" />
            <mxPoint x="480" y="337.2093023255814" as="targetPoint" />
          </mxGeometry>
        </mxCell>
        <mxCell id="quBtWnoPmfWJQUGBPUN5-4" value="" style="html=1;points=[[0,0,0,0,5],[0,1,0,0,-5],[1,0,0,0,5],[1,1,0,0,-5]];perimeter=orthogonalPerimeter;outlineConnect=0;targetShapes=umlLifeline;portConstraint=eastwest;newEdgeStyle={&quot;curved&quot;:0,&quot;rounded&quot;:0};" parent="oPEOU6dO4zcKRsclDfF3-5" vertex="1">
          <mxGeometry x="40" y="80" width="10" height="50" as="geometry" />
        </mxCell>
        <mxCell id="Zy_rhjZ_hD4VBQscMoqe-23" value="" style="html=1;points=[[0,0,0,0,5],[0,1,0,0,-5],[1,0,0,0,5],[1,1,0,0,-5]];perimeter=orthogonalPerimeter;outlineConnect=0;targetShapes=umlLifeline;portConstraint=eastwest;newEdgeStyle={&quot;curved&quot;:0,&quot;rounded&quot;:0};" parent="oPEOU6dO4zcKRsclDfF3-5" vertex="1">
          <mxGeometry x="40" y="240" width="10" height="80" as="geometry" />
        </mxCell>
        <mxCell id="Zy_rhjZ_hD4VBQscMoqe-24" value="requestRuntimeMetric" style="html=1;verticalAlign=bottom;endArrow=block;curved=0;rounded=0;entryX=0;entryY=0;entryDx=0;entryDy=5;exitX=1;exitY=0;exitDx=0;exitDy=5;exitPerimeter=0;" parent="oPEOU6dO4zcKRsclDfF3-5" source="Zy_rhjZ_hD4VBQscMoqe-19" target="Zy_rhjZ_hD4VBQscMoqe-23" edge="1">
          <mxGeometry relative="1" as="geometry">
            <mxPoint x="-30" y="245" as="sourcePoint" />
          </mxGeometry>
        </mxCell>
        <mxCell id="Zy_rhjZ_hD4VBQscMoqe-48" value="" style="html=1;points=[[0,0,0,0,5],[0,1,0,0,-5],[1,0,0,0,5],[1,1,0,0,-5]];perimeter=orthogonalPerimeter;outlineConnect=0;targetShapes=umlLifeline;portConstraint=eastwest;newEdgeStyle={&quot;curved&quot;:0,&quot;rounded&quot;:0};" parent="oPEOU6dO4zcKRsclDfF3-5" vertex="1">
          <mxGeometry x="40" y="430" width="10" height="20" as="geometry" />
        </mxCell>
        <mxCell id="oPEOU6dO4zcKRsclDfF3-9" value="" style="group" parent="1" vertex="1" connectable="0">
          <mxGeometry x="1100" y="140" width="100" height="500" as="geometry" />
        </mxCell>
        <mxCell id="oPEOU6dO4zcKRsclDfF3-10" value="GuestCommManager" style="html=1;whiteSpace=wrap;" parent="oPEOU6dO4zcKRsclDfF3-9" vertex="1">
          <mxGeometry x="-20" width="120" height="46.51" as="geometry" />
        </mxCell>
        <mxCell id="oPEOU6dO4zcKRsclDfF3-11" value="" style="endArrow=none;dashed=1;html=1;rounded=0;entryX=0.5;entryY=1;entryDx=0;entryDy=0;" parent="oPEOU6dO4zcKRsclDfF3-9" target="oPEOU6dO4zcKRsclDfF3-10" edge="1">
          <mxGeometry width="50" height="50" relative="1" as="geometry">
            <mxPoint x="40" y="770" as="sourcePoint" />
            <mxPoint x="480" y="337.2093023255814" as="targetPoint" />
          </mxGeometry>
        </mxCell>
        <mxCell id="Zy_rhjZ_hD4VBQscMoqe-9" value="" style="html=1;points=[[0,0,0,0,5],[0,1,0,0,-5],[1,0,0,0,5],[1,1,0,0,-5]];perimeter=orthogonalPerimeter;outlineConnect=0;targetShapes=umlLifeline;portConstraint=eastwest;newEdgeStyle={&quot;curved&quot;:0,&quot;rounded&quot;:0};" parent="oPEOU6dO4zcKRsclDfF3-9" vertex="1">
          <mxGeometry x="30" y="80" width="10" height="50" as="geometry" />
        </mxCell>
        <mxCell id="Zy_rhjZ_hD4VBQscMoqe-10" value="connect" style="html=1;verticalAlign=bottom;endArrow=block;curved=0;rounded=0;entryX=0;entryY=0;entryDx=0;entryDy=5;" parent="oPEOU6dO4zcKRsclDfF3-9" target="Zy_rhjZ_hD4VBQscMoqe-9" edge="1">
          <mxGeometry relative="1" as="geometry">
            <mxPoint x="-220" y="85" as="sourcePoint" />
          </mxGeometry>
        </mxCell>
        <mxCell id="Zy_rhjZ_hD4VBQscMoqe-33" value="" style="html=1;points=[[0,0,0,0,5],[0,1,0,0,-5],[1,0,0,0,5],[1,1,0,0,-5]];perimeter=orthogonalPerimeter;outlineConnect=0;targetShapes=umlLifeline;portConstraint=eastwest;newEdgeStyle={&quot;curved&quot;:0,&quot;rounded&quot;:0};" parent="oPEOU6dO4zcKRsclDfF3-9" vertex="1">
          <mxGeometry x="30" y="240" width="10" height="80" as="geometry" />
        </mxCell>
        <mxCell id="Zy_rhjZ_hD4VBQscMoqe-34" value="requestRuntimeMetric" style="html=1;verticalAlign=bottom;startArrow=oval;endArrow=block;startSize=8;curved=0;rounded=0;entryX=0;entryY=0;entryDx=0;entryDy=5;" parent="oPEOU6dO4zcKRsclDfF3-9" target="Zy_rhjZ_hD4VBQscMoqe-33" edge="1">
          <mxGeometry relative="1" as="geometry">
            <mxPoint x="-220" y="245" as="sourcePoint" />
          </mxGeometry>
        </mxCell>
        <mxCell id="Zy_rhjZ_hD4VBQscMoqe-44" value="" style="html=1;points=[[0,0,0,0,5],[0,1,0,0,-5],[1,0,0,0,5],[1,1,0,0,-5]];perimeter=orthogonalPerimeter;outlineConnect=0;targetShapes=umlLifeline;portConstraint=eastwest;newEdgeStyle={&quot;curved&quot;:0,&quot;rounded&quot;:0};" parent="oPEOU6dO4zcKRsclDfF3-9" vertex="1">
          <mxGeometry x="30" y="370" width="10" height="80" as="geometry" />
        </mxCell>
        <mxCell id="Zy_rhjZ_hD4VBQscMoqe-1" value="" style="group" parent="1" connectable="0" vertex="1">
          <mxGeometry x="1300" y="140" width="100" height="630" as="geometry" />
        </mxCell>
        <mxCell id="Zy_rhjZ_hD4VBQscMoqe-3" value="" style="endArrow=none;dashed=1;html=1;rounded=0;entryX=0.5;entryY=1;entryDx=0;entryDy=0;" parent="Zy_rhjZ_hD4VBQscMoqe-1" target="Zy_rhjZ_hD4VBQscMoqe-2" edge="1">
          <mxGeometry width="50" height="50" relative="1" as="geometry">
            <mxPoint x="70" y="700" as="sourcePoint" />
            <mxPoint x="480" y="337.2093023255814" as="targetPoint" />
          </mxGeometry>
        </mxCell>
        <mxCell id="Zy_rhjZ_hD4VBQscMoqe-37" value="" style="html=1;points=[[0,0,0,0,5],[0,1,0,0,-5],[1,0,0,0,5],[1,1,0,0,-5]];perimeter=orthogonalPerimeter;outlineConnect=0;targetShapes=umlLifeline;portConstraint=eastwest;newEdgeStyle={&quot;curved&quot;:0,&quot;rounded&quot;:0};" parent="Zy_rhjZ_hD4VBQscMoqe-1" vertex="1">
          <mxGeometry x="60" y="240" width="10" height="40" as="geometry" />
        </mxCell>
        <mxCell id="Zy_rhjZ_hD4VBQscMoqe-45" value="" style="html=1;points=[[0,0,0,0,5],[0,1,0,0,-5],[1,0,0,0,5],[1,1,0,0,-5]];perimeter=orthogonalPerimeter;outlineConnect=0;targetShapes=umlLifeline;portConstraint=eastwest;newEdgeStyle={&quot;curved&quot;:0,&quot;rounded&quot;:0};" parent="Zy_rhjZ_hD4VBQscMoqe-1" vertex="1">
          <mxGeometry x="60" y="400" width="10" height="50" as="geometry" />
        </mxCell>
        <mxCell id="RbIPxrVX7tlys87bnuAM-1" value="" style="html=1;points=[[0,0,0,0,5],[0,1,0,0,-5],[1,0,0,0,5],[1,1,0,0,-5]];perimeter=orthogonalPerimeter;outlineConnect=0;targetShapes=umlLifeline;portConstraint=eastwest;newEdgeStyle={&quot;curved&quot;:0,&quot;rounded&quot;:0};" vertex="1" parent="Zy_rhjZ_hD4VBQscMoqe-1">
          <mxGeometry x="60" y="550" width="10" height="40" as="geometry" />
        </mxCell>
        <mxCell id="Zy_rhjZ_hD4VBQscMoqe-2" value="ResponseParser" style="html=1;whiteSpace=wrap;" parent="1" vertex="1">
          <mxGeometry x="1310" y="140" width="120" height="46.51" as="geometry" />
        </mxCell>
        <mxCell id="Zy_rhjZ_hD4VBQscMoqe-4" value="" style="group" parent="1" connectable="0" vertex="1">
          <mxGeometry x="1560" y="140" width="100" height="500" as="geometry" />
        </mxCell>
        <mxCell id="Zy_rhjZ_hD4VBQscMoqe-5" value="VSockCommHandler" style="html=1;whiteSpace=wrap;" parent="Zy_rhjZ_hD4VBQscMoqe-4" vertex="1">
          <mxGeometry x="-20" width="120" height="46.51" as="geometry" />
        </mxCell>
        <mxCell id="Zy_rhjZ_hD4VBQscMoqe-6" value="" style="endArrow=none;dashed=1;html=1;rounded=0;entryX=0.5;entryY=1;entryDx=0;entryDy=0;" parent="Zy_rhjZ_hD4VBQscMoqe-4" target="Zy_rhjZ_hD4VBQscMoqe-5" edge="1">
          <mxGeometry width="50" height="50" relative="1" as="geometry">
            <mxPoint x="40" y="700" as="sourcePoint" />
            <mxPoint x="480" y="337.2093023255814" as="targetPoint" />
          </mxGeometry>
        </mxCell>
        <mxCell id="Zy_rhjZ_hD4VBQscMoqe-13" value="" style="html=1;points=[[0,0,0,0,5],[0,1,0,0,-5],[1,0,0,0,5],[1,1,0,0,-5]];perimeter=orthogonalPerimeter;outlineConnect=0;targetShapes=umlLifeline;portConstraint=eastwest;newEdgeStyle={&quot;curved&quot;:0,&quot;rounded&quot;:0};" parent="Zy_rhjZ_hD4VBQscMoqe-4" vertex="1">
          <mxGeometry x="30" y="80" width="10" height="50" as="geometry" />
        </mxCell>
        <mxCell id="Zy_rhjZ_hD4VBQscMoqe-40" value="" style="html=1;points=[[0,0,0,0,5],[0,1,0,0,-5],[1,0,0,0,5],[1,1,0,0,-5]];perimeter=orthogonalPerimeter;outlineConnect=0;targetShapes=umlLifeline;portConstraint=eastwest;newEdgeStyle={&quot;curved&quot;:0,&quot;rounded&quot;:0};" parent="Zy_rhjZ_hD4VBQscMoqe-4" vertex="1">
          <mxGeometry x="30" y="300" width="10" height="20" as="geometry" />
        </mxCell>
        <mxCell id="Zy_rhjZ_hD4VBQscMoqe-42" value="" style="html=1;points=[[0,0,0,0,5],[0,1,0,0,-5],[1,0,0,0,5],[1,1,0,0,-5]];perimeter=orthogonalPerimeter;outlineConnect=0;targetShapes=umlLifeline;portConstraint=eastwest;newEdgeStyle={&quot;curved&quot;:0,&quot;rounded&quot;:0};" parent="Zy_rhjZ_hD4VBQscMoqe-4" vertex="1">
          <mxGeometry x="30" y="350" width="10" height="30" as="geometry" />
        </mxCell>
        <mxCell id="Zy_rhjZ_hD4VBQscMoqe-54" value="" style="html=1;verticalAlign=bottom;endArrow=block;curved=0;rounded=0;" parent="Zy_rhjZ_hD4VBQscMoqe-4" edge="1">
          <mxGeometry width="80" relative="1" as="geometry">
            <mxPoint x="40" y="309.38" as="sourcePoint" />
            <mxPoint x="180" y="309" as="targetPoint" />
          </mxGeometry>
        </mxCell>
        <mxCell id="Zy_rhjZ_hD4VBQscMoqe-12" value="connect" style="html=1;verticalAlign=bottom;endArrow=block;curved=0;rounded=0;exitX=1;exitY=0;exitDx=0;exitDy=5;exitPerimeter=0;" parent="1" source="oPEOU6dO4zcKRsclDfF3-13" target="quBtWnoPmfWJQUGBPUN5-4" edge="1">
          <mxGeometry width="80" relative="1" as="geometry">
            <mxPoint x="590" y="230" as="sourcePoint" />
            <mxPoint x="670" y="230" as="targetPoint" />
          </mxGeometry>
        </mxCell>
        <mxCell id="Zy_rhjZ_hD4VBQscMoqe-11" value="return" style="html=1;verticalAlign=bottom;endArrow=open;dashed=1;endSize=8;curved=0;rounded=0;exitX=0;exitY=1;exitDx=0;exitDy=-5;" parent="1" source="Zy_rhjZ_hD4VBQscMoqe-9" target="quBtWnoPmfWJQUGBPUN5-4" edge="1">
          <mxGeometry relative="1" as="geometry">
            <mxPoint x="880" y="295" as="targetPoint" />
          </mxGeometry>
        </mxCell>
        <mxCell id="Zy_rhjZ_hD4VBQscMoqe-14" value="connect" style="html=1;verticalAlign=bottom;endArrow=block;curved=0;rounded=0;exitX=1;exitY=0;exitDx=0;exitDy=5;exitPerimeter=0;entryX=0;entryY=0;entryDx=0;entryDy=5;entryPerimeter=0;" parent="1" source="Zy_rhjZ_hD4VBQscMoqe-9" target="Zy_rhjZ_hD4VBQscMoqe-13" edge="1">
          <mxGeometry x="0.4222" y="5" width="80" relative="1" as="geometry">
            <mxPoint x="1140" y="220" as="sourcePoint" />
            <mxPoint x="1590" y="230" as="targetPoint" />
            <mxPoint as="offset" />
          </mxGeometry>
        </mxCell>
        <mxCell id="Zy_rhjZ_hD4VBQscMoqe-15" value="return" style="html=1;verticalAlign=bottom;endArrow=open;dashed=1;endSize=8;curved=0;rounded=0;entryX=1;entryY=1;entryDx=0;entryDy=-5;entryPerimeter=0;exitX=0;exitY=1;exitDx=0;exitDy=-5;exitPerimeter=0;" parent="1" source="Zy_rhjZ_hD4VBQscMoqe-13" target="Zy_rhjZ_hD4VBQscMoqe-9" edge="1">
          <mxGeometry relative="1" as="geometry">
            <mxPoint x="1590" y="270" as="sourcePoint" />
            <mxPoint x="1140" y="260" as="targetPoint" />
          </mxGeometry>
        </mxCell>
        <mxCell id="Zy_rhjZ_hD4VBQscMoqe-16" value="return" style="html=1;verticalAlign=bottom;endArrow=open;dashed=1;endSize=8;curved=0;rounded=0;exitX=0;exitY=1;exitDx=0;exitDy=-5;exitPerimeter=0;" parent="1" source="quBtWnoPmfWJQUGBPUN5-4" target="oPEOU6dO4zcKRsclDfF3-13" edge="1">
          <mxGeometry relative="1" as="geometry">
            <mxPoint x="620" y="260" as="targetPoint" />
            <mxPoint x="870" y="270" as="sourcePoint" />
          </mxGeometry>
        </mxCell>
        <mxCell id="Zy_rhjZ_hD4VBQscMoqe-17" value="return" style="html=1;verticalAlign=bottom;endArrow=open;dashed=1;endSize=8;curved=0;rounded=0;exitX=0;exitY=1;exitDx=0;exitDy=-5;exitPerimeter=0;" parent="1" target="Zy_rhjZ_hD4VBQscMoqe-18" edge="1">
          <mxGeometry relative="1" as="geometry">
            <mxPoint x="320" y="270" as="targetPoint" />
            <mxPoint x="580" y="270" as="sourcePoint" />
          </mxGeometry>
        </mxCell>
        <mxCell id="Zy_rhjZ_hD4VBQscMoqe-38" value="toData" style="html=1;verticalAlign=bottom;endArrow=block;curved=0;rounded=0;entryX=0;entryY=0;entryDx=0;entryDy=5;exitX=1;exitY=0;exitDx=0;exitDy=5;exitPerimeter=0;" parent="1" source="Zy_rhjZ_hD4VBQscMoqe-33" target="Zy_rhjZ_hD4VBQscMoqe-37" edge="1">
          <mxGeometry relative="1" as="geometry">
            <mxPoint x="1290" y="385" as="sourcePoint" />
          </mxGeometry>
        </mxCell>
        <mxCell id="Zy_rhjZ_hD4VBQscMoqe-39" value="return" style="html=1;verticalAlign=bottom;endArrow=open;dashed=1;endSize=8;curved=0;rounded=0;exitX=0;exitY=1;exitDx=0;exitDy=-5;" parent="1" source="Zy_rhjZ_hD4VBQscMoqe-37" target="Zy_rhjZ_hD4VBQscMoqe-33" edge="1">
          <mxGeometry relative="1" as="geometry">
            <mxPoint x="1290" y="455" as="targetPoint" />
          </mxGeometry>
        </mxCell>
        <mxCell id="Zy_rhjZ_hD4VBQscMoqe-41" value="send" style="html=1;verticalAlign=bottom;startArrow=oval;endArrow=block;startSize=8;curved=0;rounded=0;entryX=0;entryY=0;entryDx=0;entryDy=5;" parent="1" source="Zy_rhjZ_hD4VBQscMoqe-33" target="Zy_rhjZ_hD4VBQscMoqe-40" edge="1">
          <mxGeometry relative="1" as="geometry">
            <mxPoint x="1520" y="445" as="sourcePoint" />
          </mxGeometry>
        </mxCell>
        <mxCell id="Zy_rhjZ_hD4VBQscMoqe-43" value="dataReceived" style="html=1;verticalAlign=bottom;startArrow=oval;startFill=1;endArrow=block;startSize=8;curved=0;rounded=0;exitX=0;exitY=1;exitDx=0;exitDy=-5;exitPerimeter=0;" parent="1" source="Zy_rhjZ_hD4VBQscMoqe-42" target="Zy_rhjZ_hD4VBQscMoqe-44" edge="1">
          <mxGeometry x="0.0012" width="60" relative="1" as="geometry">
            <mxPoint x="1150" y="510" as="sourcePoint" />
            <mxPoint x="1140" y="520" as="targetPoint" />
            <mxPoint as="offset" />
          </mxGeometry>
        </mxCell>
        <mxCell id="Zy_rhjZ_hD4VBQscMoqe-46" value="parseMetric" style="html=1;verticalAlign=bottom;endArrow=block;curved=0;rounded=0;entryX=0;entryY=0;entryDx=0;entryDy=5;" parent="1" source="Zy_rhjZ_hD4VBQscMoqe-44" target="Zy_rhjZ_hD4VBQscMoqe-45" edge="1">
          <mxGeometry relative="1" as="geometry">
            <mxPoint x="1290" y="545" as="sourcePoint" />
          </mxGeometry>
        </mxCell>
        <mxCell id="Zy_rhjZ_hD4VBQscMoqe-47" value="return" style="html=1;verticalAlign=bottom;endArrow=open;dashed=1;endSize=8;curved=0;rounded=0;exitX=0;exitY=1;exitDx=0;exitDy=-5;" parent="1" source="Zy_rhjZ_hD4VBQscMoqe-45" edge="1">
          <mxGeometry relative="1" as="geometry">
            <mxPoint x="1140" y="585" as="targetPoint" />
          </mxGeometry>
        </mxCell>
        <mxCell id="Zy_rhjZ_hD4VBQscMoqe-51" value="runtimeMetiricReceived" style="html=1;verticalAlign=bottom;startArrow=oval;startFill=1;endArrow=block;startSize=8;curved=0;rounded=0;entryX=1;entryY=1;entryDx=0;entryDy=-5;entryPerimeter=0;exitX=0;exitY=1;exitDx=0;exitDy=-5;exitPerimeter=0;" parent="1" source="Zy_rhjZ_hD4VBQscMoqe-44" target="Zy_rhjZ_hD4VBQscMoqe-48" edge="1">
          <mxGeometry width="60" relative="1" as="geometry">
            <mxPoint x="1130" y="580" as="sourcePoint" />
            <mxPoint x="890" y="580" as="targetPoint" />
          </mxGeometry>
        </mxCell>
        <mxCell id="Zy_rhjZ_hD4VBQscMoqe-52" value="runtimeMetiricReceived" style="html=1;verticalAlign=bottom;startArrow=oval;startFill=1;endArrow=block;startSize=8;curved=0;rounded=0;exitX=0;exitY=1;exitDx=0;exitDy=-5;exitPerimeter=0;" parent="1" source="Zy_rhjZ_hD4VBQscMoqe-48" edge="1">
          <mxGeometry width="60" relative="1" as="geometry">
            <mxPoint x="870" y="590" as="sourcePoint" />
            <mxPoint x="590" y="585" as="targetPoint" />
          </mxGeometry>
        </mxCell>
        <mxCell id="Zy_rhjZ_hD4VBQscMoqe-53" value="runtimeMetricReceived" style="html=1;verticalAlign=bottom;startArrow=oval;startFill=1;endArrow=block;startSize=8;curved=0;rounded=0;exitX=0;exitY=1;exitDx=0;exitDy=-5;exitPerimeter=0;" parent="1" target="Zy_rhjZ_hD4VBQscMoqe-50" edge="1">
          <mxGeometry width="60" relative="1" as="geometry">
            <mxPoint x="580" y="590" as="sourcePoint" />
            <mxPoint x="330" y="590" as="targetPoint" />
          </mxGeometry>
        </mxCell>
        <mxCell id="Zy_rhjZ_hD4VBQscMoqe-55" value="" style="html=1;verticalAlign=bottom;endArrow=block;curved=0;rounded=0;" parent="1" target="Zy_rhjZ_hD4VBQscMoqe-42" edge="1">
          <mxGeometry width="80" relative="1" as="geometry">
            <mxPoint x="1740" y="500" as="sourcePoint" />
            <mxPoint x="1750" y="459" as="targetPoint" />
          </mxGeometry>
        </mxCell>
        <mxCell id="Zy_rhjZ_hD4VBQscMoqe-56" value="VSock" style="html=1;points=[[0,0,0,0,5],[0,1,0,0,-5],[1,0,0,0,5],[1,1,0,0,-5]];perimeter=orthogonalPerimeter;outlineConnect=0;targetShapes=umlLifeline;portConstraint=eastwest;newEdgeStyle={&quot;curved&quot;:0,&quot;rounded&quot;:0};" parent="1" vertex="1">
          <mxGeometry x="1740" y="440" width="140" height="80" as="geometry" />
        </mxCell>
        <mxCell id="BW-nIR3TwKH9C7eTqD7m-13" value="" style="html=1;points=[[0,0,0,0,5],[0,1,0,0,-5],[1,0,0,0,5],[1,1,0,0,-5]];perimeter=orthogonalPerimeter;outlineConnect=0;targetShapes=umlLifeline;portConstraint=eastwest;newEdgeStyle={&quot;curved&quot;:0,&quot;rounded&quot;:0};" vertex="1" parent="1">
          <mxGeometry x="580" y="690" width="10" height="170" as="geometry" />
        </mxCell>
        <mxCell id="BW-nIR3TwKH9C7eTqD7m-14" value="runCommand" style="html=1;verticalAlign=bottom;startArrow=oval;endArrow=block;startSize=8;curved=0;rounded=0;entryX=0;entryY=0;entryDx=0;entryDy=5;" edge="1" target="BW-nIR3TwKH9C7eTqD7m-13" parent="1">
          <mxGeometry x="0.2308" y="5" relative="1" as="geometry">
            <mxPoint x="320" y="695" as="sourcePoint" />
            <mxPoint as="offset" />
          </mxGeometry>
        </mxCell>
        <mxCell id="EF1Y_lScPl18FFNt23ar-7" value="" style="html=1;points=[[0,0,0,0,5],[0,1,0,0,-5],[1,0,0,0,5],[1,1,0,0,-5]];perimeter=orthogonalPerimeter;outlineConnect=0;targetShapes=umlLifeline;portConstraint=eastwest;newEdgeStyle={&quot;curved&quot;:0,&quot;rounded&quot;:0};" vertex="1" parent="1">
          <mxGeometry x="870" y="690" width="10" height="170" as="geometry" />
        </mxCell>
        <mxCell id="EF1Y_lScPl18FFNt23ar-8" value="runCommand" style="html=1;verticalAlign=bottom;endArrow=block;curved=0;rounded=0;entryX=0;entryY=0;entryDx=0;entryDy=5;" edge="1" target="EF1Y_lScPl18FFNt23ar-7" parent="1" source="BW-nIR3TwKH9C7eTqD7m-13">
          <mxGeometry relative="1" as="geometry">
            <mxPoint x="590" y="700" as="sourcePoint" />
          </mxGeometry>
        </mxCell>
        <mxCell id="EF1Y_lScPl18FFNt23ar-9" value="return" style="html=1;verticalAlign=bottom;endArrow=open;dashed=1;endSize=8;curved=0;rounded=0;exitX=0;exitY=1;exitDx=0;exitDy=-5;entryX=1;entryY=1;entryDx=0;entryDy=-5;entryPerimeter=0;" edge="1" source="EF1Y_lScPl18FFNt23ar-7" parent="1" target="BW-nIR3TwKH9C7eTqD7m-13">
          <mxGeometry relative="1" as="geometry">
            <mxPoint x="800" y="765" as="targetPoint" />
          </mxGeometry>
        </mxCell>
        <mxCell id="EF1Y_lScPl18FFNt23ar-10" value="" style="html=1;points=[[0,0,0,0,5],[0,1,0,0,-5],[1,0,0,0,5],[1,1,0,0,-5]];perimeter=orthogonalPerimeter;outlineConnect=0;targetShapes=umlLifeline;portConstraint=eastwest;newEdgeStyle={&quot;curved&quot;:0,&quot;rounded&quot;:0};" vertex="1" parent="1">
          <mxGeometry x="1130" y="690" width="10" height="170" as="geometry" />
        </mxCell>
        <mxCell id="EF1Y_lScPl18FFNt23ar-11" value="runCommand" style="html=1;verticalAlign=bottom;endArrow=block;curved=0;rounded=0;entryX=0;entryY=0;entryDx=0;entryDy=5;" edge="1" target="EF1Y_lScPl18FFNt23ar-10" parent="1">
          <mxGeometry relative="1" as="geometry">
            <mxPoint x="880" y="695" as="sourcePoint" />
          </mxGeometry>
        </mxCell>
        <mxCell id="EF1Y_lScPl18FFNt23ar-12" value="return" style="html=1;verticalAlign=bottom;endArrow=open;dashed=1;endSize=8;curved=0;rounded=0;exitX=0;exitY=1;exitDx=0;exitDy=-5;" edge="1" source="EF1Y_lScPl18FFNt23ar-10" parent="1" target="EF1Y_lScPl18FFNt23ar-7">
          <mxGeometry relative="1" as="geometry">
            <mxPoint x="880" y="765" as="targetPoint" />
          </mxGeometry>
        </mxCell>
        <mxCell id="RbIPxrVX7tlys87bnuAM-2" value="toData" style="html=1;verticalAlign=bottom;endArrow=block;curved=0;rounded=0;entryX=0;entryY=0;entryDx=0;entryDy=5;exitX=1;exitY=0;exitDx=0;exitDy=5;exitPerimeter=0;" edge="1" target="RbIPxrVX7tlys87bnuAM-1" parent="1" source="EF1Y_lScPl18FFNt23ar-10">
          <mxGeometry relative="1" as="geometry">
            <mxPoint x="1290" y="695" as="sourcePoint" />
          </mxGeometry>
        </mxCell>
        <mxCell id="RbIPxrVX7tlys87bnuAM-3" value="return" style="html=1;verticalAlign=bottom;endArrow=open;dashed=1;endSize=8;curved=0;rounded=0;exitX=0;exitY=1;exitDx=0;exitDy=-5;" edge="1" source="RbIPxrVX7tlys87bnuAM-1" parent="1" target="EF1Y_lScPl18FFNt23ar-10">
          <mxGeometry relative="1" as="geometry">
            <mxPoint x="1290" y="765" as="targetPoint" />
          </mxGeometry>
        </mxCell>
        <mxCell id="CuBOY-qVNjJI1yQO7gXo-1" value="" style="html=1;points=[[0,0,0,0,5],[0,1,0,0,-5],[1,0,0,0,5],[1,1,0,0,-5]];perimeter=orthogonalPerimeter;outlineConnect=0;targetShapes=umlLifeline;portConstraint=eastwest;newEdgeStyle={&quot;curved&quot;:0,&quot;rounded&quot;:0};" vertex="1" parent="1">
          <mxGeometry x="1590" y="740" width="10" height="20" as="geometry" />
        </mxCell>
        <mxCell id="CuBOY-qVNjJI1yQO7gXo-2" value="send" style="html=1;verticalAlign=bottom;startArrow=oval;endArrow=block;startSize=8;curved=0;rounded=0;" edge="1" parent="1" source="EF1Y_lScPl18FFNt23ar-10">
          <mxGeometry relative="1" as="geometry">
            <mxPoint x="1370" y="695" as="sourcePoint" />
            <mxPoint x="1590" y="740" as="targetPoint" />
          </mxGeometry>
        </mxCell>
        <mxCell id="CuBOY-qVNjJI1yQO7gXo-3" value="" style="html=1;points=[[0,0,0,0,5],[0,1,0,0,-5],[1,0,0,0,5],[1,1,0,0,-5]];perimeter=orthogonalPerimeter;outlineConnect=0;targetShapes=umlLifeline;portConstraint=eastwest;newEdgeStyle={&quot;curved&quot;:0,&quot;rounded&quot;:0};" vertex="1" parent="1">
          <mxGeometry x="1590" y="780" width="10" height="20" as="geometry" />
        </mxCell>
        <mxCell id="CuBOY-qVNjJI1yQO7gXo-4" value="dataReceived" style="html=1;verticalAlign=bottom;startArrow=oval;startFill=1;endArrow=block;startSize=8;curved=0;rounded=0;exitX=0;exitY=1;exitDx=0;exitDy=-5;exitPerimeter=0;" edge="1" parent="1" source="CuBOY-qVNjJI1yQO7gXo-3" target="EF1Y_lScPl18FFNt23ar-10">
          <mxGeometry width="60" relative="1" as="geometry">
            <mxPoint x="1490" y="730" as="sourcePoint" />
            <mxPoint x="1550" y="730" as="targetPoint" />
          </mxGeometry>
        </mxCell>
        <mxCell id="CuBOY-qVNjJI1yQO7gXo-5" value="" style="html=1;points=[[0,0,0,0,5],[0,1,0,0,-5],[1,0,0,0,5],[1,1,0,0,-5]];perimeter=orthogonalPerimeter;outlineConnect=0;targetShapes=umlLifeline;portConstraint=eastwest;newEdgeStyle={&quot;curved&quot;:0,&quot;rounded&quot;:0};" vertex="1" parent="1">
          <mxGeometry x="1360" y="810" width="10" height="30" as="geometry" />
        </mxCell>
        <mxCell id="CuBOY-qVNjJI1yQO7gXo-6" value="parseCommand" style="html=1;verticalAlign=bottom;endArrow=block;curved=0;rounded=0;entryX=0;entryY=0;entryDx=0;entryDy=5;" edge="1" target="CuBOY-qVNjJI1yQO7gXo-5" parent="1">
          <mxGeometry relative="1" as="geometry">
            <mxPoint x="1140" y="815" as="sourcePoint" />
          </mxGeometry>
        </mxCell>
        <mxCell id="CuBOY-qVNjJI1yQO7gXo-7" value="return" style="html=1;verticalAlign=bottom;endArrow=open;dashed=1;endSize=8;curved=0;rounded=0;exitX=0;exitY=1;exitDx=0;exitDy=-5;" edge="1" source="CuBOY-qVNjJI1yQO7gXo-5" parent="1" target="EF1Y_lScPl18FFNt23ar-10">
          <mxGeometry relative="1" as="geometry">
            <mxPoint x="1140" y="840" as="targetPoint" />
          </mxGeometry>
        </mxCell>
        <mxCell id="CuBOY-qVNjJI1yQO7gXo-10" value="" style="html=1;points=[[0,0,0,0,5],[0,1,0,0,-5],[1,0,0,0,5],[1,1,0,0,-5]];perimeter=orthogonalPerimeter;outlineConnect=0;targetShapes=umlLifeline;portConstraint=eastwest;newEdgeStyle={&quot;curved&quot;:0,&quot;rounded&quot;:0};" vertex="1" parent="1">
          <mxGeometry x="310" y="850" width="10" height="50" as="geometry" />
        </mxCell>
        <mxCell id="CuBOY-qVNjJI1yQO7gXo-11" value="commandResultReceived" style="html=1;verticalAlign=bottom;startArrow=oval;startFill=1;endArrow=block;startSize=8;curved=0;rounded=0;exitX=0;exitY=1;exitDx=0;exitDy=-5;exitPerimeter=0;" edge="1" parent="1" source="BW-nIR3TwKH9C7eTqD7m-13" target="CuBOY-qVNjJI1yQO7gXo-10">
          <mxGeometry width="60" relative="1" as="geometry">
            <mxPoint x="520" y="740" as="sourcePoint" />
            <mxPoint x="580" y="740" as="targetPoint" />
            <Array as="points" />
          </mxGeometry>
        </mxCell>
      </root>
    </mxGraphModel>
  </diagram>
  <diagram id="zaEBRp_L256Fk4ZGwK_0" name="monitor-class">
    <mxGraphModel dx="1434" dy="880" grid="1" gridSize="10" guides="1" tooltips="1" connect="1" arrows="1" fold="1" page="1" pageScale="1" pageWidth="1920" pageHeight="1200" math="0" shadow="0">
      <root>
        <mxCell id="0" />
        <mxCell id="1" parent="0" />
        <mxCell id="CqX5UALBTLZ0uZss_7H_-2" value="VSockCommHandler : QObject" style="swimlane;fontStyle=0;childLayout=stackLayout;horizontal=1;startSize=26;fillColor=none;horizontalStack=0;resizeParent=1;resizeParentMax=0;resizeLast=0;collapsible=1;marginBottom=0;whiteSpace=wrap;html=1;" parent="1" vertex="1">
          <mxGeometry x="350" y="366" width="260" height="130" as="geometry" />
        </mxCell>
        <mxCell id="CqX5UALBTLZ0uZss_7H_-3" value="+ VSockCommHandler(cid: uint)" style="text;strokeColor=none;fillColor=none;align=left;verticalAlign=top;spacingLeft=4;spacingRight=4;overflow=hidden;rotatable=0;points=[[0,0.5],[1,0.5]];portConstraint=eastwest;whiteSpace=wrap;html=1;" parent="CqX5UALBTLZ0uZss_7H_-2" vertex="1">
          <mxGeometry y="26" width="260" height="26" as="geometry" />
        </mxCell>
        <mxCell id="CqX5UALBTLZ0uZss_7H_-4" value="+ send(VSockData) &lt;i&gt;&amp;lt;&amp;lt;slot&amp;gt;&amp;gt;&lt;/i&gt;" style="text;strokeColor=none;fillColor=none;align=left;verticalAlign=top;spacingLeft=4;spacingRight=4;overflow=hidden;rotatable=0;points=[[0,0.5],[1,0.5]];portConstraint=eastwest;whiteSpace=wrap;html=1;" parent="CqX5UALBTLZ0uZss_7H_-2" vertex="1">
          <mxGeometry y="52" width="260" height="26" as="geometry" />
        </mxCell>
        <mxCell id="CqX5UALBTLZ0uZss_7H_-5" value="+ dataReceived(VSockData) &lt;i&gt;&amp;lt;&amp;lt;signal&amp;gt;&amp;gt;&lt;/i&gt;" style="text;strokeColor=none;fillColor=none;align=left;verticalAlign=top;spacingLeft=4;spacingRight=4;overflow=hidden;rotatable=0;points=[[0,0.5],[1,0.5]];portConstraint=eastwest;whiteSpace=wrap;html=1;" parent="CqX5UALBTLZ0uZss_7H_-2" vertex="1">
          <mxGeometry y="78" width="260" height="26" as="geometry" />
        </mxCell>
        <mxCell id="CqX5UALBTLZ0uZss_7H_-6" value="+ connect(): bool" style="text;strokeColor=none;fillColor=none;align=left;verticalAlign=top;spacingLeft=4;spacingRight=4;overflow=hidden;rotatable=0;points=[[0,0.5],[1,0.5]];portConstraint=eastwest;whiteSpace=wrap;html=1;" parent="CqX5UALBTLZ0uZss_7H_-2" vertex="1">
          <mxGeometry y="104" width="260" height="26" as="geometry" />
        </mxCell>
        <mxCell id="CqX5UALBTLZ0uZss_7H_-7" value="MonitorClient : QObject" style="swimlane;fontStyle=0;childLayout=stackLayout;horizontal=1;startSize=26;fillColor=none;horizontalStack=0;resizeParent=1;resizeParentMax=0;resizeLast=0;collapsible=1;marginBottom=0;whiteSpace=wrap;html=1;" parent="1" vertex="1">
          <mxGeometry x="410" y="230" width="140" height="78" as="geometry" />
        </mxCell>
        <mxCell id="CqX5UALBTLZ0uZss_7H_-8" value="- getSystemInfo()" style="text;strokeColor=none;fillColor=none;align=left;verticalAlign=top;spacingLeft=4;spacingRight=4;overflow=hidden;rotatable=0;points=[[0,0.5],[1,0.5]];portConstraint=eastwest;whiteSpace=wrap;html=1;" parent="CqX5UALBTLZ0uZss_7H_-7" vertex="1">
          <mxGeometry y="26" width="140" height="26" as="geometry" />
        </mxCell>
        <mxCell id="CqX5UALBTLZ0uZss_7H_-9" value="- getRuntimeInfo()" style="text;strokeColor=none;fillColor=none;align=left;verticalAlign=top;spacingLeft=4;spacingRight=4;overflow=hidden;rotatable=0;points=[[0,0.5],[1,0.5]];portConstraint=eastwest;whiteSpace=wrap;html=1;" parent="CqX5UALBTLZ0uZss_7H_-7" vertex="1">
          <mxGeometry y="52" width="140" height="26" as="geometry" />
        </mxCell>
        <mxCell id="CqX5UALBTLZ0uZss_7H_-11" value="RequestParser" style="swimlane;fontStyle=0;childLayout=stackLayout;horizontal=1;startSize=26;fillColor=none;horizontalStack=0;resizeParent=1;resizeParentMax=0;resizeLast=0;collapsible=1;marginBottom=0;whiteSpace=wrap;html=1;" parent="1" vertex="1">
          <mxGeometry x="110" y="240" width="200" height="104" as="geometry" />
        </mxCell>
        <mxCell id="CqX5UALBTLZ0uZss_7H_-13" value="+ parse(data:VSockData)" style="text;strokeColor=none;fillColor=none;align=left;verticalAlign=top;spacingLeft=4;spacingRight=4;overflow=hidden;rotatable=0;points=[[0,0.5],[1,0.5]];portConstraint=eastwest;whiteSpace=wrap;html=1;" parent="CqX5UALBTLZ0uZss_7H_-11" vertex="1">
          <mxGeometry y="26" width="200" height="26" as="geometry" />
        </mxCell>
        <mxCell id="D_iKNIf2XQwHX9ana4M3-3" value="+ toData(SystemInfo): VSockData" style="text;strokeColor=none;fillColor=none;align=left;verticalAlign=top;spacingLeft=4;spacingRight=4;overflow=hidden;rotatable=0;points=[[0,0.5],[1,0.5]];portConstraint=eastwest;whiteSpace=wrap;html=1;" parent="CqX5UALBTLZ0uZss_7H_-11" vertex="1">
          <mxGeometry y="52" width="200" height="26" as="geometry" />
        </mxCell>
        <mxCell id="D_iKNIf2XQwHX9ana4M3-4" value="+ toData(RuntimeInfo): VSockData" style="text;strokeColor=none;fillColor=none;align=left;verticalAlign=top;spacingLeft=4;spacingRight=4;overflow=hidden;rotatable=0;points=[[0,0.5],[1,0.5]];portConstraint=eastwest;whiteSpace=wrap;html=1;" parent="CqX5UALBTLZ0uZss_7H_-11" vertex="1">
          <mxGeometry y="78" width="200" height="26" as="geometry" />
        </mxCell>
        <mxCell id="CqX5UALBTLZ0uZss_7H_-15" value="PlatformDependentLayer" style="html=1;whiteSpace=wrap;" parent="1" vertex="1">
          <mxGeometry x="650" y="250" width="175" height="50" as="geometry" />
        </mxCell>
        <mxCell id="D_iKNIf2XQwHX9ana4M3-5" value="" style="endArrow=diamondThin;endFill=1;endSize=24;html=1;rounded=0;exitX=1.001;exitY=0.107;exitDx=0;exitDy=0;exitPerimeter=0;" parent="1" source="D_iKNIf2XQwHX9ana4M3-3" edge="1">
          <mxGeometry width="160" relative="1" as="geometry">
            <mxPoint x="490" y="460" as="sourcePoint" />
            <mxPoint x="410" y="260" as="targetPoint" />
            <Array as="points">
              <mxPoint x="370" y="295" />
              <mxPoint x="370" y="260" />
            </Array>
          </mxGeometry>
        </mxCell>
        <mxCell id="D_iKNIf2XQwHX9ana4M3-6" value="" style="endArrow=diamondThin;endFill=1;endSize=24;html=1;rounded=0;entryX=0.5;entryY=1.077;entryDx=0;entryDy=0;entryPerimeter=0;exitX=0.5;exitY=0;exitDx=0;exitDy=0;" parent="1" source="CqX5UALBTLZ0uZss_7H_-2" target="CqX5UALBTLZ0uZss_7H_-9" edge="1">
          <mxGeometry width="160" relative="1" as="geometry">
            <mxPoint x="490" y="460" as="sourcePoint" />
            <mxPoint x="650" y="460" as="targetPoint" />
          </mxGeometry>
        </mxCell>
        <mxCell id="D_iKNIf2XQwHX9ana4M3-7" value="" style="endArrow=diamondThin;endFill=1;endSize=24;html=1;rounded=0;entryX=1.007;entryY=0.737;entryDx=0;entryDy=0;entryPerimeter=0;exitX=0;exitY=0.5;exitDx=0;exitDy=0;" parent="1" source="CqX5UALBTLZ0uZss_7H_-15" target="CqX5UALBTLZ0uZss_7H_-8" edge="1">
          <mxGeometry width="160" relative="1" as="geometry">
            <mxPoint x="490" y="460" as="sourcePoint" />
            <mxPoint x="650" y="460" as="targetPoint" />
          </mxGeometry>
        </mxCell>
      </root>
    </mxGraphModel>
  </diagram>
  <diagram id="ccVu9xHTy5monBwKJZgh" name="TODO">
    <mxGraphModel dx="1434" dy="880" grid="1" gridSize="10" guides="1" tooltips="1" connect="1" arrows="1" fold="1" page="1" pageScale="1" pageWidth="1920" pageHeight="1200" math="0" shadow="0">
      <root>
        <mxCell id="0" />
        <mxCell id="1" parent="0" />
        <mxCell id="ygqBfrHHpIO9Udm-ofeb-25" style="edgeStyle=orthogonalEdgeStyle;rounded=0;orthogonalLoop=1;jettySize=auto;html=1;entryX=0;entryY=0.5;entryDx=0;entryDy=0;" parent="1" source="6krJH6XfPJ6Rh6TTLVHx-1" target="ygqBfrHHpIO9Udm-ofeb-24" edge="1">
          <mxGeometry relative="1" as="geometry" />
        </mxCell>
        <mxCell id="6krJH6XfPJ6Rh6TTLVHx-1" value="Storage data gathering" style="rounded=1;whiteSpace=wrap;html=1;fillColor=#d5e8d4;strokeColor=#82b366;" parent="1" vertex="1">
          <mxGeometry x="490" y="220" width="120" height="60" as="geometry" />
        </mxCell>
        <mxCell id="ygqBfrHHpIO9Udm-ofeb-11" style="edgeStyle=orthogonalEdgeStyle;rounded=0;orthogonalLoop=1;jettySize=auto;html=1;entryX=0;entryY=0.5;entryDx=0;entryDy=0;" parent="1" source="6krJH6XfPJ6Rh6TTLVHx-2" target="ygqBfrHHpIO9Udm-ofeb-5" edge="1">
          <mxGeometry relative="1" as="geometry" />
        </mxCell>
        <mxCell id="6krJH6XfPJ6Rh6TTLVHx-2" value="Can device info gathering" style="rounded=1;whiteSpace=wrap;html=1;" parent="1" vertex="1">
          <mxGeometry x="490" y="410" width="120" height="60" as="geometry" />
        </mxCell>
        <mxCell id="ygqBfrHHpIO9Udm-ofeb-13" style="edgeStyle=orthogonalEdgeStyle;rounded=0;orthogonalLoop=1;jettySize=auto;html=1;entryX=0;entryY=0.5;entryDx=0;entryDy=0;" parent="1" source="ygqBfrHHpIO9Udm-ofeb-1" target="ygqBfrHHpIO9Udm-ofeb-6" edge="1">
          <mxGeometry relative="1" as="geometry" />
        </mxCell>
        <mxCell id="ygqBfrHHpIO9Udm-ofeb-1" value="IO data gathering" style="rounded=1;whiteSpace=wrap;html=1;" parent="1" vertex="1">
          <mxGeometry x="490" y="500" width="120" height="60" as="geometry" />
        </mxCell>
        <mxCell id="ygqBfrHHpIO9Udm-ofeb-9" style="edgeStyle=orthogonalEdgeStyle;rounded=0;orthogonalLoop=1;jettySize=auto;html=1;entryX=0;entryY=0.5;entryDx=0;entryDy=0;" parent="1" source="ygqBfrHHpIO9Udm-ofeb-2" target="ygqBfrHHpIO9Udm-ofeb-4" edge="1">
          <mxGeometry relative="1" as="geometry" />
        </mxCell>
        <mxCell id="ygqBfrHHpIO9Udm-ofeb-2" value="Network data gathering" style="rounded=1;whiteSpace=wrap;html=1;" parent="1" vertex="1">
          <mxGeometry x="490" y="310" width="120" height="60" as="geometry" />
        </mxCell>
        <mxCell id="ygqBfrHHpIO9Udm-ofeb-3" value="Network data visualisation" style="rounded=1;whiteSpace=wrap;html=1;" parent="1" vertex="1">
          <mxGeometry x="850" y="310" width="120" height="60" as="geometry" />
        </mxCell>
        <mxCell id="ygqBfrHHpIO9Udm-ofeb-4" value="Network data serialization" style="rounded=1;whiteSpace=wrap;html=1;" parent="1" vertex="1">
          <mxGeometry x="660" y="310" width="120" height="60" as="geometry" />
        </mxCell>
        <mxCell id="ygqBfrHHpIO9Udm-ofeb-12" style="edgeStyle=orthogonalEdgeStyle;rounded=0;orthogonalLoop=1;jettySize=auto;html=1;entryX=0;entryY=0.5;entryDx=0;entryDy=0;" parent="1" source="ygqBfrHHpIO9Udm-ofeb-5" target="ygqBfrHHpIO9Udm-ofeb-7" edge="1">
          <mxGeometry relative="1" as="geometry" />
        </mxCell>
        <mxCell id="ygqBfrHHpIO9Udm-ofeb-5" value="Can device info serialization" style="rounded=1;whiteSpace=wrap;html=1;" parent="1" vertex="1">
          <mxGeometry x="660" y="410" width="120" height="60" as="geometry" />
        </mxCell>
        <mxCell id="ygqBfrHHpIO9Udm-ofeb-14" style="edgeStyle=orthogonalEdgeStyle;rounded=0;orthogonalLoop=1;jettySize=auto;html=1;" parent="1" source="ygqBfrHHpIO9Udm-ofeb-6" target="ygqBfrHHpIO9Udm-ofeb-8" edge="1">
          <mxGeometry relative="1" as="geometry" />
        </mxCell>
        <mxCell id="ygqBfrHHpIO9Udm-ofeb-6" value="IO data serialization" style="rounded=1;whiteSpace=wrap;html=1;" parent="1" vertex="1">
          <mxGeometry x="660" y="500" width="120" height="60" as="geometry" />
        </mxCell>
        <mxCell id="ygqBfrHHpIO9Udm-ofeb-7" value="Can device info visualisation" style="rounded=1;whiteSpace=wrap;html=1;" parent="1" vertex="1">
          <mxGeometry x="850" y="410" width="120" height="60" as="geometry" />
        </mxCell>
        <mxCell id="ygqBfrHHpIO9Udm-ofeb-8" value="IO data visualisation" style="rounded=1;whiteSpace=wrap;html=1;" parent="1" vertex="1">
          <mxGeometry x="850" y="500" width="120" height="60" as="geometry" />
        </mxCell>
        <mxCell id="ygqBfrHHpIO9Udm-ofeb-10" style="edgeStyle=orthogonalEdgeStyle;rounded=0;orthogonalLoop=1;jettySize=auto;html=1;entryX=0;entryY=0.5;entryDx=0;entryDy=0;" parent="1" source="ygqBfrHHpIO9Udm-ofeb-4" target="ygqBfrHHpIO9Udm-ofeb-3" edge="1">
          <mxGeometry relative="1" as="geometry" />
        </mxCell>
        <mxCell id="ygqBfrHHpIO9Udm-ofeb-16" style="edgeStyle=orthogonalEdgeStyle;rounded=0;orthogonalLoop=1;jettySize=auto;html=1;entryX=0.5;entryY=1;entryDx=0;entryDy=0;" parent="1" source="ygqBfrHHpIO9Udm-ofeb-15" target="ygqBfrHHpIO9Udm-ofeb-8" edge="1">
          <mxGeometry relative="1" as="geometry" />
        </mxCell>
        <mxCell id="ygqBfrHHpIO9Udm-ofeb-17" style="edgeStyle=orthogonalEdgeStyle;rounded=0;orthogonalLoop=1;jettySize=auto;html=1;entryX=1;entryY=0.5;entryDx=0;entryDy=0;" parent="1" source="ygqBfrHHpIO9Udm-ofeb-15" target="ygqBfrHHpIO9Udm-ofeb-3" edge="1">
          <mxGeometry relative="1" as="geometry">
            <mxPoint x="1050" y="340" as="targetPoint" />
            <Array as="points">
              <mxPoint x="990" y="640" />
              <mxPoint x="990" y="340" />
            </Array>
          </mxGeometry>
        </mxCell>
        <mxCell id="ygqBfrHHpIO9Udm-ofeb-15" value="Double spline graph" style="rounded=1;whiteSpace=wrap;html=1;" parent="1" vertex="1">
          <mxGeometry x="850" y="600" width="120" height="60" as="geometry" />
        </mxCell>
        <mxCell id="ygqBfrHHpIO9Udm-ofeb-18" value="Sidebar redesign" style="rounded=0;whiteSpace=wrap;html=1;" parent="1" vertex="1">
          <mxGeometry x="490" y="710" width="120" height="60" as="geometry" />
        </mxCell>
        <mxCell id="ygqBfrHHpIO9Udm-ofeb-22" style="edgeStyle=orthogonalEdgeStyle;rounded=0;orthogonalLoop=1;jettySize=auto;html=1;entryX=1;entryY=0.5;entryDx=0;entryDy=0;" parent="1" source="ygqBfrHHpIO9Udm-ofeb-19" target="ygqBfrHHpIO9Udm-ofeb-18" edge="1">
          <mxGeometry relative="1" as="geometry">
            <Array as="points">
              <mxPoint x="710" y="740" />
            </Array>
          </mxGeometry>
        </mxCell>
        <mxCell id="ygqBfrHHpIO9Udm-ofeb-19" value="Animation" style="rounded=0;whiteSpace=wrap;html=1;" parent="1" vertex="1">
          <mxGeometry x="630" y="840" width="120" height="60" as="geometry" />
        </mxCell>
        <mxCell id="ygqBfrHHpIO9Udm-ofeb-21" style="edgeStyle=orthogonalEdgeStyle;rounded=0;orthogonalLoop=1;jettySize=auto;html=1;entryX=0;entryY=0.5;entryDx=0;entryDy=0;" parent="1" source="ygqBfrHHpIO9Udm-ofeb-20" target="ygqBfrHHpIO9Udm-ofeb-18" edge="1">
          <mxGeometry relative="1" as="geometry">
            <Array as="points">
              <mxPoint x="410" y="740" />
            </Array>
          </mxGeometry>
        </mxCell>
        <mxCell id="ygqBfrHHpIO9Udm-ofeb-20" value="Sidebar locking" style="rounded=0;whiteSpace=wrap;html=1;" parent="1" vertex="1">
          <mxGeometry x="360" y="840" width="120" height="60" as="geometry" />
        </mxCell>
        <mxCell id="ygqBfrHHpIO9Udm-ofeb-23" value="Main page design" style="rounded=1;whiteSpace=wrap;html=1;" parent="1" vertex="1">
          <mxGeometry x="850" y="220" width="120" height="60" as="geometry" />
        </mxCell>
        <mxCell id="ygqBfrHHpIO9Udm-ofeb-24" value="Storage data page" style="rounded=1;whiteSpace=wrap;html=1;" parent="1" vertex="1">
          <mxGeometry x="660" y="220" width="120" height="60" as="geometry" />
        </mxCell>
        <mxCell id="6h44R6HpDIwFL7Q59JAG-7" style="edgeStyle=orthogonalEdgeStyle;rounded=0;orthogonalLoop=1;jettySize=auto;html=1;entryX=0.5;entryY=0;entryDx=0;entryDy=0;" parent="1" source="6h44R6HpDIwFL7Q59JAG-1" target="6h44R6HpDIwFL7Q59JAG-2" edge="1">
          <mxGeometry relative="1" as="geometry" />
        </mxCell>
        <mxCell id="6h44R6HpDIwFL7Q59JAG-1" value="Can message listen" style="rounded=1;whiteSpace=wrap;html=1;" parent="1" vertex="1">
          <mxGeometry x="1360" y="340" width="120" height="60" as="geometry" />
        </mxCell>
        <mxCell id="6h44R6HpDIwFL7Q59JAG-8" style="edgeStyle=orthogonalEdgeStyle;rounded=0;orthogonalLoop=1;jettySize=auto;html=1;" parent="1" source="6h44R6HpDIwFL7Q59JAG-2" target="6h44R6HpDIwFL7Q59JAG-3" edge="1">
          <mxGeometry relative="1" as="geometry" />
        </mxCell>
        <mxCell id="6h44R6HpDIwFL7Q59JAG-2" value="Can message serialize" style="rounded=1;whiteSpace=wrap;html=1;" parent="1" vertex="1">
          <mxGeometry x="1360" y="440" width="120" height="60" as="geometry" />
        </mxCell>
        <mxCell id="6h44R6HpDIwFL7Q59JAG-9" style="edgeStyle=orthogonalEdgeStyle;rounded=0;orthogonalLoop=1;jettySize=auto;html=1;" parent="1" source="6h44R6HpDIwFL7Q59JAG-3" target="6h44R6HpDIwFL7Q59JAG-5" edge="1">
          <mxGeometry relative="1" as="geometry" />
        </mxCell>
        <mxCell id="6h44R6HpDIwFL7Q59JAG-3" value="Can message visualize" style="rounded=1;whiteSpace=wrap;html=1;" parent="1" vertex="1">
          <mxGeometry x="1360" y="540" width="120" height="60" as="geometry" />
        </mxCell>
        <mxCell id="6h44R6HpDIwFL7Q59JAG-6" style="edgeStyle=orthogonalEdgeStyle;rounded=0;orthogonalLoop=1;jettySize=auto;html=1;exitX=0.5;exitY=1;exitDx=0;exitDy=0;" parent="1" source="6h44R6HpDIwFL7Q59JAG-4" target="6h44R6HpDIwFL7Q59JAG-1" edge="1">
          <mxGeometry relative="1" as="geometry" />
        </mxCell>
        <mxCell id="6h44R6HpDIwFL7Q59JAG-4" value="Request framework" style="rounded=1;whiteSpace=wrap;html=1;" parent="1" vertex="1">
          <mxGeometry x="1360" y="240" width="120" height="60" as="geometry" />
        </mxCell>
        <mxCell id="6h44R6HpDIwFL7Q59JAG-5" value="Can page" style="rounded=1;whiteSpace=wrap;html=1;" parent="1" vertex="1">
          <mxGeometry x="1360" y="640" width="120" height="60" as="geometry" />
        </mxCell>
        <mxCell id="6h44R6HpDIwFL7Q59JAG-13" style="edgeStyle=orthogonalEdgeStyle;rounded=0;orthogonalLoop=1;jettySize=auto;html=1;" parent="1" source="6h44R6HpDIwFL7Q59JAG-10" target="6h44R6HpDIwFL7Q59JAG-11" edge="1">
          <mxGeometry relative="1" as="geometry" />
        </mxCell>
        <mxCell id="6h44R6HpDIwFL7Q59JAG-14" style="edgeStyle=orthogonalEdgeStyle;rounded=0;orthogonalLoop=1;jettySize=auto;html=1;entryX=0.5;entryY=0;entryDx=0;entryDy=0;" parent="1" target="6h44R6HpDIwFL7Q59JAG-12" edge="1">
          <mxGeometry relative="1" as="geometry">
            <mxPoint x="1490.004482758621" y="90" as="sourcePoint" />
            <mxPoint x="1609.97" y="130" as="targetPoint" />
            <Array as="points">
              <mxPoint x="1550" y="90" />
            </Array>
          </mxGeometry>
        </mxCell>
        <mxCell id="6h44R6HpDIwFL7Q59JAG-10" value="Define requests" style="rounded=1;whiteSpace=wrap;html=1;" parent="1" vertex="1">
          <mxGeometry x="1370" y="60" width="120" height="60" as="geometry" />
        </mxCell>
        <mxCell id="6h44R6HpDIwFL7Q59JAG-17" style="edgeStyle=orthogonalEdgeStyle;rounded=0;orthogonalLoop=1;jettySize=auto;html=1;entryX=0;entryY=0.5;entryDx=0;entryDy=0;" parent="1" source="6h44R6HpDIwFL7Q59JAG-11" target="6h44R6HpDIwFL7Q59JAG-4" edge="1">
          <mxGeometry relative="1" as="geometry">
            <Array as="points">
              <mxPoint x="1290" y="270" />
            </Array>
          </mxGeometry>
        </mxCell>
        <mxCell id="6h44R6HpDIwFL7Q59JAG-11" value="Send requests" style="rounded=1;whiteSpace=wrap;html=1;" parent="1" vertex="1">
          <mxGeometry x="1230" y="160" width="120" height="60" as="geometry" />
        </mxCell>
        <mxCell id="6h44R6HpDIwFL7Q59JAG-18" style="edgeStyle=orthogonalEdgeStyle;rounded=0;orthogonalLoop=1;jettySize=auto;html=1;entryX=1;entryY=0.5;entryDx=0;entryDy=0;" parent="1" source="6h44R6HpDIwFL7Q59JAG-12" target="6h44R6HpDIwFL7Q59JAG-4" edge="1">
          <mxGeometry relative="1" as="geometry">
            <Array as="points">
              <mxPoint x="1550" y="270" />
            </Array>
          </mxGeometry>
        </mxCell>
        <mxCell id="6h44R6HpDIwFL7Q59JAG-12" value="Receive requests" style="rounded=1;whiteSpace=wrap;html=1;" parent="1" vertex="1">
          <mxGeometry x="1490" y="160" width="120" height="60" as="geometry" />
        </mxCell>
      </root>
    </mxGraphModel>
  </diagram>
  <diagram id="N2otECEOWS-Q2ZW5nlnL" name="Page-11">
    <mxGraphModel dx="1434" dy="880" grid="1" gridSize="10" guides="1" tooltips="1" connect="1" arrows="1" fold="1" page="1" pageScale="1" pageWidth="1920" pageHeight="1200" math="0" shadow="0">
      <root>
        <mxCell id="0" />
        <mxCell id="1" parent="0" />
      </root>
    </mxGraphModel>
  </diagram>
  <diagram id="MrfnEbRfG3WTvia22bkS" name="Page-12">
    <mxGraphModel dx="496" dy="316" grid="1" gridSize="10" guides="1" tooltips="1" connect="1" arrows="1" fold="1" page="1" pageScale="1" pageWidth="2339" pageHeight="3300" math="0" shadow="0">
      <root>
        <mxCell id="0" />
        <mxCell id="1" parent="0" />
        <mxCell id="0Q9B6U-qZB7gi46gYB2J-1" value="Renesas RCar-H3e" style="rounded=0;whiteSpace=wrap;html=1;fillColor=#647687;fontColor=#ffffff;strokeColor=#314354;" vertex="1" parent="1">
          <mxGeometry x="245" y="320" width="440" height="50" as="geometry" />
        </mxCell>
        <mxCell id="0Q9B6U-qZB7gi46gYB2J-2" value="Kingfisher alaplap" style="rounded=0;whiteSpace=wrap;html=1;fillColor=#647687;fontColor=#ffffff;strokeColor=#314354;" vertex="1" parent="1">
          <mxGeometry x="235" y="370" width="460" height="50" as="geometry" />
        </mxCell>
        <mxCell id="0Q9B6U-qZB7gi46gYB2J-3" value="KVM" style="rounded=0;whiteSpace=wrap;html=1;fillColor=#e3c800;fontColor=#000000;strokeColor=#B09500;" vertex="1" parent="1">
          <mxGeometry x="260" y="260" width="410" height="60" as="geometry" />
        </mxCell>
        <mxCell id="0Q9B6U-qZB7gi46gYB2J-11" value="" style="group" vertex="1" connectable="0" parent="1">
          <mxGeometry x="340" y="10" width="260" height="250" as="geometry" />
        </mxCell>
        <mxCell id="0Q9B6U-qZB7gi46gYB2J-4" value="AGL" style="rounded=0;whiteSpace=wrap;html=1;fillColor=#f8cecc;strokeColor=#b85450;" vertex="1" parent="0Q9B6U-qZB7gi46gYB2J-11">
          <mxGeometry y="160" width="260" height="90" as="geometry" />
        </mxCell>
        <mxCell id="0Q9B6U-qZB7gi46gYB2J-6" value="AGL" style="rounded=0;whiteSpace=wrap;html=1;fillColor=#d5e8d4;strokeColor=#82b366;" vertex="1" parent="0Q9B6U-qZB7gi46gYB2J-11">
          <mxGeometry x="100" y="50" width="80" height="110" as="geometry" />
        </mxCell>
        <mxCell id="0Q9B6U-qZB7gi46gYB2J-7" value="VSMT App" style="rounded=0;whiteSpace=wrap;html=1;fillColor=#dae8fc;strokeColor=#6c8ebf;" vertex="1" parent="0Q9B6U-qZB7gi46gYB2J-11">
          <mxGeometry y="140" width="100" height="20" as="geometry" />
        </mxCell>
        <mxCell id="0Q9B6U-qZB7gi46gYB2J-10" value="VSMT Kliens" style="rounded=0;whiteSpace=wrap;html=1;fillColor=#dae8fc;strokeColor=#6c8ebf;" vertex="1" parent="0Q9B6U-qZB7gi46gYB2J-11">
          <mxGeometry x="100" y="30" width="80" height="20" as="geometry" />
        </mxCell>
        <mxCell id="0Q9B6U-qZB7gi46gYB2J-12" value="QNX" style="rounded=0;whiteSpace=wrap;html=1;fillColor=#d5e8d4;strokeColor=#82b366;" vertex="1" parent="0Q9B6U-qZB7gi46gYB2J-11">
          <mxGeometry x="180" y="50" width="80" height="110" as="geometry" />
        </mxCell>
        <mxCell id="0Q9B6U-qZB7gi46gYB2J-13" value="VSMT Kliens" style="rounded=0;whiteSpace=wrap;html=1;fillColor=#dae8fc;strokeColor=#6c8ebf;" vertex="1" parent="0Q9B6U-qZB7gi46gYB2J-11">
          <mxGeometry x="180" y="30" width="80" height="20" as="geometry" />
        </mxCell>
        <mxCell id="0Q9B6U-qZB7gi46gYB2J-31" value="" style="endArrow=none;html=1;rounded=0;exitX=0.5;exitY=0;exitDx=0;exitDy=0;entryX=0.5;entryY=0;entryDx=0;entryDy=0;" edge="1" parent="0Q9B6U-qZB7gi46gYB2J-11" source="0Q9B6U-qZB7gi46gYB2J-10" target="0Q9B6U-qZB7gi46gYB2J-13">
          <mxGeometry width="50" height="50" relative="1" as="geometry">
            <mxPoint x="130" y="40" as="sourcePoint" />
            <mxPoint x="180" y="-10" as="targetPoint" />
            <Array as="points">
              <mxPoint x="140" y="10" />
              <mxPoint x="220" y="10" />
            </Array>
          </mxGeometry>
        </mxCell>
        <mxCell id="0Q9B6U-qZB7gi46gYB2J-14" value="" style="endArrow=none;html=1;rounded=0;" edge="1" parent="1">
          <mxGeometry width="50" height="50" relative="1" as="geometry">
            <mxPoint x="720" y="320" as="sourcePoint" />
            <mxPoint x="800" y="320" as="targetPoint" />
          </mxGeometry>
        </mxCell>
        <mxCell id="0Q9B6U-qZB7gi46gYB2J-15" value="" style="endArrow=none;html=1;rounded=0;" edge="1" parent="1">
          <mxGeometry width="50" height="50" relative="1" as="geometry">
            <mxPoint x="720" y="420" as="sourcePoint" />
            <mxPoint x="800" y="420" as="targetPoint" />
          </mxGeometry>
        </mxCell>
        <mxCell id="0Q9B6U-qZB7gi46gYB2J-16" value="" style="endArrow=none;html=1;rounded=0;" edge="1" parent="1">
          <mxGeometry width="50" height="50" relative="1" as="geometry">
            <mxPoint x="800" y="420" as="sourcePoint" />
            <mxPoint x="800" y="320" as="targetPoint" />
          </mxGeometry>
        </mxCell>
        <mxCell id="0Q9B6U-qZB7gi46gYB2J-17" value="Hardver" style="text;html=1;align=center;verticalAlign=middle;whiteSpace=wrap;rounded=0;" vertex="1" parent="1">
          <mxGeometry x="810" y="350" width="60" height="30" as="geometry" />
        </mxCell>
        <mxCell id="0Q9B6U-qZB7gi46gYB2J-18" value="" style="endArrow=none;html=1;rounded=0;" edge="1" parent="1">
          <mxGeometry width="50" height="50" relative="1" as="geometry">
            <mxPoint x="720" y="260" as="sourcePoint" />
            <mxPoint x="800" y="260" as="targetPoint" />
          </mxGeometry>
        </mxCell>
        <mxCell id="0Q9B6U-qZB7gi46gYB2J-19" value="" style="endArrow=none;html=1;rounded=0;" edge="1" parent="1">
          <mxGeometry width="50" height="50" relative="1" as="geometry">
            <mxPoint x="720" y="319.17" as="sourcePoint" />
            <mxPoint x="800" y="319.17" as="targetPoint" />
          </mxGeometry>
        </mxCell>
        <mxCell id="0Q9B6U-qZB7gi46gYB2J-20" value="" style="endArrow=none;html=1;rounded=0;" edge="1" parent="1">
          <mxGeometry width="50" height="50" relative="1" as="geometry">
            <mxPoint x="800" y="319.17" as="sourcePoint" />
            <mxPoint x="800" y="260" as="targetPoint" />
          </mxGeometry>
        </mxCell>
        <mxCell id="0Q9B6U-qZB7gi46gYB2J-21" value="Hypervisor" style="text;html=1;align=center;verticalAlign=middle;whiteSpace=wrap;rounded=0;" vertex="1" parent="1">
          <mxGeometry x="810" y="275" width="60" height="30" as="geometry" />
        </mxCell>
        <mxCell id="0Q9B6U-qZB7gi46gYB2J-22" value="" style="endArrow=none;html=1;rounded=0;" edge="1" parent="1">
          <mxGeometry width="50" height="50" relative="1" as="geometry">
            <mxPoint x="720" y="170" as="sourcePoint" />
            <mxPoint x="800" y="170" as="targetPoint" />
          </mxGeometry>
        </mxCell>
        <mxCell id="0Q9B6U-qZB7gi46gYB2J-23" value="" style="endArrow=none;html=1;rounded=0;" edge="1" parent="1">
          <mxGeometry width="50" height="50" relative="1" as="geometry">
            <mxPoint x="720" y="259.16999999999996" as="sourcePoint" />
            <mxPoint x="800" y="259.16999999999996" as="targetPoint" />
          </mxGeometry>
        </mxCell>
        <mxCell id="0Q9B6U-qZB7gi46gYB2J-24" value="" style="endArrow=none;html=1;rounded=0;" edge="1" parent="1">
          <mxGeometry width="50" height="50" relative="1" as="geometry">
            <mxPoint x="800" y="259.16999999999996" as="sourcePoint" />
            <mxPoint x="800" y="170" as="targetPoint" />
          </mxGeometry>
        </mxCell>
        <mxCell id="0Q9B6U-qZB7gi46gYB2J-25" value="Hoszt rendszer" style="text;html=1;align=center;verticalAlign=middle;whiteSpace=wrap;rounded=0;" vertex="1" parent="1">
          <mxGeometry x="810" y="189.17" width="60" height="30" as="geometry" />
        </mxCell>
        <mxCell id="0Q9B6U-qZB7gi46gYB2J-26" value="" style="endArrow=none;html=1;rounded=0;" edge="1" parent="1">
          <mxGeometry width="50" height="50" relative="1" as="geometry">
            <mxPoint x="720" y="60" as="sourcePoint" />
            <mxPoint x="800" y="60" as="targetPoint" />
          </mxGeometry>
        </mxCell>
        <mxCell id="0Q9B6U-qZB7gi46gYB2J-27" value="" style="endArrow=none;html=1;rounded=0;" edge="1" parent="1">
          <mxGeometry width="50" height="50" relative="1" as="geometry">
            <mxPoint x="720" y="170" as="sourcePoint" />
            <mxPoint x="800" y="170" as="targetPoint" />
          </mxGeometry>
        </mxCell>
        <mxCell id="0Q9B6U-qZB7gi46gYB2J-28" value="" style="endArrow=none;html=1;rounded=0;" edge="1" parent="1">
          <mxGeometry width="50" height="50" relative="1" as="geometry">
            <mxPoint x="800" y="170" as="sourcePoint" />
            <mxPoint x="800" y="60" as="targetPoint" />
          </mxGeometry>
        </mxCell>
        <mxCell id="0Q9B6U-qZB7gi46gYB2J-29" value="Vendég rendszerek" style="text;html=1;align=center;verticalAlign=middle;whiteSpace=wrap;rounded=0;" vertex="1" parent="1">
          <mxGeometry x="810" y="100" width="60" height="30" as="geometry" />
        </mxCell>
        <mxCell id="0Q9B6U-qZB7gi46gYB2J-30" value="" style="endArrow=none;html=1;rounded=0;entryX=0;entryY=0.5;entryDx=0;entryDy=0;" edge="1" parent="1" target="0Q9B6U-qZB7gi46gYB2J-7">
          <mxGeometry width="50" height="50" relative="1" as="geometry">
            <mxPoint x="300" y="80" as="sourcePoint" />
            <mxPoint x="300" y="150" as="targetPoint" />
            <Array as="points">
              <mxPoint x="300" y="160" />
            </Array>
          </mxGeometry>
        </mxCell>
        <mxCell id="0Q9B6U-qZB7gi46gYB2J-32" value="" style="endArrow=none;html=1;rounded=0;" edge="1" parent="1">
          <mxGeometry width="50" height="50" relative="1" as="geometry">
            <mxPoint x="300" y="80" as="sourcePoint" />
            <mxPoint x="520" y="20" as="targetPoint" />
            <Array as="points">
              <mxPoint x="300" y="10" />
              <mxPoint x="520" y="10" />
            </Array>
          </mxGeometry>
        </mxCell>
        <mxCell id="0Q9B6U-qZB7gi46gYB2J-33" value="Applikáció komponensek" style="text;html=1;align=center;verticalAlign=middle;whiteSpace=wrap;rounded=0;" vertex="1" parent="1">
          <mxGeometry x="210" y="60" width="60" height="30" as="geometry" />
        </mxCell>
        <mxCell id="0Q9B6U-qZB7gi46gYB2J-34" value="" style="endArrow=none;html=1;rounded=0;" edge="1" parent="1">
          <mxGeometry width="50" height="50" relative="1" as="geometry">
            <mxPoint x="280" y="80" as="sourcePoint" />
            <mxPoint x="300" y="80" as="targetPoint" />
          </mxGeometry>
        </mxCell>
      </root>
    </mxGraphModel>
  </diagram>
</mxfile>
